<svg id="Layer_1" data-name="Layer 1" xmlns="http://www.w3.org/2000/svg" viewBox="0 0 841.89 595.28"><defs><style>.cls-1{fill:#231f20;}</style></defs><title>Artboard 2</title><path class="cls-1" d="M29.62,359.15V241.76H64.94V359.15Z"/><path class="cls-1" d="M129.8,361.79q-9,0-16.7-.62A94.53,94.53,0,0,1,98.69,359a60.17,60.17,0,0,1-12.48-4.4V321.83A60.9,60.9,0,0,0,106,332.22a64.13,64.13,0,0,0,18.19,3.17,20.21,20.21,0,0,0,9.23-1.85c2.4-1.23,3.6-3.67,3.6-7.3q0-3.53-3.87-5.72a49.54,49.54,0,0,0-10.54-4.14q-6.69-1.94-15.12-4.75a56.51,56.51,0,0,1-9.22-4.05,31.39,31.39,0,0,1-8-6.25,28.58,28.58,0,0,1-5.62-9.15,35.33,35.33,0,0,1-2.11-12.94,40.37,40.37,0,0,1,3.07-15.66,36.26,36.26,0,0,1,9.14-12.94,43,43,0,0,1,15.38-8.71,67.21,67.21,0,0,1,21.62-3.17,99.9,99.9,0,0,1,13.27.8A68.22,68.22,0,0,1,156.25,242a71.78,71.78,0,0,1,10.63,4.31v33.44a56.65,56.65,0,0,0-9.23-6.69,73.25,73.25,0,0,0-11.07-5.36,37.65,37.65,0,0,0-11-2.56,30.51,30.51,0,0,0-8,.36,13.2,13.2,0,0,0-6.5,2.9,8,8,0,0,0-2.55,6.42,7.28,7.28,0,0,0,2.81,6.08,23.66,23.66,0,0,0,7.82,3.69q5,1.5,11.16,3.26A105,105,0,0,1,154,292.62a38.16,38.16,0,0,1,10.37,6.51,25.53,25.53,0,0,1,6.59,9.42,34.82,34.82,0,0,1,2.29,13.28,39.2,39.2,0,0,1-5.54,20.86,37.68,37.68,0,0,1-15.29,14.08A48.75,48.75,0,0,1,129.8,361.79Z"/><path class="cls-1" d="M232.79,361.79q-9,0-16.7-.62a94.53,94.53,0,0,1-14.41-2.2,60.37,60.37,0,0,1-12.48-4.4V321.83A60.9,60.9,0,0,0,209,332.22a64.19,64.19,0,0,0,18.19,3.17,20.21,20.21,0,0,0,9.23-1.85c2.4-1.23,3.6-3.67,3.6-7.3q0-3.53-3.86-5.72a49.88,49.88,0,0,0-10.55-4.14q-6.68-1.94-15.11-4.75a56.23,56.23,0,0,1-9.23-4.05,31.57,31.57,0,0,1-8-6.25,28.58,28.58,0,0,1-5.62-9.15,35.33,35.33,0,0,1-2.11-12.94,40.2,40.2,0,0,1,3.08-15.66,36.11,36.11,0,0,1,9.13-12.94,43.06,43.06,0,0,1,15.38-8.71,67.21,67.21,0,0,1,21.62-3.17,99.9,99.9,0,0,1,13.27.8A68,68,0,0,1,259.24,242a71.34,71.34,0,0,1,10.63,4.31v33.44a57,57,0,0,0-9.22-6.69,73.82,73.82,0,0,0-11.08-5.36,37.66,37.66,0,0,0-11-2.56,30.58,30.58,0,0,0-8,.36,13.2,13.2,0,0,0-6.5,2.9,8,8,0,0,0-2.55,6.42,7.3,7.3,0,0,0,2.81,6.08,23.66,23.66,0,0,0,7.82,3.69q5,1.5,11.16,3.26A105,105,0,0,1,257,292.62a38,38,0,0,1,10.37,6.51,25.67,25.67,0,0,1,6.6,9.42,34.82,34.82,0,0,1,2.28,13.28,39.2,39.2,0,0,1-5.54,20.86,37.62,37.62,0,0,1-15.29,14.08A48.75,48.75,0,0,1,232.79,361.79Z"/><path class="cls-1" d="M351.07,363.55q-29.18,0-43.24-10.92t-14.05-35.55V241.76h36.9V315q0,11.26,4.22,16.72t14.24,5.46q8.61,0,13.53-5.46T367.59,315V241.76H401v75.32q0,16.37-6.51,26.67a37.94,37.94,0,0,1-17.75,15A65.37,65.37,0,0,1,351.07,363.55Z"/><path class="cls-1" d="M423.83,359.15V241.76H507v26.4H459.16v19h40.95v26.4H459v19.19h48v26.4Z"/><path class="cls-1" d="M610,359.15,566.72,241.76h41.12l30.06,97H626.65l30.05-97h37.62l-46.4,117.39Z"/><path class="cls-1" d="M707.5,359.15V241.76h35.32V359.15Z"/><path class="cls-1" d="M765.67,359.15V241.76H801V359.15Z"/><path class="cls-1" d="M271.84,443.48V420.14h5.66l10.91,14.28L286.28,439v-18.9h6.36v23.34h-4.9L276.8,429.8l1.4-3.19v16.87Z"/><path class="cls-1" d="M305.32,444c-3.09,0-5.43-.79-7-2.38s-2.36-4-2.36-7.18c0-3.47.78-5.92,2.36-7.35s3.91-2.13,7-2.13a12.8,12.8,0,0,1,5.16.93,6.54,6.54,0,0,1,3.22,3,11.9,11.9,0,0,1,1.1,5.54q0,4.8-2.45,7.18T305.32,444Zm0-5a3,3,0,0,0,1.67-.47,3.12,3.12,0,0,0,1.11-1.49,7.2,7.2,0,0,0,.4-2.63,8,8,0,0,0-.4-2.9,2.43,2.43,0,0,0-1.11-1.33,3.83,3.83,0,0,0-1.67-.35,3.71,3.71,0,0,0-1.67.35,2.2,2.2,0,0,0-1,1.33,9.2,9.2,0,0,0-.35,2.9A6,6,0,0,0,303,438,2.66,2.66,0,0,0,305.32,439Z"/><path class="cls-1" d="M322.87,443.48l-7.37-17.81h6.88l4.93,12.95h-1.57l4.09-12.95h6.78l-7.38,17.81Z"/><path class="cls-1" d="M346.53,444a10.31,10.31,0,0,1-4.89-1.12,8.12,8.12,0,0,1-3.32-3.17,9.37,9.37,0,0,1-1.19-4.78,10.55,10.55,0,0,1,2.39-7.33q2.4-2.64,6.94-2.64a8.45,8.45,0,0,1,4.83,1.26A7.33,7.33,0,0,1,354,430a18.86,18.86,0,0,1,.86,6.31H341.64l-.84-3.74h8.63l-.66,2.17a9.89,9.89,0,0,0-.61-4,2.09,2.09,0,0,0-2-1.1,2.26,2.26,0,0,0-1.3.44,3.08,3.08,0,0,0-1,1.4,7,7,0,0,0-.38,2.57,5.13,5.13,0,0,0,1.08,3.5,4.74,4.74,0,0,0,3.71,1.22,7,7,0,0,0,1.78-.24q.9-.24,1.71-.54c.54-.2,1-.35,1.33-.44v5.28a20.09,20.09,0,0,1-2.8.81A17.61,17.61,0,0,1,346.53,444Z"/><path class="cls-1" d="M375.37,431.34v12.14H369v-10.6a3.37,3.37,0,0,0-.2-1.21,1.81,1.81,0,0,0-.56-.8,2.23,2.23,0,0,0-.9-.44,5.25,5.25,0,0,0-1.25-.14,2.94,2.94,0,0,0-1.13.19,1.21,1.21,0,0,0-.58.37v12.63H358V427.21a10.88,10.88,0,0,1,1.75-.68,26.76,26.76,0,0,1,2.6-.69c1-.21,1.94-.38,2.92-.52a18.89,18.89,0,0,1,2.66-.21,12.81,12.81,0,0,1,4,.54,4.71,4.71,0,0,1,2.56,1.89A6.91,6.91,0,0,1,375.37,431.34Zm-6.22-2.73a10.46,10.46,0,0,1,2.74-1.77,20.75,20.75,0,0,1,3.58-1.26,14.58,14.58,0,0,1,3.46-.47,12.92,12.92,0,0,1,4,.54,4.69,4.69,0,0,1,2.55,1.89,6.91,6.91,0,0,1,.89,3.8v12.14H380v-10.6a3.38,3.38,0,0,0-.19-1.21,1.89,1.89,0,0,0-.56-.8,2.34,2.34,0,0,0-.91-.44,5.16,5.16,0,0,0-1.24-.14,3,3,0,0,0-1.14.19,1.22,1.22,0,0,0-.57.37Z"/><path class="cls-1" d="M399.17,444a22.77,22.77,0,0,1-3.08-.21,10.77,10.77,0,0,1-2.79-.75,4.88,4.88,0,0,1-2-1.54,4.25,4.25,0,0,1-.75-2.61V419.47h6.22v9.77l-1.05-2a3.74,3.74,0,0,1,1.57-1.38,7.41,7.41,0,0,1,2-.65,9.44,9.44,0,0,1,1.62-.18,7.48,7.48,0,0,1,5.93,2.37c1.38,1.57,2.07,3.95,2.07,7.12a12.85,12.85,0,0,1-.64,4.32,6.93,6.93,0,0,1-1.91,2.92,7.85,7.85,0,0,1-3.05,1.67A14.31,14.31,0,0,1,399.17,444Zm0-5.22a3.83,3.83,0,0,0,1.89-.43,2.76,2.76,0,0,0,1.15-1.28,4.91,4.91,0,0,0,.38-2.07,7.57,7.57,0,0,0-.5-3.09,3,3,0,0,0-1.31-1.47,3.79,3.79,0,0,0-1.72-.41,5.73,5.73,0,0,0-1.17.13,3.43,3.43,0,0,0-1.13.4v6.65a1.45,1.45,0,0,0,.26.91,1.51,1.51,0,0,0,.8.51A5.13,5.13,0,0,0,399.17,438.79Z"/><path class="cls-1" d="M420.38,444a10.31,10.31,0,0,1-4.89-1.12,8.12,8.12,0,0,1-3.32-3.17,9.37,9.37,0,0,1-1.19-4.78,10.51,10.51,0,0,1,2.4-7.33c1.59-1.76,3.91-2.64,6.93-2.64a8.45,8.45,0,0,1,4.83,1.26,7.33,7.33,0,0,1,2.74,3.8,18.61,18.61,0,0,1,.86,6.31H415.49l-.84-3.74h8.64l-.67,2.17a9.89,9.89,0,0,0-.61-4,2.09,2.09,0,0,0-2-1.1,2.25,2.25,0,0,0-1.29.44,3,3,0,0,0-1,1.4,7.22,7.22,0,0,0-.38,2.57,5.13,5.13,0,0,0,1.08,3.5,4.74,4.74,0,0,0,3.71,1.22,7,7,0,0,0,1.78-.24c.6-.16,1.18-.34,1.71-.54s1-.35,1.33-.44v5.28a20.09,20.09,0,0,1-2.8.81A17.55,17.55,0,0,1,420.38,444Z"/><path class="cls-1" d="M431.88,443.48V427.73a6.86,6.86,0,0,1,1.8-1.13,17.3,17.3,0,0,1,2.89-1.07,11.64,11.64,0,0,1,3.14-.46,14.57,14.57,0,0,1,3.46.32,4.86,4.86,0,0,1,1.82.8v4.52a11,11,0,0,0-1.42-.26c-.61-.08-1.27-.14-2-.18s-1.35,0-2,0a10.13,10.13,0,0,0-1.4.07v13.19Z"/><path class="cls-1" d="M457.29,443.48v-4.76a24.7,24.7,0,0,0,2.52-1.55,25.88,25.88,0,0,0,2.57-2.07,24.22,24.22,0,0,0,2.23-2.33,11.48,11.48,0,0,0,1.59-2.38,4.9,4.9,0,0,0,.6-2.2,3.43,3.43,0,0,0-.56-2.1,2.8,2.8,0,0,0-1.35-1,4.81,4.81,0,0,0-1.48-.26,5.87,5.87,0,0,0-2.88.77,21.63,21.63,0,0,0-3.06,2.1V422a19.22,19.22,0,0,1,3.49-1.63,14.17,14.17,0,0,1,4.79-.72,10.51,10.51,0,0,1,4.3.81,6,6,0,0,1,2.8,2.45,8.16,8.16,0,0,1,1,4.2,7.59,7.59,0,0,1-.59,3.06,9.31,9.31,0,0,1-1.61,2.52,15.82,15.82,0,0,1-2.24,2.08c-.81.63-1.64,1.22-2.48,1.75s-1.63,1.07-2.37,1.58l-1.26-.88h11v6.3Z"/><path class="cls-1" d="M488.4,444c-3.68,0-6.36-1-8-3s-2.52-5.07-2.52-9.16.84-7.1,2.52-9.13,4.36-3.05,8-3.05,6.42,1,8.09,3.05,2.5,5.07,2.5,9.13-.83,7.14-2.5,9.16S492.13,444,488.4,444Zm0-5.56a3.23,3.23,0,0,0,1.27-.25,2.57,2.57,0,0,0,1.11-.92,5.78,5.78,0,0,0,.78-2,16,16,0,0,0,.3-3.45,15.48,15.48,0,0,0-.3-3.39,5.82,5.82,0,0,0-.78-2,2.7,2.7,0,0,0-1.11-.94,3.08,3.08,0,0,0-1.27-.27,3,3,0,0,0-1.24.27,2.61,2.61,0,0,0-1.1.94,5.27,5.27,0,0,0-.77,2,16.32,16.32,0,0,0-.28,3.39,16.83,16.83,0,0,0,.28,3.45,5.25,5.25,0,0,0,.77,2,2.49,2.49,0,0,0,1.1.92A3.19,3.19,0,0,0,488.4,438.41Z"/><path class="cls-1" d="M502.55,443.48v-4.76a23.65,23.65,0,0,0,2.52-1.55,25.88,25.88,0,0,0,2.57-2.07,24.36,24.36,0,0,0,2.24-2.33,12.34,12.34,0,0,0,1.59-2.38,5,5,0,0,0,.59-2.2,3.43,3.43,0,0,0-.56-2.1,2.82,2.82,0,0,0-1.34-1,4.87,4.87,0,0,0-1.49-.26,5.87,5.87,0,0,0-2.88.77,22.84,22.84,0,0,0-3.06,2.1V422a19.54,19.54,0,0,1,3.49-1.63,14.17,14.17,0,0,1,4.79-.72,10.47,10.47,0,0,1,4.3.81,6,6,0,0,1,2.8,2.45,8.16,8.16,0,0,1,1,4.2,7.59,7.59,0,0,1-.6,3.06,9.31,9.31,0,0,1-1.61,2.52,16.3,16.3,0,0,1-2.23,2.08c-.82.63-1.65,1.22-2.49,1.75s-1.63,1.07-2.37,1.58l-1.26-.88h11.05v6.3Z"/><path class="cls-1" d="M533.66,444c-3.68,0-6.36-1-8-3s-2.52-5.07-2.52-9.16.84-7.1,2.52-9.13,4.36-3.05,8-3.05,6.42,1,8.09,3.05,2.5,5.07,2.5,9.13-.83,7.14-2.5,9.16S537.39,444,533.66,444Zm0-5.56a3.32,3.32,0,0,0,1.28-.25,2.6,2.6,0,0,0,1.1-.92,5.78,5.78,0,0,0,.78-2,16,16,0,0,0,.3-3.45,15.48,15.48,0,0,0-.3-3.39,5.82,5.82,0,0,0-.78-2,2.74,2.74,0,0,0-1.1-.94,3.16,3.16,0,0,0-1.28-.27,3,3,0,0,0-1.24.27,2.61,2.61,0,0,0-1.1.94,5.44,5.44,0,0,0-.77,2,16.32,16.32,0,0,0-.28,3.39,16.83,16.83,0,0,0,.28,3.45,5.41,5.41,0,0,0,.77,2,2.49,2.49,0,0,0,1.1.92A3.19,3.19,0,0,0,533.66,438.41Z"/></svg>