<svg id="Layer_1" data-name="Layer 1" xmlns="http://www.w3.org/2000/svg" viewBox="0 0 725.45 432.88"><defs><style>.cls-1{isolation:isolate;}.cls-2,.cls-3,.cls-5,.cls-6,.cls-7{fill:none;}.cls-2,.cls-6{stroke:#231f20;}.cls-2{stroke-miterlimit:10;}.cls-2,.cls-7{stroke-width:3px;}.cls-3{stroke:#ed1c24;stroke-width:13px;}.cls-4{fill:#006838;}.cls-5{stroke:#e41e26;}.cls-5,.cls-6{stroke-width:10px;}.cls-7{stroke:#f7941d;}.cls-8{font-size:30px;fill:#efe2d6;font-family:Montserrat-SemiBold, Montserrat;font-weight:600;}.cls-9{letter-spacing:-0.02em;}.cls-10{letter-spacing:0em;}.cls-11{letter-spacing:-0.01em;}.cls-12{letter-spacing:0em;}</style></defs><title>issueViiCover3_jazz2</title><g class="cls-1"><path class="cls-2" d="M35.78,222.67l-8,1.58-6.05-3.06-3.49-3.8,1.65-4.75-.52-4.74,3.86-4.9-2.63-4.66,1.66-4.88-1.72-4.65,1.77-4.93-3.2-4.44,1.76-5-4-4.22,3.4-5.22L18,160.64l1.75-5-.43-4.68,3.77-5.52-1.57-4.46,1-5-5.69-3.39,1-5,.3-6.11,9.61-1.25,7.07-1.7,4,3.55L35.5,127.9l.36,4.88,1.76,4.59L34.44,143l.14,4.93,2.12,4.58-1.88,5.3,4,4.36-2.61,5.38.52,4.92,2.05,4.76-6.9,5.68,6.19,4.42-2.83,5.2,1.7,4.87-3.81,5.15,5.31,4.8-2.9,5.06-1.06,5Z" transform="translate(-3.2 88.59)"/><path class="cls-2" d="M62.8,218.34l-2.48-5.22,5.25-5.26-4-5.59,9.33,4.32,9.18,2.69,8.62,4.82,9.47-1.29,7.75.81,7-3,7.6-2.29,1.69-6.06,3.83-4.81-3.4-5.44,2.88-4.88-3.82-3.39L117,176.6l-4.85-2.45-2.89-5-6.83-1.2L97,165l-9.5,1.67-5.75-3.23-6-2.3L73,156.21l-3.39-3.71-6.84-2.11L64,143.91l-.91-5.4L61.7,134l4.36-5.1,2.09-4.74,2.62-6.65L78,112.18l4.88-7.27,8.94-3.16,8.2-4.17L108.57,93l7,3.75,7.82-6.55,6.54,1.84L138,92l-3.77,7.16,5.31,4.55-2.91,6.64-6.27-3-7.6-.34-7.54-1-8.21.74-10.09,5.78-9.55,5.08-7.77,7.29-2.69,5,4.7,3.68-3.28,9.35,10.75,1.42.8,5.54,6.56-.61,6.1,1.75,6.58,1.15,3.3,7.23,7.49,1.41L126.5,163l3.61,5.2,5.51,3.44,6.23,3.89.37,7.35.07,7-2.39,5.74,3,6.29-3,5.7-8,4.24-4.28,5.84L121,221.58l-8.6-.42-7.51,5.63-9.11-.57-7.16-3.88-8.91-1.28-8.39-2.24Z" transform="translate(-3.2 88.59)"/><path class="cls-2" d="M161.13,218.72l-2.48-6.57,5.25-6.57-4-7,9.33,5.47,9.17,3.41,8.63,6,9.47-1.59,7.74,1,7-3.63,7.59-2.77,1.69-7.39,3.83-5.83L221,186.58l2.88-5.91-3.82-4.2-4.7-8.86-4.85-3.1-2.9-6.21-6.82-1.65-5.48-3.79-9.5,1.79L180,150.47l-6-3.06-2.74-6.24-3.39-4.77-6.84-2.92,1.21-8.07-.92-6.82L160,112.9l4.37-6.15,2.08-5.82,2.63-8.15,7.23-6.22,4.87-8.73,9-3.32,8.2-4.61,8.54-5.05,7,5,7.83-7.52L228.24,65l8.11.36-3.78,8.47,5.32,5.81L235,87.55l-6.27-3.94-7.6-.82-7.55-1.69-8.2.45-10.1,6.51-9.54,5.73-7.78,8.61-2.68,6.08,4.7,4.82-3.28,11.47L187.43,127l.8,6.9,6.56-.51,6.1,2.37,6.57,1.64,3.3,9,7.49,1.94,6.58,2.9,3.6,6.42L234,162l6.23,4.83.37,8.91.07,8.43-2.39,6.93,3,7.64-3,6.89-8,5.12L226,217.8l-6.62,4.82-8.6-.49-7.51,6.93-9.11-.65L187,223.64l-8.91-1.57-8.38-2.77Z" transform="translate(-3.2 88.59)"/><path class="cls-2" d="M361.48,146.82l2.31,9.13-5.74,9.16,3.18,9.51-3.06,8.82-1.56,9.06-6.3,6.53-1.26,9.17-5.76,5.42L339,220.73l-7,2.21-5.73,6.33-7.48-.67-7.16,5.05L304.11,229l-8,.64-6.64-5.13-6.71-4.26-2.66-8.7-5.38-5.43-2.25-7.65-7.78-5.62L264,184.4l-1.62-8.1,2.45-8.67.4-8.22L261,151.83l3.37-8.42-.36-8-1.76-7.77,3.17-8.53-.14-8-2.12-7.64L265,95l-4-7.17,2.62-8.6-.52-7.91-2.05-7.5L266.9,57l5.15-7.09,7.51,1,1.65,7.61-3.81,9.12,5.32,6.86-2.9,8.84-1.07,8.36.49,8-1.9,8.49-1.15,8.3,2.84,7.67-.81,8.25L277,140.67l-.53,8.18,5.3,7.59-5.16,9,7.17,7-3.58,9.4,5.47,6.5,3.6,6.74,5.27,4.85,2.78,10.63,8.23.67,7.68-.86,7.55,1.53,6.59-4.76,3.92-7.82,5.81-4.78,3.77-7.46,4.18-8-2.89-9.45,1.31-8.6,4.63-9.16-1.82-9-.53-9.13,3.42-9.67-5.64-8.39,1-9.33,4.32-10-.13-9.22.25-9.29L347.49,69l-2-8.74L348,50.38l-4.5-8.06L344.15,31l9.15-4.65,5.65,5.1-.78,6.72L363.23,46l-5.74,10.5,1.56,8.73-.3,9.15.51,9-1.7,9.41.85,8.92,5.15,8.29-.78,9.26-2.3,9.44.39,9.08Z" transform="translate(-3.2 88.59)"/><path class="cls-2" d="M462.37,229.51l-8.07,3.68-7.63-7.61-7.62,5.74-7.63-2.44-7.64.6-7.63-5.41-7.63,3.49-7.64-2.33-7.39,2.32,1.87-9.6-3.2-9.9,1.76-10-4-9.77,3.4-10.06L391,168.49l1.75-10-.43-9.88,3.77-10.32-1.56-9.77,1-10.09-5.68-9.1,1-10-.54-9.8,3-10.47.58-10-4.26-9,3.37-10.67-.36-9.83L391,30l2.91-9.86,6.65-1.64,7.31-4.86,7.31.54,7.31-7.5,7.31,1.57,7.3-2.74L444.4.54l7.32,7.79L461.07-1.8l-2.16,15.22,1.31,13.22L451.81,24l-7.22,9.33L437.36,31l-7.23.28-7.23,2.46-7.23-.82L406,35.21l1.86,12.87L407,58.35l-1.18,10.34-.53,10.18,5.3,9.13-5.38,11,5.48,6.08,5.54,4.81,7.8-5.76,7.8-1.67,7.8-2.74,7.81,7.84,6.77-4.33,1,10.38-1.47,10.05L447.44,126l-7.8,5.49-7.8-1.85-7.8.11-7.81-1.89-5.94,5.49.14,8.15L406,152.53,407.82,163l.53,10.61-3.42,10.79,5.64,10.43-1.34,9.65,6.84,5.31,7.64-.25,7.64.28,7.64-2.25,7.65-3,7.64,3.51,9.28-5.58.6,14.21Z" transform="translate(-3.2 88.59)"/><path class="cls-2" d="M634.37-47.62l.29,14.82L627.46-21l1.78,14.26L625.48,5.8,623.8,19l-5.88,11.72.34,13.71-3.77,12.25L614,70,610.08,82,611,95.86l-3.87,11.92,1.68,14.15L603.34,133l0,13.38L599.46,158l-1.77,12.5-5.79,10.54L591.22,194l-3.16,11.63,3.25,14.86-4.08,13.62-9.67,1.39-8.26-5.12-1.51-11.92-6.21-9.72,1.09-13.29L560.19,184l-3.82-10.67.9-13.16L555,148.74l-4.17-10.25-.33-12.39-6-9,.37-12.71-2.63-10.87-4.1-9.88,4.47-15.28-8.06-7.16.57-12.73-3.76-9.8,1.51-13.36-7.23-7.22.65-12.69L525.21-6.06l-2.7-9.68,8.15,1,6.48-.92,3.49,6.53L542,2.59l1,12,1.6,11.64,7.2,7.93L548.67,49,557,56.46l-2.75,14.66,5.34,9.58,2.45,11.47,3.18,11.1-4,15.37,3.94,10.75,3.42,11.14.16,13,3.78,11.11,5.24,10.45-.27,12.56.46,11.81,1.63.85-3-13.45L579,175.06l6.4-10.5.41-13.19,1.64-12.7,5.43-11.25-3.25-14.71,3.13-12.27,6.29-11.23,2-12.86,2.4-12.78.67-13.42.2-13.57L609,24.3,606.82,10,609-3.13l1.15-13.42,8-11.78,1-10.57,6.55-9.75Z" transform="translate(-3.2 88.59)"/><path class="cls-2" d="M668.13,232.85l-8,4.66-6-8.45-3.49-10.73,1.65-13.5-.52-13.49,3.86-13.65-2.63-13.41,1.66-13.63-1.72-13.4,1.77-13.69-3.2-13.19,1.76-13.72-4-13,3.4-14-2.25-13.14,1.75-13.79-.43-13.43,3.77-14.27L653.84,1.85l1-13.78-5.69-12.14,1-13.75.3-17.23,9.61,1.32L667.19-55l4,11.68-3.37,14.6.36,13.64L670-1.75l-3.18,14.4.14,13.68,2.12,13.34-1.88,14,4,13.11L668.55,81l.51,13.68,2.06,13.52-6.9,14.42,6.19,13.17-2.83,13.95,1.7,13.63-3.81,13.91,5.31,13.56-2.9,13.8-1.06,13.79Z" transform="translate(-3.2 88.59)"/><path class="cls-2" d="M717.38,233.65l-8,4.89-6-8.86-3.49-11.27,1.64-14.18L701,190.05l3.87-14.33-2.64-14.09,1.66-14.31-1.71-14.09,1.76-14.37L700.7,105l1.76-14.4-4-13.65,3.4-14.66-2.26-13.82L701.32,34l-.43-14.11,3.77-15L703.1-9l1-14.46-5.68-12.83,1-14.43.31-18.1,9.61,1.52,7.06-1.25,4,12.32L717.1-40.93l.36,14.32,1.76,14L716.05,2.5l.14,14.36,2.12,14-1.89,14.73,4,13.8L717.8,74.22l.52,14.35,2,14.2-6.89,15.11,6.18,13.85-2.82,14.64,1.69,14.31-3.81,14.58L720,189.51,717.14,204l-1.07,14.47Z" transform="translate(-3.2 88.59)"/></g><g class="cls-1"><path class="cls-3" d="M33.48,221.11l-5.71,2.32-9.9.16,5.5-6.19-4-4.75-.4-4.74.52-4.76-2.3-4.63,3.05-4.92-1-4.68,2.83-5-4.28-4.32,1.19-4.87,4.84-5.41-6.64-3.81.69-4.83L17.49,156l5.64-5.8-5.66-3.64.84-4.91,5.39-6-2.32-4.23,1.69-5.23-3.52-4.24,8.22-.88,8.79-4.2-1.71,6.24-2,5.46,1.11,4.67,4.47,4-.68,5.15-3.59,5.7-.92,5.11,2.37,4.55-3.12,5.45,5.73,4.14-4.6,5.58.11,4.94,2.77,4.68-3,5.23,3.17,4.73-2.14,5.11.2,5,3.42,4.87L33,212.47l4.34,5.13Z" transform="translate(-3.2 88.59)"/><path class="cls-3" d="M66,217.91l-4.42-4.8L60.1,208l6.24-4.5,4.85,2.76,9,2.75,9.23,2.3,8.71-1.15,7.44,1.89,6.81-2.38,7.92-1.46.67-6.38,3.15-4.56,5.44-5.58-7.1-3.81-.92-4-6.11-5.8-1-6.57-8.25,1.73-5.5-3-3.17-6.11L90,163.47l-5.2-3.62-7.71,0-3-4.45-6.54-1.69-1-5,.09-5.59-1.62-5-4.08-4,2-5.11,5.65-4.79,5-5.83,4-6.53,8.34-3.55,5.37-7.86,9.26-.6,8.08-2.81L115.84,93l6.79,1.23,7.7-3.34,5.27,2.22.18,5.64,3.42,5-4.92,6.32-5.27-.3-6.52-1.94-8,2.58L107,107.7l-9.46,6.54-9.16,4.12-5.78,7L77,129.84l2,4.21.35,8.29,7.13,4.33,3.15,3.39,6.5-.48,5,3.33,8.11-1,5,5,7.84,1.19,4.76,4.54,5.54,3.71,1.06,6.6,4.49,4.27,1,6.36,6.28,6.08-1.38,6.11-.71,6.14L138,206.82l-4.73,5.82-3.06,7.7-9.08,1.4-7.65,2.54-8.54,2.6-9.13-2.23-7.48-.49-9.65.06-8.37-3.54Z" transform="translate(-3.2 88.59)"/><path class="cls-3" d="M164.33,218.17l-4.41-6-1.49-6.44,6.23-5.6,4.85,3.49,9,3.47,9.24,2.9,8.71-1.39,7.44,2.35,6.81-2.9,7.91-1.75.68-7.79,3.14-5.53,5.44-6.75-7.09-4.73-.92-4.92-6.11-7.21-1-8.06-8.26,1.93-5.5-3.77-3.16-7.62-7.59-1-5.21-4.64-7.7-.24-3.06-5.66-6.53-2.37-1-6.31.1-7-1.63-6.35L159.24,113l2-6.31,5.65-5.66,5-7,4-7.88,8.33-3.88,5.38-9.38,9.26-.14,8.07-2.94,7.28-4.54L221,67.17l7.69-3.59,5.28,3,.18,6.86,3.42,6.29-4.92,7.43-5.27-.64-6.53-2.7-8,2.72-7.49-3.77-9.46,7.52-9.16,4.56L181,103.23l-5.61,5.25,2,5.35.35,10.33,7.12,5.69,3.16,4.32,6.5-.35,5,4.29,8.12-1,5,6.33,7.83,1.68,4.77,5.67,5.53,4.66,1.07,8,4.49,5.27,1,7.73,6.28,7.46-1.38,7.37-.71,7.43-5.16,5.92-4.73,7.06-3.06,9.36-9.09,1.72L211.81,226l-8.53,3.22-9.13-2.7-7.49-.57L177,226l-8.38-4.39Z" transform="translate(-3.2 88.59)"/><path class="cls-3" d="M358.22,147.15l4.31,8.84,1,9.38-7.34,8.53,2.54,9.68L357,192.66,353.69,201l-1.82,9.58-7.13,4.78-5,6.71-7.64,1.16-5.51,7.61-7.59,0-7.38-5.37-7.9,7-7.67-2.73-7.59-3.06-3.34-9.87-9.3-1.31L272,207.91l1.6-10-4.49-6.59,0-8.25-4.79-7.17,1.83-8.49-3.39-7.8,2.22-8.27,2-8.3-1.1-7.92-4.48-7.39.69-8.11L265.7,111l.91-8.24-2.37-7.58,3.12-8.73-5.72-6.74,4.6-9.15-.12-8-2.43-8.26,8.36.69,8.44-5.44-1.76,9.6.2,8.08,3.42,7.34-5.07,9.31,4.35,7.2-1.39,8.45,2.46,7.71-5.25,9.06,4.14,7.49-1.64,8.4.52,8.09-3.87,8.6,2.64,7.86-1.44,8.54,2.44,8-.32,8.68,5.34,6.62,1.88,8.22,7.65,2.87,4,7.49,7.51-.06,7,2.68,7-1.33,8.23,1.44,5.63-6.81,5.76-6.39-1.72-10.83,3-7.67.76-8.51,3.71-8.6.79-9-4.26-8.73,3.38-9.57-.37-9.14-1.76-8.92,3.18-9.69-.14-9.18L344.37,88l1.88-9.56-4-8.33,2.61-9.76-.51-9.06-2.05-8.65,5.85-7.69,5.14-7.86,7.5,1.42,1.66,8.56-3.81,10.08L364,55l-2.9,9.8L360,74.12l.5,9-1.9,9.46-1.15,9.28,2.83,8.63-.8,9.22L358.29,129l-.48,8.43Z" transform="translate(-3.2 88.59)"/><path class="cls-3" d="M460,226.29l-5.65,5.09-7.63,2-7.62-9.26-7.63,5.54-7.64.42-7.63-.85-7.63,3L400.88,228l-8.33.85L395.08,218l-4.28-9.89,1.2-9.92,4.83-10.09-6.63-9.62.69-9.93-.33-9.86,5.63-10.43-5.65-9.34.84-10,5.39-10.64-2.32-9.63,1.69-10.21-3.79-9.29,2.41-10.38-3.22-9.28,2.22-10.39,2-10.41L394.68,39l-4.48-8.79,1.36-12.42,9,1.33,7.31-.76,7.31-5.21,7.31,2.27,7.31-9.92,7.3,4.4,7.31-2.15,7.32-5.95,5.86,1.81,2.68,9.5-1.91,11.68-6.54,1.45-7.22,6.62-7.23-5.39-7.23,7.85-7.23-.18-7.23,5.12-8.82-4.06,3.53,11.32L408.73,58l.52,10-3.86,10.86L408,88.46l-1.66,10.38L408.18,109l8.05,1.36,7.8-5.54,7.8,1.29,7.8-6.82,7.81,3.63,9.42-3.64-1.15,14.28.18,12.79-8.45-4-7.8,3.16-7.8-.49-7.8,8.78-7.81-.53-5.77.24-2.2,8.16-.58,10.69,4.25,10.32-3.37,10.9.36,10.62,1.77,10.61-2.92,11.59,8.3.07,7.64-3,7.64,2.49,7.64-5.73,7.65,3.55,7.64-.87,10.16-1.56-6,14.82Z" transform="translate(-3.2 88.59)"/><path class="cls-3" d="M631.86-43.23l1.59,10.09-.76,13.6-8.37,11.3L626,6l-1.8,13.12-2.68,12.78,0,13.65-5.1,11.81-1.2,13.13-4.89,11.68,1.91,14.25-3.32,12.15-6.81,10.63,4.17,15.15-2.84,12.16L601.59,159,594,168.83l3.22,14.8-3,11.82L586.92,205l0,13.19-2.66,8.59-6.74,5.38-7.5-3.65-4.62-9V206.79l-.2-12.69L562,183l-6.42-9.3-1.48-11.85,1.3-13.35-1.26-11.92-4.41-10.05.86-13.08L543,105.51l2.27-13.88L543,80.55l-4.79-9.38L539,58.26l-5.17-9L533.78,37,531.44,26.3,526,17.81l2.73-14.19L522.45-4l-.68-12.5,8.89-6.66,7.2,5.69,5.23,6.59.53,12.35,2.61,10.91-1.6,13.86,4.64,9.64.51,12.47,3.76,10.41L554,71.32,559.14,81l.42,12.7,6,9.39-1.16,13.73,4.28,10.59.43,12.85L571.62,152l-1.51,13.95,3.62,11.26.55,11.54,6.57,9.43-5.12.51.61-11.89,4.78-10.8,2.71-12.13-1.94-14.14,5.39-11.13,1.81-12.69.46-13.23,5.2-11.51,2-12.78.12-13.49,4-12.22-1.68-14.12,4.66-12.14,1.66-13.15.18-13.6,8.77-11.3-3.78-14.77L615.52-29l1.13-15.31,8.82,3.68Z" transform="translate(-3.2 88.59)"/><path class="cls-3" d="M665.83,228.58l-5.71,6.63-9.9.79,5.5-17.66-4-13.5-.4-13.49.52-13.51-2.3-13.38,3-13.67-1-13.43,2.83-13.77-4.28-13.07,1.19-13.63,4.84-14.16-6.64-12.56.69-13.58-.33-13.42,5.64-14.56-5.66-12.39.84-13.67,5.39-14.75-2.32-13,1.69-14L651.9-52.92l8.22,1.62,8.79-7.37L667.2-42.28l-2,14.21,1.11,13.43,4.47,12.71L670.07,12l-3.59,14.44-.92,13.87,2.37,13.31-3.12,14.19,5.73,12.9L665.94,95l.11,13.69,2.77,13.43-3.05,14,3.17,13.48-2.14,13.86.2,13.7,3.42,13.64-5.08,13.82,4.34,14.23Z" transform="translate(-3.2 88.59)"/><path class="cls-3" d="M715.08,229.16l-5.7,7-9.9.84L705,218.42l-4-14.19-.4-14.17.53-14.19-2.31-14.06,3.06-14.35-1-14.12,2.83-14.45-4.28-13.75,1.2-14.31L705.37,76l-6.63-13.25.68-14.26-.32-14.1,5.63-15.24L699.08,6.06l.84-14.34,5.39-15.44L703-37.39l1.69-14.67-3.52-14.48,8.22,1.81,8.78-7.62-1.71,17.19-2,14.89,1.1,14.11L720-12.76l-.69,14.58L715.73,17l-.91,14.55,2.37,14-3.12,14.87,5.72,13.58-4.6,15,.12,14.37,2.76,14.11L715,132.11l3.17,14.16-2.14,14.54.21,14.39,3.41,14.31L714.6,204,718.93,219Z" transform="translate(-3.2 88.59)"/></g><g class="cls-1"><path class="cls-4" d="M37.44,223.82l-9.67-1.31-8.84.42,2.81-5.53-2.11-4.76-.47-4.73L23.27,203,17,198.53l5.49-5.09L18,189,20,184.1,23.4,179l-3.86-4.33.12-4.77,1.84-5-2.94-4.29,5.18-5.66-7.06-3.45,3-5.34L16.76,142l1.33-5,.82-4.93,4.57-6-2-3.41,6.27-4.75,5.45,2.1-1.07,3.79-.29,5,.86,4.72-.23,5,2.68,4.38-.15,5,3.08,4.42-3.5,5.59L33.77,163l0,4.95.09,4.94,2.91,4.64-.88,5.07L37,187.44l1.1,4.92-4.18,5.24.4,4.93,3.34,4.87-2.9,5-1.27,5.11Z" transform="translate(-3.2 88.59)"/><path class="cls-4" d="M60.48,218.66,63,213.09,61.6,208l3.22-4.86L71,206.43l9.12,2.71,8.54,5L98.17,210l7.79,3.79,6-5,7-1.83,7.07-3.12-1.26-6.52.74-5.43,1.3-5-4.54-3.36L119.8,174l-9.23,2-3.12-4.37-7.53-.23-5.29-3.18-6-3L85,159.57,79,158.09l-8.66.17,1.3-6.93-2.55-3.74-1.47-4.75-1.37-5,.58-4.49L65.37,129l2.38-4.81,1.92-6.94,8.47-4.93,7.1-4.66,7.32-4.26,7.9-3.66,8.11-5,7.24-1.16,7.39-2.33,7.58-1.59,4.28,3.77.36,5.49,3.34,5-2.86,6.38-5-3.78L123.45,105l-8.76,4.33L107,112,96.3,110.7l-7.57,7.91L83,125.44l-2.29,4.16,1.78,3.74-1.2,8.06,6.2,4.39,2.38,4.08,7.07-1.3,5.27,2.9,3.52,5.65L116,154.59l6.2,3.39,6.2,3.11,1.08,7.64,8.79,1.31,2.65,5.89-3.07,7.89,2.89,6.1-2,5.6,2.56,6-4.47,4.81-1.56,7.52-7.51,3.82L120,219.76l-7,3-7.93,4.73-9.23-.32-7.42-3.36-8.87-2.1-9.5-.53Z" transform="translate(-3.2 88.59)"/><path class="cls-4" d="M158.81,219.11l2.54-7-1.42-6.46,3.22-6.07,6.21,4.22,9.11,3.44,8.55,6.22,9.48-5,7.79,4.69,6-6.17,7-2.2,7.07-3.77-1.26-8,.74-6.61,1.29-6.09-4.53-4.17-2.46-11.71-9.23,2.24-3.11-5.44-7.53-.47-5.29-4-6-3.86-3.6-7.1-6.06-2-8.66-.1,1.3-8.62-2.55-4.78-1.47-6L164.54,118l.58-5.6-1.43-5.63,2.39-5.88L168,92.28l8.48-5.6,7.1-5.34,7.32-4.81,7.89-4,8.11-5.69,7.24-1,7.39-2.37L229.1,62l4.28,4.84.36,6.68,3.35,6.31-2.86,7.59-5-4.86-7.42-2.13L213,85.26l-7.66,2.85-10.73-2.27-7.57,9.35-5.73,8.14-2.29,5,1.78,4.75-1.2,10,6.2,5.71,2.38,5.15,7.07-1.33,5.26,3.76,3.52,7.07,10.24-2.78L220.5,145l6.2,4,1.07,9.32,8.8,1.79,2.65,7.2-3.08,9.51,2.9,7.43L237,191l2.57,7.33-4.47,5.82-1.56,9.11-7.51,4.65-7.77,2.52-7,3.7-7.94,5.83-9.22-.34-7.43-4.12-8.87-2.57-9.49-.63Z" transform="translate(-3.2 88.59)"/><path class="cls-4" d="M363.84,146.58,361.1,156l.9,9.26-4.23,8.83.64,9.38-1.61,9.06L350.28,199,352,210.69l-8.87,2.7-2.69,9.89L333,225.55l-7.74-1.29-6.27,5.9-7.31.16-7.37-2.79-8,1.46-5-8.53-10.12,2.06L277.54,214l-6.91-5.19-2.27-8.4-1.67-8.22,2.83-9.16-2.44-7.58-5.79-7.33,6.23-8.92.15-8.1L268,143l-.86-8,.23-8.12-2.68-7.63.14-8.07-3.07-7.45,3.5-8.73.82-8.24,0-8.07L266,70.63l-2.91-7.31,1-8.71,7.94-3.56,9.47-3-3.35,11.22.4,8,3.35,7.34L279,83.45l-1.29,8.41-.75,8.26,4.47,7.31,1.49,7.92-6.47,9.19,4,7.53.4,8.11-.53,8.24,2.31,7.93-2.84,8.58,1.74,8-1.38,8.89,6.33,6.08,2.23,7.59,1.44,10.14,9.88-1.75,6.23,3,7,.23,7.71,5.75,5.13-9.05,5.9-3.62,8.86-2.78,1.51-9.7,3.88-8.33-2.34-9.57L347,161l-3-8.72,2.21-9.42,2-9.45-1.1-9.08-4.48-8.53.69-9.27,3.59-9.8.91-9.39-2.37-8.74,3.12-9.88-5.73-7.89,4.61-10.3-.12-9.2-2.44-9.54,8.37,1.1L361.74,27,360,37.71l.2,9,3.42,8.3-5.08,10.28,4.36,8.17-1.4,9.42L364,91.6l-5.25,10,4.14,8.45-1.65,9.37.53,9.06-3.81,10.34Z" transform="translate(-3.2 88.59)"/><path class="cls-4" d="M464.11,231.85l-9.81-2.52-7.63,1.88-7.62-4.82-7.63,2.83-7.64.53L416.15,224l-7.63,8.34-7.64-7.5-9.15,5L393,218l3.45-10-3.86-9.86.13-9.92,1.84-10-2.94-9.74,5.17-10.32-7.05-9.3,3-10.21-2.93-9.55L391.15,119l.83-10,4.57-10.66-1.43-9.72-5.22-8.94,6.4-11.2.16-10,.29-10-.86-9.76.23-10-2.73-9,7.16-1.7,7.31-6.16,7.31,2.72,7.31-.87,7.31-1.94,7.3-2.11,7.31-6.12,7.32-.78,8.53-3.16,1.49,13.21-3.81,11.65-6.12,1.35-7.22,6.52-7.23-2.34h-7.23l-7.23.75-7.23,7.9-4.88,1.83-5.55,8.34,4,9.19.4,10-.52,10.24,2.3,9.71L408.4,98.51l.72,9,7.11,2.42,7.8-7,7.8.47,7.8,5.64,7.81-10.53,9.52.59,1,14.15-4.83,9.64-5.66,7.4-7.8-.31-7.8-6.61-7.8,4.16-7.81-1.37-7.17,5.63-2.14,10,3.21,10.33L407.91,163l-2,10.76,1.1,10.56,4.48,10.49-1.35,8.51,5.95,3.8,7.64,1.16,7.64-3.39,7.64,4.27,7.65-8.21,7.64,6.44,6.42-1L463,216.64Z" transform="translate(-3.2 88.59)"/><path class="cls-4" d="M636.17-50.8l-4.09,17.29L631.25-20,625.88-7.78l-.16,13.65L624,19l-6.11,11.64,3.78,14.91-7.43,11,2.12,14.33-4,12-5.48,11.36,1.51,14-2.3,12.5-3.94,11.72.63,13.65-7.13,10.14,4.57,15.4-5.07,10.91.62,13.57-3.44,11.53-3,11.71-5.25,6.81-6.51,1.35-10.24,7.51L570,217.35l-2-11.86-1.85-11.87-3-11.23-1.91-11.73-4.71-10.14-2-11.54-5.08-9.73L550.72,126l-1.35-11.77-2.1-11.28-2.22-11.15-4.93-9.38L538.83,70.8l-3.2-10.31-3.19-10.24,1.87-13.59-2.52-10.6-5.34-8.54.65-12.7-.91-11.6-2-7.08,6.44-7.36L541-25.53,538.16-7.38l6,8.43,2.49,11,1.61,11.68,4.33,9.89L551.74,47l3.09,10.85-.61,13.28,6.23,9,1,12.39-2.54,14.49,8.49,8,1.45,12.25,2.42,11.74L567.93,154l7.55,9.09,1.3,12.54-3.66,13.51,3.33,11,4.32.66-2.5-13.41,4.13-10.85-.92-13.72,4.27-11.51,4.1-11.7,1.09-13-2.14-14.26L591.61,100l5.6-11.46,3-12.5-.12-13.61,5.14-11.93-3.34-14.67,6.57-11.68,2-13.12L610-2.84l5.08-12.42-.88-14,3.86-11.88,7.72-2.18Z" transform="translate(-3.2 88.59)"/><path class="cls-4" d="M669.79,236l-9.67-3.33-8.84,1.48,2.81-15.76L652,204.84l-.47-13.49,4.11-13.66-6.24-13.22,5.49-13.84-4.5-13.18,1.93-13.66,3.45-13.89-3.86-13.08L652,83.29l1.84-13.78-2.94-13,5.18-14.42L649,29.85l3-14.09L649.11,2.89l1.33-13.78.82-13.69,4.57-14.71-2-10.62,6.27-10.21,5.45,8.54-1.07,10-.29,13.74.86,13.47L664.84-.62l2.68,13.12-.15,13.75,3.08,13.17L667,53.76l-.83,13.83,0,13.71L666.18,95l2.91,13.39-.88,13.82,1.11,13.64,1.1,13.67-4.18,14,.4,13.69L670,190.82l-2.9,13.79-1.27,14.15Z" transform="translate(-3.2 88.59)"/><path class="cls-4" d="M719,236.9l-9.66-3.49L700.54,235l2.8-16.56-2.1-14.18-.48-14.17,4.11-14.34-6.23-13.9,5.49-14.52-4.5-13.86,1.92-14.35L705,104.52l-3.86-13.76.13-14.21,1.84-14.47-2.94-13.72,5.17-15.1-7.05-12.88,3-14.77L698.37-7.94l1.32-14.47.83-14.37,4.57-15.39-2-11.18L709.38-74l5.44,9-1.07,10.5L713.46-40l.86,14.16-.23,14.41,2.68,13.81-.14,14.43,3.07,13.85-3.5,15-.82,14.52,0,14.38.09,14.38L718.34,103l-.87,14.5,1.1,14.32,1.1,14.35-4.18,14.67.4,14.37,3.35,14.32L716.33,204l-1.27,14.86Z" transform="translate(-3.2 88.59)"/></g><g class="cls-1"><path class="cls-5" d="M40.44,225.91l-9.72-3.19H25.3l-5.55-3.45,5.8-4.79.38-4.84-.83-4.81L26.32,200l-1.45-4.76-1.74-4.69,2.09-5-.66-4.76-4.45-4.3,2-5,1.2-5,1.37-5-2.89-4.33L22,152.3l1.71-5.13-4.17-3.91,1.81-5.17,2-5.25-3.32-4,5.33-4.79,5.42-1.17,7.59-3.76-1.64,5.44-1.24,5.28v5l6.46,3.59-2.11,5.48-3.65,5.72-.17,5,1.1,4.8.18,5-.64,5.08L40.51,174l.71,5-2.44,5.27-4.05,5.32,6.62,4.55-6.54,5.37L37,204.4l-.47,5,1,5,.73,5Z" transform="translate(-3.2 88.59)"/><path class="cls-5" d="M63.35,220.8l5.33-5.61.74-5.27-6.22-6,9.22,6.46,9.31,3.6,10.13,1.54,9.26,1.74,7.7-1.58,6.92-3,7.72-2,3.93-5.16-2-6.21,2.61-5.14.67-4.81-.57-5-8.7-5.09L115,176.45l-4-3.55-8.2.62-5-3.58-5.38-3.83-8.19-.26-1.44-6.74-4.91-2.6-5.91-1.94-1.39-4.68-.62-5.26-.51-5.24-6-3.7,3.38-5.22,5.64-4.66,4.29-5.89,4.75-6,6.54-5.13,7.59-3.89,7.31-6.45,8.67-3.5,7.24.14,6.57,2.16,8.51-6.32L136,96l2.08,4.69-.46,6,1.06,5.41-5.77-2.24-8.2,1.78-6.9-1.75L110,112.5l-10.33.91-8.15,6.64L85.75,127l-5.82,4.43L85.56,135l-3.45,9.19,9.15,2.64,2.84,3.43,2.68,4.36,8-.76,6,2.16,5.7,3.9,8.19.72,2.38,6.92,10.27-.62,1.95,6.55,6,4.17,1,7.37-.17,7.19-4.9,5.73.29,5.6,2.63,7L134.39,214l-5.4,4.47-6.52,3.08-6.86,2.76-8.36,1-8.48,2.33-7.55-.76-9.91.68-8-4.76Z" transform="translate(-3.2 88.59)"/><path class="cls-5" d="M161.68,221.8l5.33-7,.73-6.58-6.21-7.51,9.22,8.14,9.3,4.5,10.14,1.93,9.26,2.15,7.69-1.94,6.93-3.62,7.71-2.44,3.93-6.27-2-7.58,2.61-6.24.67-5.85-.57-6.12-8.7-6.36-4.44-3.58-4-4.44-8.2.57-5-4.54-5.37-4.87-8.19-.57-1.45-8.41-4.9-3.4-5.92-2.65-1.38-5.89-.62-6.61-.51-6.57-6.06-4.94,3.39-6.36,5.64-5.5L175,96.1,179.73,89l6.54-6,7.59-4.34,7.3-7.48,8.68-3.75,7.24.62,6.56,3,8.51-7.19,2.2,6.23,2.08,5.8L236,83.18,237,89.79l-5.77-3-8.2,1.75L216.15,86l-7.85,2.79L198,89.38l-8.15,7.74-5.75,8.28-5.82,5.19,5.63,4.69-3.46,11.24,9.16,3.66,2.84,4.36,2.68,5.47,8-.65,6,2.84,5.71,4.94,8.18,1.12,2.39,8.5,10.27-.52,2,8,6,5.16,1,8.94-.17,8.69-4.9,6.89.29,6.78,2.63,8.51-9.76,4.15-5.4,5.42-6.52,3.77-6.86,3.39-8.36,1.24-8.48,2.91-7.55-.9-9.92.91-8-5.89Z" transform="translate(-3.2 88.59)"/><path class="cls-5" d="M366.87,150.06l-5.54,9.56-1.23,9,5.48,9.82-7.11,7.94-2.34,8.38-1.91,8.5-4.52,6.67-3.23,7.65-4.33,7.2L335,226.6,328.6,230l-6.44,6.62-7.58-2.16-7.5-2.11-7-3.37-8-.17-6.5-4.94-4.27-7.3-7.87-4.4-1.83-8.69-.56-8.6-4.91-7.17,5.12-9.41-1-7.95-2.79-7.87,1.64-8.26,1.24-8.25V137.8l-6.45-7.17,2.11-8.37,3.65-8.7.16-8.14-1.09-7.9-.19-8.06.65-8.24-3.92-7.16-.71-7.89,2.58-9.11L275,59.24l9.7-9-5.61,12.11,2.17,7.61-.46,8.28,1,8,.73,8,3,7.62L283,110.48l1.42,8L281,127.15l2.1,7.88.47,8.14-4.1,8.65,6.23,7.57-5.27,9,5.2,7.42-.52,8.52-.92,9.43,7,5.42,4.67,6.25,5.3,6.43,7.94-.68,7.11,6.79,6.5-9.09,7.29.89,3.93-7.4,5.21-5,3.89-7.11,6.58-7.18v-9.43l-4.51-9.11,6.61-9.23.16-9.29.29-9.32-.86-9.17.23-9.31-2.68-8.84L349,100l-3.08-8.66,3.5-9.91.83-9.42,0-9.27-.09-9.24L347.28,45l1-9.95,7.95-3.71,9.45-3-3.33,12.52.39,9,3.35,8.37-2.91,9.82-1.28,9.4-.76,9.28,4.47,8.33,1.49,8.93-6.47,10.17,4,8.56.4,9.12-.54,9.06Z" transform="translate(-3.2 88.59)"/><path class="cls-5" d="M467.11,236.32l-9.86-6.58-7.63-1.17-7.63,9-7.63-8.31-7.63-.65-7.63,1-7.63-1.79-7.64,1.83-7.64,2.19,2.1-10-.66-10L393.18,202l2-10,1.19-10,1.37-10-2.89-9.76.15-10,1.71-10.12-4.17-9.48,1.82-10.16,2-10.23L393,102.84l6.24-11-.47-9.92-2.62-9.48,1.64-10.32,1.24-10.28v-10l-6.46-8.36,2.53-11.95,8.35,2,7.31-1.72,7.3-3.45,7.31-2.2,7.31-1.06L440,7.65l7.31-3,7.32,1.48L459.29,9,465,16.16l-5.69,10.2-4.58,2.49-7.23,1.09-7.23,3.17-7.22,2.75-7.23,5.89-7.24-1.85-6,2.6-2.83,9.14,2.1,9.68.47,10.07-4.1,10.92,6.23,9L409,102.42l3.84,7.48,6.3.89,7.8,3.66,7.81-6.46,7.8-.95,7.8,1.51,9-4.76L454.63,118l6.11,14.7-10.35-1.62-7.8,5-7.8-1-7.8-.3-7.81-5.4L410,133.08l4.68,12-6.4,11.26L408.16,167l-.29,10.66.86,10.6-.23,10.66,2.73,10.81,7.78.2,7.64-4.33,7.65,4.78,7.64,1.1h7.64l7.65-.17,8.66-3.66-.52,13.43Z" transform="translate(-3.2 88.59)"/><path class="cls-5" d="M639.18-46.45l-6.76,16.69-2.88,13,4,15L625.82,9.54l-2.55,12.87-1.38,13.2-3.35,12.47-.8,13.31-.51,13.41-4.18,12-1.55,12.9L613.57,114l-4.13,11.76-3.32,12-3.5,11.86.59,13.64-2.33,12.28-3.82,11.5,1.81,14.19L595,212.58l-4.06,11.16-.26,16.56-10.13-9.74L573.63,232l-3.62-8.3-.56-12.57-1-12.36L566.37,187l-8.32-8.37L557.94,166l1.36-13.43-2-11.58-3.18-10.82L551.83,119l-1.52-11.68-5.9-8.94L541.6,87.6,541.8,75l1.74-13.6-8.48-6.83,4.14-15.16L535,29.94l-1.69-11.16-3.1-10.12L527.35-1.58l-4.41-13.09,10.67-.41,9.46-4.31-.4,14.87,4.13,9.81,2.57,11-1.84,14.06,8.1,7.39-3.17,15,6.44,8.75.26,12.78L558,87.93l5.83,9.44,2,11.85.33,12.85L571,132.34l-2.86,14.71,8.89,8.29L576.28,169l4.94,10.67.36,12.49.2,11.84,2.33,1.93-.18-12.74-3.24-13.87,8.29-9.66,2.31-12.42,2.43-12.43,1.33-13,2.37-12.58L597,105.58l2.29-12.7L598.49,79,604,67.34,607,54.67l2.19-13,2.07-13.08-.64-13.93,3-12.9,1.09-13.5,1.1-13.53,5.61-10.84,7.43-2.21Z" transform="translate(-3.2 88.59)"/><path class="cls-5" d="M672.79,241.57l-9.72-8.44-5.42.2-5.55-9.64,5.8-13.54.38-13.59L657.45,183l1.22-13.64-1.45-13.51-1.75-13.44,2.1-13.75-.66-13.51-4.45-13.05,2-13.78,1.19-13.72,1.38-13.77-2.9-13.08.16-13.56L656,20.31,651.86,7.64l1.82-13.93,2-14L652.32-33l5.33-11,5.42-.67,7.59-6.82L669-37.31l-1.24,14V-9.55l6.46,12.33L672.12,17l-3.65,14.46-.17,13.76,1.1,13.56.18,13.72-.65,13.83,3.93,13.28.71,13.73-2.44,14-4,14.08,6.62,13.3-6.54,14.12,2.17,13.65-.47,13.76,1,13.74.73,13.78Z" transform="translate(-3.2 88.59)"/><path class="cls-5" d="M722,242.79l-9.72-8.85-5.42.22L701.36,224l5.8-14.22.38-14.27-.84-14.25L707.93,167l-1.45-14.18-1.75-14.13,2.1-14.42-.66-14.2-4.46-13.73,2-14.47L705,67.45,706.32,53l-2.89-13.75L703.58,25l1.71-14.56L701.12-2.93l1.82-14.61,1.95-14.68-3.31-13.41,5.32-11.48,5.42-.63,7.59-7.05-1.64,14.87L717-35.2v14.4l6.45,13L721.37,7.13l-3.65,15.15-.16,14.44L718.66,51l.18,14.4-.65,14.52,3.92,14,.71,14.41-2.44,14.69-4,14.77,6.63,14-6.55,14.81,2.17,14.32-.46,14.45,1,14.42.73,14.47Z" transform="translate(-3.2 88.59)"/></g><g class="cls-1"><path class="cls-6" d="M37.43,223.81l-9.66-.73-9.58.31-.81-6-.62-4.71,1.18-4.74-.28-4.72.32-4.74,4.93-5.06-2.43-4.6.78-4.85-.79-4.68-.22-4.74-2.43-4.43,1.09-4.9,3.2-5.26-1.18-4.58-1.49-4.49,1.25-5,2-5.21-.93-4.59-3.09-4,1.64-5.18,1.2-4.24,6.25-1.27L37,116.48l-3.44,7-1.14,5.23,1,4.69,3.21,4.23.65,4.86,1.53,4.7-.23,5.06-.93,5.17-2.75,5.41L33.47,168l4.78,4.36L36,177.57l2.12,4.78-4.32,5.36L32,192.77l.59,4.9,4.4,4.75,1,5-1.87,5-2.42,5.11Z" transform="translate(-3.2 88.59)"/><path class="cls-6" d="M60.49,218.65l1.65-5.55L60.55,208l.24-5.89,11.75,2.52,8,3.69,9.25,1.65,8.34.84,7.85,3.35,6.89-3.52,6.92-2.87,3.6-5,2-5.37L123.64,192l.6-4.53,1.2-5.47-7.59-6.19-5.6-1.76L108,170.87l-4.9-3.8-6.51-1.54-8.08-.16-5.33-3.63L79,158.08l-4.56-3L67,154l.77-5.85-.7-5.17-1.56-5-2.82-4.11.65-4.91,1-5.24,4.93-6.68,6.93-6,8.49-4,7.93-3.49,7.15-7.06,8.78-1.21L116,91.64l6.73,2.27,6.26,1,4.89-1,4.33,4.22,1,5.65-1.93,6.61-6.54-3.65-9,3.21-6.53-4L107,107l-9.11,8.25-11.13,1.85-7.35,7.73-1.37,5-1.8,4.85,3.44,7.57,7.08,4.25,2.92,3.61,5.1,1.37,8.33-1.27,4.93,3.53,6.08,3.36,5.67,3.84,7.61,1.17,5.15,4.13,2.86,5.56,7.07,3.49.55,7.46-1.3,7.17,2.94,5.94-7.29,5L135.79,206l-1.91,7L127,217l-7.22,2.55-7.2,2.12-7.49,6.28-9.29-1.44-7.3-3.38-8.94-1.53-9-1.37Z" transform="translate(-3.2 88.59)"/><path class="cls-6" d="M158.82,219.11l1.64-7-1.58-6.45.24-7.4,11.75,3.26,8,4.64,9.24,2.1,8.35,1.07,7.84,4.14,6.89-4.31,6.92-3.47,3.61-6,2-6.54-1.8-6.62.6-5.52,1.19-6.64-7.58-7.7-5.6-2.28-4.27-4-4.9-4.79-6.51-2.08-8.08-.43-5.33-4.66-4.19-4.69-4.56-3.86-7.41-1.68.76-7.29-.7-6.5-1.55-6.3L161,112.8l.66-6.12,1-6.51,4.93-8,6.93-7.1L183,80.56,191,76.75l7.14-8.24,8.78-.92,7.39-4L221,66.83l6.26,1.53,4.89-.9,4.32,5.37,1,6.9-1.93,7.93-6.54-4.77-9,3.44-6.52-5.28-8.21.85-9.11,9.63-11.13,1.65-7.36,9.17-1.36,6.1-1.8,6L178,124l7.08,5.58,2.92,4.58,5.1,1.9,8.33-1.27,4.93,4.51,6.08,4.31,5.67,4.87,7.6,1.64,5.16,5.14,2.86,6.83,7.06,4.37.55,9-1.3,8.66,2.95,7.22-7.3,6-1.61,6.24-1.91,8.53-6.86,4.8-7.22,3.11-7.2,2.62-7.49,7.72-9.29-1.71-7.3-4.15-8.95-1.87-9-1.68Z" transform="translate(-3.2 88.59)"/><path class="cls-6" d="M363.83,146.58,362,156l1.07,9.34-1,9.39-.86,9.49L358,193,355.3,202,351.19,210l-8.37,3L339,220.79l-6.6,3.3-6.49,3.58-7.07,1.65-7.23,3.17-7.69-2-6.71-5.4L290,223.29l-7.15-3.17-4.56-6.86-2.54-7.83-4-6.64-5.31-6.54-.06-8.46.69-8.37-.45-8-4.45-7.68,4.1-8.47,1.15-8.21-1-7.94-3.21-7.58-.65-7.91L261,111.85l.22-8,.94-8.2L264.93,87l1.42-8.38-4.77-6.89,2.28-8.61-1.3-9.79,9.49,1.25,5.29-.57-.42,5.58,4.39,7,1,7.93-1.88,8.6L278,91.79,282.67,99l-5.38,9.17-.74,8.23,6.47,7.12-5.8,9-.38,8.17.83,8L276.45,157l1.67,8.22,2.47,7.93-.65,8.76,3,7.8,7.29,4.63,3,7.35,5.47,5.61,6.87,4.1,7.72-2.65,6.94-.65,7.29-.76,3.36-8.68,5.58-4.69,5-6.69-1-9.33,7.46-7.73.25-9.22-2.4-8.87,1.64-9.38,1.24-9.37v-9.24l-6.45-8.25,2.11-9.5,3.65-9.82.16-9.26-1.09-9-.18-9.18.64-9.36-3.92-8.25-.71-9,2.58-10.29,7.92,2.7L363,25l-5.6,13.4,2.17,8.53-.46,9.2,1,8.87.73,9,3,8.53-2.59,9.62,1.42,8.88-3.33,9.66,2.1,8.8.47,9.06-4,10.39Z" transform="translate(-3.2 88.59)"/><path class="cls-6" d="M464.1,231.84l-9.8-1.25-7.63,2.12-7.62-.2-7.63.72-7.64-1.8-7.63.23-7.63-.59-7.64-6.72-7.43,3.25.88-9.65-.79-9.92-.23-9.92-2.43-9.83,1.09-9.95,3.2-10.12L394,158.36l-1.49-9.79,1.25-10.06,2-10.17-.92-9.84-3.1-9.48,1.65-10.17,1.75-10.24.12-10L391,69.57l4.11-10.8,1.14-10.23-1-9.71L392,29.71l-.11-11.64,8.67-5.22,7.31-1.76,7.31-.78L422.48,12l7.31,0,7.3-8.68,7.31,1.18,7.32-5,6.11,3.73-2.11,11.06L457,23.38l-5.16,6.21-7.22,3.22-7.23-.9-7.23-1.63-7.23,8.17-7.23-5.61-9.47,2.64,5.6,11.68L406,58.57l-.38,10.16.84,9.91L405.23,89l1.45,9.84,1.75,9.83,7.8,1.71,7.8-2,7.8-7.34,7.8,1.68,7.81.53,6.64.27,2.46,10-.46,13.13-8.64-.92-7.8,6.8-7.8-1.67L424,129l-7.81,5.43-10-6-.43,13.57,2.62,10.37-1.64,10.77-1.24,10.69v10.6L412,194.79l-2.52,9.37,6.59,4.25,7.64.14,7.64-1.61,7.64-.36,7.65.82,7.64-5.72,9.8.15-1.68,14.91Z" transform="translate(-3.2 88.59)"/><path class="cls-6" d="M636.17-50.79l-3.25,17.51-.66,13.61L630.05-6.54,628.47,6.73l-3.32,12.66-1.91,13-2.49,12.8L613.86,56.4,614,70l-2.94,12.42-1.42,12.93-2,12.68.14,13.51-3.22,12.05-5.24,11.08-1.06,12.85-.75,13-3.38,11.68-4.1,11.24-1.3,12.55.78,13.6-3.7,11.09-8.29-3.08-7.22.3-5.44-8,1.8-13.68-1-12.27-3.12-11.14-5.22-10-2.75-11.17L551,151l-1.92-11.49-1.24-11.84.49-12.83-.77-12.07-6.72-8.38.06-12.47-4.17-9.76,2-13.69-.49-12.08-2.71-10.55-6.34-8L526,17.81l-.34-12,.19-12.38-5.95-12,10.72,3.87,6.68-1.53,7.12,4.3L541,3.27l1.74,11.48,2.92,10.74.93,12.13,3.5,10.48,3.79,10.39.1,12.82,2.74,11.18,6.39,9,.15,12.92,1,12.46.79,12.58,4.89,10.32,2,12,.47,12.91,6.12,10-.12,12.64-.88,12.33-2.53-1.37,7.23-9.66,1.3-11.64-.36-13.5,3.73-11.76,3.34-12,2.16-12.57-4-15,4.18-11.87,5.65-11.46,2.32-12.75,1.09-13.21,2-13,2.78-12.77L604.67,23l1.48-13.23,4.49-12.46,6-12.18-4.2-14.87,7.11-8.2,6.28-4.37Z" transform="translate(-3.2 88.59)"/><path class="cls-6" d="M669.78,235.94l-9.66-1.72-9.58,1.21-.81-17.1-.63-13.46,1.19-13.49L650,177.91l.32-13.49,4.93-13.81-2.44-13.35.79-13.6-.79-13.44-.22-13.49-2.44-13.18,1.1-13.65,3.2-14-1.18-13.33-1.49-13.24L653,15.55l2-14-.93-13.34L651-24.53l1.64-13.93,1.19-11.43,6.26-.5,9.19-9.13-3.44,17.59-1.14,14,1,13.44,3.21,13,.65,13.6,1.53,13.45-.23,13.81L670,53.26l-2.75,14.17-1.42,13.91,4.78,13.11-2.29,14L670.43,122,666.1,136.1l-1.71,13.82.59,13.65,4.4,13.51,1,13.73-1.87,13.79-2.42,14.09Z" transform="translate(-3.2 88.59)"/><path class="cls-6" d="M719,236.88l-9.66-1.79-9.58,1.27-.81-18-.63-14.15,1.19-14.17-.28-14.15.32-14.17,4.92-14.5-2.43-14,.79-14.28-.79-14.12-.23-14.17L699.42,76.8l1.09-14.33,3.2-14.69-1.17-14-1.49-13.92L702.3,5.4l2-14.65-.92-14-3.1-13.45,1.65-14.62,1.19-12,6.26-.44,9.18-9.46-3.43,18.42L714-40.16,715-26l3.21,13.67.65,14.29,1.53,14.13-.22,14.49-.94,14.61L716.5,60l-1.42,14.59,4.77,13.79-2.28,14.7,2.11,14.21-4.32,14.79-1.72,14.5.6,14.33,4.39,14.19,1,14.41L717.79,204l-2.42,14.79Z" transform="translate(-3.2 88.59)"/></g><g class="cls-1"><path class="cls-7" d="M34.83,219.16l-7.06,1.41-8.33-.67-1.64-5.12,4.41-4.71-5.51-4.49,3.56-4.78L23,196l-3.85-4.41L19,187l-.91-4.54-1.2-4.49,6-5.38-.19-4.67-4.29-4,.38-4.69-.61-4.53-.69-4.49,4.66-5.59-.34-4.61-2.18-4.16-1.45-4.28,2.63-5.33-.51-4.42,7.43.08,8.27-5-2.62,6,1.78,4.38,1.88,4.41-1.68,5.26-.62,5,.75,4.7,2,4.49-5.23,5.77.91,4.68L35,166.11,34.6,171,33.81,176l.9,4.75,3.38,4.55-2.83,5.11,2.58,4.7-6,5.17,6.07,4.61-5.58,5,.08,4.75Z" transform="translate(-3.2 88.59)"/><path class="cls-7" d="M64.13,215.17l-2.45-4.92.63-5.06-1.13-5.65,8.52,5.75,11.3-.81,8.3,4.38,8.87,2.69,7.27-3.53,6.9-1.68,5.36-3.61,2.57-4.29,7.8-3.66.5-5.94-4.78-4-1.3-4-6.5-5.65-4.89-2.09-2.32-5.55-6.17-2L95.47,165l-7.21-1.24-4.79-4.22-5.62-2.13-2.36-4.81-7.35-.75-.28-5.17-3.58-4.14-2.43-4.93,2.06-4.92L65.74,128l1.56-4.75,2.83-6.68,9.43-4,5.93-5.26,6.68-5.35,8.17-3.37,8.23-2.16,7.15-2.54,7.63-4.26,6.56,1.8,9-.57-6,7.79,6.07,4.21-5.36,6.07-2.35-4.36-9.53,4.39-7-.9L107,110.82,97.76,114l-7.53,5-6.36,5.64L82,132.24,83.34,139l1.54,7.73,6,.47,4.18,2.3,6.38,1.37,6.15,1.75,8,.51,6,3.57,3.72,5.4,5.9,3,5.42,3.54,2.14,5.7.12,6.58,1.51,6.16,2.74,5.64-2.8,5.53-3.81,4.76-4.17,5.67-2.85,7.45-9.17.73-7.67,1.29-8.17,2-8.6,2.82L88,222.86l-9.78-.34-9.28-2.42Z" transform="translate(-3.2 88.59)"/><path class="cls-7" d="M162.46,214.74,160,208.56l.63-6.35-1.14-7.1L168,202.4l11.3-.93,8.3,5.47,8.87,3.37,7.26-4.32,6.9-2,5.37-4.4,2.56-5.22L226.4,190l.5-7.22-4.78-5-1.3-5-6.5-7-4.89-2.67-2.32-6.87-6.17-2.61-7.14-.85-7.22-1.75-4.78-5.39-5.62-2.84-2.36-6.08-7.36-1.24-.27-6.48-3.59-5.36-2.42-6.3,2-6.06,1.84-5.8,1.56-5.86,2.82-8.18,9.44-4.37,5.93-6.16,6.68-6.18,8.17-3.63L206.89,69l7.16-2.66,7.62-4.73,6.56,2.59,9-.16-5.95,9.12,6.06,5.43L232,85.69l-2.35-5.42-9.54,4.84-7-1.48-7.71,3L196.09,90l-7.53,5.71-6.37,6.64-1.88,9.41,1.35,8.42,1.54,9.67,6,.82,4.18,3,6.38,1.91,6.15,2.37,8,.89,6,4.56,3.72,6.69,5.9,3.75,5.41,4.43,2.14,7,.12,8,1.52,7.5,2.74,6.87-2.8,6.67L234.78,200l-4.18,6.87-2.84,9-9.17.88-7.67,1.58-8.17,2.53-8.6,3.49-7.84-.08-9.77-.39-9.28-3Z" transform="translate(-3.2 88.59)"/><path class="cls-7" d="M360.13,143.32,362.4,153l-1.24,9.91.15,10.08-6.06,8.58,2.6,11.45-6.78,7.1-6.6,5.61-3,9.79-6.75,5.13-7.22,4.3-7.77,3.1-8.12-6.68-7.13-.3-8.06,3.17-7.1-3.5-7-4-6.25-5.38-.67-9.72L272,194.9l-4.46-6.64-3.12-7.47,1.51-8.56-1-7.91,3-8.38-4.42-7.39,2.91-8.23-1.78-7.63-1.88-7.57,1.68-8.12.62-8-.75-7.72-2-7.43,5.24-9-.92-7.69-1.79-7.44.42-8,.31-6.75,6.52-2.3,9.54-5.49-2,11.32,2.58,8-6,10.08,6.07,7.23-5.57,9.81.07,8.57,5.92,7.54-1.7,8.94,1.58,8.42,0,8.67.63,8.6-1.18,8.81.49,8,.4,8-3.4,9.38,4.7,6.88,2.88,7.67,5.61,5.51,6.35,4.11,7.46-.44,6.89,1.82,7.41,2.89,6.72-4.06,5.19-6.19,5.63-5.55,5.27-7,1.47-9.07-1.66-9.21,2.34-8.61,2-9,.11-9-4.28-8.47,4.11-9.54L348.7,112l-1-8.85-3.21-8.43-.64-8.84-1.53-8.64.22-9,.94-9.16,2.74-9.65,1.42-9.38-3.89-10.5,9.59-.85,9.52-4.31-3.54,13-1.71,10.06.59,9.47,4.4,8.64,1,9.46-1.87,10-2.44,10.1,4.64,8.87-5.39,10.51-.73,9.72,6.46,9Z" transform="translate(-3.2 88.59)"/><path class="cls-7" d="M461.37,221.91,454.3,225l-7.63-1-7.62,1.78-7.63-6.24-7.64,7.57-7.63-5-7.63-3.72-7.64,5.13-8.45-.34-1.27-10.81L390,202.83,396,193l-.2-9.73-4.29-9.47.38-9.71-.61-9.62-.69-9.61,4.67-10.2-.35-9.68-2.18-9.42-1.44-9.47L393.91,96l-.43-9.63L396.7,76l-4.42-8.82,2.91-10.34-1.78-9.3-1.88-9.24,1.68-10.13.45-9.29,6.89-2.67,7.31-4.76,7.31,5.07,7.31-3.23,7.31-4.48,7.3-1.43,7.31-.9,7.32-3.28L461.07-3l-2.14,15,2,13.67-9.08-5.19-7.22,10.42-7.23-6.07-7.23,1.93-7.23,10-7.23-.56-5.23,2.28.78,7,.63,9.78-1.18,10.18.27,9.86-.31,10L405.7,96l2.53,9.77,8,0,7.8-2.26,7.8-1.49,7.8-4.61,7.81.33,6.41,2.75.64,9.63,1.29,12.22-8.34-.44-7.8-1.86-7.8,2.27-7.8,5.25-7.81-1.31-9.13-.51L406.42,138l4.27,10-4.1,10.76-1.15,10.45,1,10.31,3.21,10.26.09,8.62,6.29-3,7.64.09,7.64,1.08,7.64,3.65,7.65,1.85,7.64-7,8.09,3.36L464.65,211Z" transform="translate(-3.2 88.59)"/><path class="cls-7" d="M633.33-47.14l0,12.36L630.57-22l-.92,13.22-6.4,11.45,3.08,14.44-5.58,11.53L616,40.27l1.49,13.86-2.06,12.56L614.1,79.47l-1,12.87-8,10-2,12.32,1.91,14-2.54,12L600.89,153l-1.52,12.38-6.64,9.87-1.85,12.06-.1,12.92-.8,12.55-4.43,9.87-8,.49-6.44-4.4-5-6.32.66-12.9L563,189,559,178.61l-.53-12.17L557,154.87l-2.85-10.78-4.07-10L552.9,120l-3-10.52L546,99.59l-1.73-11.18-1.39-11.35-3-10.26-5.36-8.59.56-12.5-4.6-8.94,3.62-14.62-7.94-6.4L529.4,1.42,527.19-9,520-19.71l10.64-1.85,10-4.54L543.9-13,546.62-2.5l1,11.84L550,20.22l1.81,11.34-2.62,14.35,4.45,9.65L555,67.31l2.87,10.83,2.33,11.24,4.44,10,1.06,12.15-1,13.37,3.24,10.93,3.54,10.85.92,12.4.18,12.81L575,182.3l4,10.17-.95.73L581,182.07l1.88-11.26-1.94-13.92L587,146.43l3.25-11.79,1.16-12.71-.92-13.55,1.54-12.61.68-13,2.37-12.39,3-12.22,4.78-11.73,3.51-12.25L604,20.08,608.36,8l.13-13.4,6.3-11.77,3.79-12.57.53-10.39,6.68-8.65Z" transform="translate(-3.2 88.59)"/><path class="cls-7" d="M667.18,223.17l-7.06,4-8.33-1.76-1.64-14.56,4.41-13.26-5.51-13.05,3.56-13.32,2.72-13.37-3.85-13-.13-13.18-.91-13.11-1.2-13,6-13.93-.19-13.22L650.8,65.85l.38-13.24-.61-13.08-.7-13,4.67-14.15L654.2-.83,652-13.54l-1.45-12.85,2.63-13.89-.51-12.79,7.43,3.91L668.39-59,665.77-43.6l1.78,12.93,1.88,13L667.75-3.9l-.62,13.54.74,13.26,2,13-5.23,14.33.91,13.23,1.79,13.13L667,90.1l-.79,13.49.9,13.3L670.44,130l-2.83,13.66,2.58,13.26-6,13.73,6.07,13.16-5.58,13.57.08,13.18Z" transform="translate(-3.2 88.59)"/><path class="cls-7" d="M716.44,223.48l-7.06,4.24L701,225.88l-1.64-15.31,4.41-13.92-5.5-13.72,3.56-14,2.72-14-3.85-13.63-.13-13.84-.91-13.77L698.49,100l6-14.6-.2-13.89-4.29-13.25.38-13.91-.61-13.74-.69-13.72L703.8,2l-.35-13.83-2.18-13.38-1.45-13.51,2.63-14.56L702-66.69l7.43,4.21,8.26-10.2L715-56.57,716.8-43l1.88,13.63L717-14.87,716.38-.66l.75,13.92,2,13.72-5.24,15,.92,13.9,1.79,13.79-.42,14.13L715.42,98l.89,14,3.38,13.78L716.86,140,719.44,154l-6,14.39,6.07,13.83-5.57,14.23.07,13.85Z" transform="translate(-3.2 88.59)"/></g><text class="cls-8" transform="translate(238.59 380.14)">N<tspan class="cls-9" x="24.3" y="0">ov</tspan><tspan x="60.09" y="0">ember </tspan><tspan class="cls-10" x="170.46" y="0">2</tspan><tspan class="cls-11" x="187.83" y="0">0</tspan><tspan class="cls-12" x="207.87" y="0">2</tspan><tspan x="225.24" y="0">0</tspan></text></svg>