<?xml version="1.0" encoding="utf-8"?>
<!-- Generator: Adobe Illustrator 23.0.1, SVG Export Plug-In . SVG Version: 6.00 Build 0)  -->
<svg version="1.1" id="Layer_1" xmlns="http://www.w3.org/2000/svg" xmlns:xlink="http://www.w3.org/1999/xlink" x="0px" y="0px"
	 viewBox="0 0 720.5 344.3" style="enable-background:new 0 0 720.5 344.3;" xml:space="preserve">
<style type="text/css">
	.st0{enable-background:new    ;}
	.st1{fill:none;stroke:#231F20;stroke-width:3;stroke-miterlimit:10;}
	.st2{fill:none;stroke:#ED1C24;stroke-width:13;}
	.st3{fill:#006838;}
	.st4{fill:none;stroke:#E41E26;stroke-width:10;}
	.st5{fill:none;stroke:#231F20;stroke-width:10;}
	.st6{fill:none;stroke:#F7941D;stroke-width:3;}
	.st7{fill:none;}
	.st8{fill:#EFE2D6;}
	.st9{font-family:'Montserrat-SemiBold';}
	.st10{font-size:30px;}
</style>
<title>issueViiCover3</title>
<g>
	<g>
		<g>
			<g class="st0">
				<g>
					<path class="st1" d="M36.4,221l-9-4.4l-5.4,0.9l-2.2-5.3l2-7.2l-3.8-7.2l-0.2-7.2l3.2-7.2l-3.7-7.2l-0.2-7.3l5.4-7.3l-2.3-7.3
						l2.4-7.3l-3.3-7.3l-1.4-7.3l2.3-7.2l-3-7.3l2-7.3l-1.9-7.3l3.2-7.3l-3.4-7.3l0.2-7.3l1.2-7.3l0.3-8.5l8.5-0.6l9.3-0.2l-4,9.2
						l2.1,7.2l0.9,7.2L35.1,96l1.5,7.2l0.2,7.2l0.8,7.3l-5.9,7.3l4.4,7.3l-0.9,7.3l2.5,7.3l0,7.3l-2.3,7.2l1.6,7.3l-3.9,7.3L37,183
						l-0.5,7.3l0,7.3l-3.4,7.3l-0.9,7.5L36.4,221z"/>
					<path class="st1" d="M59.4,213.6l5.2-7.5l-0.1-7l-3-7.1l6.5,7.3l10.4,0.8l8.9,2.4l8.1,4.2l6.8-4.2l6.2-1.9l8.9,0.9l2.4-6.9
						l4.5-5.6l-2.7-6.9l-1.9-5.1l0.6-5.7l-8.3-6.2l-3-5.3l-5.8-1.7l-4-6.4l-7.7-0.6l-6.2-4.2l-5.4-5.3l-5.5-4.2l-4.9-5l-4.8-5.1
						l1.7-8.1l-3.9-6.5l-1.5-7.5l1-6.3l-0.3-6.6l2.1-6.2l3.8-7.8l10-1.6l4-8l7.9-2.2l7.5-4.4l8.5-0.7l7,2.6l7.2-0.8l5.9,5.5l9.1,0.7
						l-0.4,7.2l0,6.7l-3.4,6.1l-3.4-6l-7.7-2.4l-8-0.4l-7.7,0.7l-9.1,2.7l-10.3,0.3L79.8,93l-4.3,4.6l3.8,5.9l1.8,9.2l2.3,9.6
						l4.3,3.6l5.9,1.2l4.9,5l5.3,4.5l7.1,3.1l5,6.1l7.1,2.6l5.5,4.9l1.8,7.2l2.9,6l4.5,6.5l1.3,7.8l-3.1,6.3l2.2,7l-2.4,6.4
						l-3.9,7.6l-6.8,5.1l-7.6,2.9l-7.4,2.6l-7.9,4.6l-8.8-0.1l-7.5-0.9l-8.8-2.7l-7.8-4.8L59.4,213.6z"/>
					<path class="st1" d="M154.3,213.6l5.2-7.5l-0.1-7l-3-7.1l6.5,7.3l10.4,0.8l8.9,2.4l8.1,4.2l6.8-4.2l6.2-1.9l8.9,0.9l2.4-6.9
						l4.5-5.6l-2.7-6.9l-1.9-5.1l0.6-5.7l-8.3-6.2l-3-5.3l-5.8-1.7l-4-6.4l-7.7-0.6l-6.2-4.2l-5.4-5.3l-5.5-4.2l-4.9-5l-4.8-5.1
						l1.7-8.1l-3.9-6.5l-1.5-7.5l1-6.3l-0.3-6.6l2.1-6.2l3.8-7.8l10-1.6l4-8l7.9-2.2l7.5-4.4l8.5-0.7l7,2.6l7.2-0.8l5.9,5.5l9.1,0.7
						l-0.4,7.2l0,6.7l-3.4,6.1l-3.4-6l-7.7-2.4l-8-0.4l-7.7,0.7l-9.1,2.7l-10.3,0.3l-4.8,8.8l-4.3,4.6l3.8,5.9l1.8,9.2l2.3,9.6
						l4.3,3.6l5.9,1.2l4.9,5l5.3,4.5l7.1,3.1l5,6.1l7.1,2.6l5.5,4.9l1.8,7.2l2.9,6l4.5,6.5l1.3,7.8l-3.1,6.3l2.2,7l-2.4,6.4
						l-3.9,7.6l-6.8,5.1l-7.6,2.9l-7.4,2.6l-7.9,4.6l-8.8-0.1l-7.5-0.9l-8.8-2.7l-7.8-4.8L154.3,213.6z"/>
					<path class="st1" d="M351.4,157.7l-5.3,6.9l-0.4,6.8l2.1,7.3l-3.3,6.4l1.7,7.8l-2.6,6.8l-6.4,4.5l-1.7,7.9l-5.6,5l-8.8-1.4
						l-5.7,4.4l-7.1-1.1l-6.7,3.7l-7.5,1l-6.8-3.8L279,220l-5.4-5.8l-6.8-3.9l-1.7-8l-6.4-5.2l-2.2-7.3l-0.4-7.6l-1.2-7.3l-0.6-7.4
						l-1.2-7.4l4.9-7.2l-2.2-7.2l-0.9-7.2l0.6-7.2l-1.5-7.2l-0.2-7.2l-0.8-7.2l6-7.2l-4.4-7.2l1-7.2l-2.5-7.2l0-7.2l2.5-7.7l7.8-1.8
						l6.2,3.5l3.5,5.9l-0.5,7.1l0,7.1l-3.5,7.1l-0.9,7.1l0.7,7.1l1.3,7.1l1.2,7.1l1.5,7.1l-4.1,7.1l2.1,7.1l-2.5,7.1l4.3,7.1
						l0.4,7.1l-2.8,7.5l1.5,7.2l4.5,6.1l1.9,7l4,6.3l6.8,3.1l6.5,4.3l7.6-1.8l6.8-1.2l7.6,0.4l6.3-4.1l2.8-7l2.5-6.3l4.7-5.8l-2-7.4
						l0.8-6.8l-0.3-6.9l1.3-7.2l1.7-7.2l0.1-7.2l-2.9-7.2l0.7-7.2l0.3-7.2l1-7.2l2.2-7.2l-1.9-7.2l-0.7-7.2l1.8-7.2l-0.9-7.2l-1.2-8
						l8.1-1.1l6,3.3L350,74l2.1,7l-0.5,7l-4.4,7l1.1,7l2,7l0.8,7l-0.6,7l-4.3,7l0.7,7l1,7l0.7,7L351.4,157.7z"/>
					<path class="st1" d="M448.3,220.9l-9.1-4.3l-7.4,0.1l-7.4,3l-7.4-2l-7.4,3.8l-7.4,0.2l-7.4-3.2l-7.4,3.7l-9.5-0.6l4.5-9.4
						l-2.3-7.2l2.4-7.2l-3.3-7.2l-1.4-7.2l2.3-7.2l-3-7.3l2-7.3l-1.9-7.3l3.2-7.3l-3.4-7.3l0.2-7.3l1.2-7.2l-0.2-7.3l-0.1-7.3
						l-1-7.3l4.8-7.3l-2.1-7.3l-0.9-7.3l0.6-7.3l-0.9-8.6l8.4-0.8l7.1-0.8l7.1,5.9l7.1-4.4l7.1,0.9l7.1-2.5l7.1,0l7.1,2.3l8.8-0.8
						l-3.3,9.6l3.4,9.6l-8.7,0.3l-7,0l-7-3.4l-7-0.9l-7,0.7l-7,1.3l-6.6,1l1.7,6.8l-4,7.2l2.1,7.2l-2.4,7.2l4.2,7.2l0.2,7.2l-3,8.2
						l8.4,0.2l7.5-2.4l7.5,1.6l7.5,1.1l7.5-1.1l5.8,1.3l1.8,6.4l0.4,8.5l-8-2.4l-7.5-0.1l-7.5,2.5L410,151l-7.5-2.6l-6.3,2.7
						l0.4,6.4l0.5,7.6l-1.3,7.6l-1.6,7.6l-0.1,7.6l2.9,7.6l-1,6.7l6.4-0.1l7.4,1l7.4,2.2l7.4-1.9l7.4-0.7l7.4,1.8l7.1-1l1.4,7.7
						L448.3,220.9z"/>
					<path class="st1" d="M614.4,65.6l-6.5,7.6l-2,6.9l0.7,7.8l-4,6.3l1.5,8l-1.9,7l-5.2,6l1.4,8l-1.9,7l-7.3,5.3l0.1,7.6l-4.4,6.2
						l1,7.9l-0.8,7.3l-4.3,6.2l0.7,7.8l-4,6.3l-0.3,7.5l-5.1,6l1.2,7.9l-2.3,6.9l-3.9,7.4l-8.9,0.4l-9.1-0.2l-3.7-7.6l2.6-8.3
						l-4.1-6.3l-3-6.7l-1.5-7.1l-3.5-6.5l-2.3-6.9l-2.8-6.7l3.6-8.6l-6.2-5.7l-1.2-7.2l-4.4-6.2l-2.1-6.9l0.1-7.6l-3.6-6.5l1.7-8
						l-5.8-5.8l-1.6-7.1l-2-6.9l1.2-7.9l-1.2-7.2l-3.1-5l6.8-0.7l8.5-1.1l3.7,7l-1.8,8.2l4.1,6.5l-0.3,7.8l6.1,5.9l2.2,7l-1.3,8
						l2.2,7.1l4.3,6.4l0.5,7.5l1,7.4l3.1,6.8l0,7.7l4.4,6.4l2.6,6.9l-0.5,7.8l2,7.1l3.9,6l1.7,6.6l0.7,0.7L558,194l1.9-6.9l1.6-7.2
						l3.3-6.7l3.6-6.6l2.2-7.1l-0.7-7.9l2.7-6.9l2.4-7l3-6.8l4.2-6.5l0.3-7.6l1.4-7.3l3.8-6.6l1.2-7.3l0.6-7.5l1.3-7.3l5.7-6
						l-0.3-8.4l8.2-2.2L614.4,65.6z"/>
					<path class="st1" d="M646.9,221l-9-4.4l-5.4,0.9l-2.2-5.3l2-7.2l-3.8-7.2l-0.2-7.2l3.2-7.2l-3.7-7.2l-0.2-7.3l5.4-7.3l-2.3-7.3
						l2.4-7.3l-3.3-7.3l-1.4-7.3l2.3-7.2l-3-7.3l2-7.3l-1.9-7.3l3.2-7.3l-3.4-7.3l0.2-7.3l1.2-7.3l0.3-8.5l8.5-0.6l9.3-0.2l-4,9.2
						l2.1,7.2l0.9,7.2l-0.6,7.2l1.5,7.2l0.2,7.2l0.8,7.3l-5.9,7.3l4.4,7.3l-0.9,7.3l2.5,7.3l0,7.3l-2.3,7.2l1.6,7.3l-3.9,7.3
						l3.9,7.3l-0.5,7.3l0,7.3l-3.4,7.3l-0.9,7.5L646.9,221z"/>
					<path class="st1" d="M694.5,221l-9-4.4l-5.4,0.9l-2.2-5.3l2-7.2l-3.8-7.2l-0.2-7.2l3.2-7.2l-3.7-7.2l-0.2-7.3l5.4-7.3l-2.3-7.3
						l2.4-7.3l-3.3-7.3l-1.4-7.3l2.3-7.2l-3-7.3l2-7.3l-1.9-7.3l3.2-7.3l-3.4-7.3l0.2-7.3l1.2-7.3l0.3-8.5l8.5-0.6l9.3-0.2l-4,9.2
						l2.1,7.2l0.9,7.2l-0.6,7.2l1.5,7.2l0.2,7.2l0.8,7.3l-5.9,7.3l4.4,7.3l-0.9,7.3l2.5,7.3l0,7.3l-2.3,7.2l1.6,7.3l-3.9,7.3
						l3.9,7.3l-0.5,7.3l0,7.3l-3.4,7.3l-0.9,7.5L694.5,221z"/>
				</g>
			</g>
			<g class="st0">
				<g>
					<path class="st2" d="M34.5,219.1l-7.1,0.4l-6-1.6l1.1-5.9l-3.2-7.2l-1.1-7.2l2.7-7.2l1-7.2l1.1-7.2l-4.1-7.3l3.9-7.3l-5.3-7.3
						l3-7.3l2.4-7.3l-5-7.3l-0.9-7.2l2-7.3l3.8-7.3l-1.9-7.3l0.5-7.3l0-7.3l-2.9-7.3l-0.1-7.3l2.8-6l6.1,0.2l6.3-0.4l-1.9,6.2
						l4.9,7.2l-2.3,7.2l0.8,7.2l-2.4,7.2l4.3,7.2l-4.4,7.3l-0.2,7.3l-0.8,7.3l0.4,7.3l4.8,7.3l0.3,7.3l-2.3,7.2l1.9,7.3l-3.1,7.3
						l1.1,7.3l2.3,7.3l-4.7,7.3l1.4,7.3l2.9,7.3L34.5,219.1z"/>
					<path class="st2" d="M62.1,213.1l-0.5-6.9l2.2-7l0.4-6l5.1,4.2l9,3.2l8.4,5.3l8.7,2.1l7.6,0.6l6.1-5.9l8.4-0.6l-0.3-8.4
						l4.9-4.7l3.1-6.5l-5.7-5.1l-2.3-4.3l-4.1-9l-2-6.8l-6.1-1.9l-5.5-4.1l-5.8-3.6l-7.8-1.5l-6.1-4.2l-3-6.9l-4.8-4.4l-3.7-5.1
						l-1.3-6.3l-6.7-5.9l1.8-7.8l-0.4-6.3l3.6-5.5L63.4,86l8.1-4.6l5.5-5.3l6.6-3.5l6.7-3.2l6.7-6.7l8.4-1l7,2.5l7.3-1.2l6.2,4.7
						l6.9,2l2.4,6.8l-4.8,6.7l1.5,6.4l-6.8-2l-6.7-2.7l-6.4-6.8l-8-0.4l-9.5,4.3l-9.7,2.3L81.6,94l-1.4,4.6l-3.8,5l5.3,9l4.9,6.7
						l0.3,7.8l5.9,1.3l4.5,5.7l7.6,0.7l7.3,2.9l4.9,6.4l7.7,2.4l3.6,6.9l5.8,4.8l0.3,7.9l5.5,6.7l0.5,8.2l-1.6,6.7l-1,6.7l-2.2,6.5
						l-3.5,7.9l-9.2,2.4l-5.4,6l-7.2,3.7l-8.6,1.1l-8.6,2.1l-7.6-0.4l-9.3-0.9l-6.7-8.6L62.1,213.1z"/>
					<path class="st2" d="M157,213.1l-0.5-6.9l2.2-7l0.4-6l5.1,4.2l9,3.2l8.4,5.3l8.7,2.1l7.6,0.6l6.1-5.9l8.4-0.6l-0.3-8.4l4.9-4.7
						l3.1-6.5l-5.7-5.1l-2.3-4.3l-4.1-9l-2-6.8l-6.1-1.9l-5.5-4.1l-5.8-3.6l-7.8-1.5l-6.1-4.2l-3-6.9l-4.8-4.4l-3.7-5.1l-1.3-6.3
						l-6.7-5.9l1.8-7.8l-0.4-6.3l3.6-5.5l-1.9-7.4l8.1-4.6l5.5-5.3l6.6-3.5l6.7-3.2l6.7-6.7l8.4-1l7,2.5l7.3-1.2l6.2,4.7l6.9,2
						l2.4,6.8l-4.8,6.7l1.5,6.4l-6.8-2l-6.7-2.7l-6.4-6.8l-8-0.4l-9.5,4.3l-9.7,2.3l-3.1,9.6l-1.4,4.6l-3.8,5l5.3,9l4.9,6.7l0.3,7.8
						l5.9,1.3l4.5,5.7l7.6,0.7l7.3,2.9l4.9,6.4l7.7,2.4l3.6,6.9l5.8,4.8l0.3,7.9l5.5,6.7l0.5,8.2l-1.6,6.7l-1,6.7l-2.2,6.5l-3.5,7.9
						l-9.2,2.4l-5.4,6l-7.2,3.7l-8.6,1.1l-8.6,2.1l-7.6-0.4l-9.3-0.9l-6.7-8.6L157,213.1z"/>
					<path class="st2" d="M348.7,157.7l0.4,7l-2.7,6.8l-1.4,6.7l1.8,7.4l-0.9,7.2l-5.2,5.5l-4.3,5.3l-5,4.4l-2.6,7.5l-7.9-0.1
						l-4.9,7.3l-7.6-1.8l-6.9-2.1l-7.5,4.7l-7.7-0.6l-6.4-4.6l-4-7l-6.3-3.4l-3.6-6.1l-3.1-6.4l-5.1-6l-1.7-7.2l2.4-7.7l-0.9-7.1
						l-0.2-7.2l1.5-7.2l-5-7.2l2.3-7.2l-0.8-7.2l2.4-7.2l-4.3-7.2l4.4-7.2l0.2-7.2l0.8-7.2l-0.4-7.2l-4.9-7.2l-0.3-7.2l2.4-7.4
						l7.6-2.1l6.8,2.9l0.9,6.5l2.3,7.1l-4.8,7.1l1.4,7.1l2.9,7.1l0.1,7.1l-5.2,7.1l0.1,7.1l3,7.1l-2,7.1l3.9,7.1l0.2,7.1l-3.3,7.1
						l3.9,7l0.9,6.9l-4.1,8.1l4.5,6.3l1.3,7.7l7.3,3.4l6.4,2.5l5.9,4.4l7.2-2.4l6.8,1.5l5.6-3.8l7.3-1l1.7-7.3l3.1-5.6l3.2-5.9
						l1.1-6.7l0.6-6.8l-0.8-6.8l4.9-7.2l-2.2-7.2l-0.9-7.2l0.6-7.2l-1.5-7.2l-0.2-7.2l-0.8-7.2l6-7.2l-4.4-7.2l1-7.2l-2.5-7.2l0-7.2
						l2.5-7.7l7.8-1.8l6.2,3.5l3.5,5.8l-0.5,7l0,7l-3.5,7l-0.9,7l0.7,7l1.3,7l1.2,7l1.5,7l-4.1,7l2.1,7l-2.5,6.9L348.7,157.7z"/>
					<path class="st2" d="M446.3,219.1l-7.1,0.4l-7.4-2.1l-7.4-0.6l-7.4,3.2l-7.4,1.1l-7.4-2.7l-7.4-1l-7.4-1.1l-8.1,3.8l3.5-8
						l-5.3-7.2l3-7.2l2.4-7.2l-5-7.2l-0.9-7.2l2-7.3l3.8-7.3l-1.9-7.3l0.5-7.3l0-7.3l-2.9-7.3l-0.1-7.2l3.4-7.3l-0.4-7.3l0-7.3
						l1.5-7.3l-4.9-7.3l2.3-7.3l-0.8-7.3l1.8-6l5.7-3.7l7.1,4.4l7.1,0.2l7.1,0.8l7.1-0.4l7.1-4.8l7.1-0.3l7.1,2.3l8.8-1.1l-2.5,9.6
						l1.1,8.3l-7.3,2.4l-7-4.7l-7,1.4l-7,2.9l-7,0.1l-7-5.1l-8.9,0.9l2.2,9.1l-2,7.2l3.8,7.2l0.2,7.2l-3.2,7.2l3.7,7.2l-0.7,5.1
						l5.4,4.6l7.5-2.3l7.5,2.4l7.5-3.3l7.5-1.4l7.4,2.3l2.9,7.9l-2.2,8.6l-8.1,2.2l-7.5-3.2l-7.5,3.4l-7.5-0.2l-7.5-1.2l-6.3-0.3
						l0.6,6.4l1,7.6l-4.8,7.6l2.1,7.6l0.9,7.6l-0.6,7.6l0.9,6.3l6-0.8l7.4-0.8l7.4,5.9l7.4-4.4l7.4,0.9l7.4-2.5l9.5,0.9l-1.5,10.1
						L446.3,219.1z"/>
					<path class="st2" d="M612.4,67.2l-1.7,6.8l-4.2,6.3l-2.6,6.8l0.9,7.8l-1,7.2l-4.6,6.1l-3.1,6.6l-3.1,6.6l1.8,8.1l-5.8,5.8
						l3,8.5l-5,6l-4.4,6.2l2.7,8.4l-1.3,7.2l-4,6.3l-5.7,5.8l-0.3,7.5l-2.6,6.8l-2.1,6.9l0.6,7.8l-2.6,7.8l-8.9-3.1l-7.3,0.6
						l-1.5-6.1l-0.6-7.3l-6.8-5.5l0.1-7.6l-2.8-6.7l0.2-7.6l-6.1-5.7l2.1-8.2l-1.8-7l-1.3-7.1l-2.4-6.8l-6.7-5.5l-2.4-6.8l0.1-7.6
						l-3.9-6.4l0.9-7.8l-3.2-6.6l-4.2-6.3l2.4-8.3l-3.4-6.5l-4.8-6.1l-1.7-9.1l9.9,4.3l6.6-0.6l3.8,4.8l0.2,7.6l5.7,6.1l2.2,7l-1,8
						l5.5,6.1l2.3,7l-3.2,8.6l4.2,6.5l-0.2,7.8l5.2,6.2l3.4,6.7l-0.2,7.7l4.9,6.3l0.1,7.7l3.9,6.6l-1,8l4.9,6l0.8,6.6l-3.8,0.3
						l0.9-6.9l1.7-6.9l1.1-7.4l6.7-5.7l0-7.7l1.2-7.4l2.6-6.9l0.7-7.5l1.9-7.2l1.3-7.3l7.8-5.4l-2.1-8.3l3-6.8l-0.3-7.8l2.1-7.1
						l4.2-6.5l0.6-7.5l5.8-6l-0.8-9.4l9.2,0.1L612.4,67.2z"/>
					<path class="st2" d="M645,219.1l-7.1,0.4l-6-1.6l1.1-5.9l-3.2-7.2l-1.1-7.2l2.7-7.2l1-7.2l1.1-7.2l-4.1-7.3l3.9-7.3l-5.3-7.3
						l3-7.3l2.4-7.3l-5-7.3l-0.9-7.2l2-7.3l3.8-7.3l-1.9-7.3l0.5-7.3l0-7.3l-2.9-7.3l-0.1-7.3l2.8-6l6.1,0.2l6.3-0.4l-1.9,6.2
						l4.9,7.2l-2.3,7.2l0.8,7.2l-2.4,7.2l4.3,7.2l-4.4,7.3l-0.2,7.3l-0.8,7.3l0.4,7.3l4.8,7.3l0.3,7.3l-2.3,7.2l1.9,7.3l-3.1,7.3
						l1.1,7.3l2.3,7.3l-4.7,7.3l1.4,7.3l2.9,7.3L645,219.1z"/>
					<path class="st2" d="M692.6,219.1l-7.1,0.4l-6-1.6l1.1-5.9l-3.2-7.2l-1.1-7.2l2.7-7.2l1-7.2l1.1-7.2l-4.1-7.3l3.9-7.3l-5.3-7.3
						l3-7.3l2.4-7.3l-5-7.3l-0.9-7.2l2-7.3l3.8-7.3l-1.9-7.3l0.5-7.3l0-7.3l-2.9-7.3l-0.1-7.3l2.8-6l6.1,0.2l6.3-0.4l-1.9,6.2
						l4.9,7.2l-2.3,7.2l0.8,7.2l-2.4,7.2l4.3,7.2l-4.4,7.3l-0.2,7.3l-0.8,7.3l0.4,7.3l4.8,7.3l0.3,7.3l-2.3,7.2l1.9,7.3l-3.1,7.3
						l1.1,7.3l2.3,7.3l-4.7,7.3l1.4,7.3l2.9,7.3L692.6,219.1z"/>
				</g>
			</g>
			<g class="st0">
				<g>
					<path class="st3" d="M34.6,219.2l-7.2-0.2l-5.9-1.1l-0.4-5.8l-1.6-7.2l1.2-7.2l-1-7.2l0.6-7.2l-0.9-7.2l2-7.3l-0.2-7.3l0.2-7.3
						l0.9-7.3l-1.4-7.3l1.3-7.3l-0.1-7.2l-2.3-7.3l-2.1-7.3l0.9-7.3l0.1-7.3l0.7-7.3l2.8-7.3l-4.6-7.3l0.8-9l9-0.9l8.9,1.1l-1.8,8.8
						l3.2,7.2l-2.9,7.2L32.3,96l2.5,7.2l-1.4,7.2l3.6,7.3l-4.4,7.3l4.3,7.3l-0.8,7.3l-3.1,7.3l1.7,7.3l-2.1,7.2l0.8,7.3l3.5,7.3
						l-4,7.3l1,7.3l-0.6,7.3l2.1,7.3l-2.9,7.2L34.6,219.2z"/>
					<path class="st3" d="M61.9,213.1l0.2-7l1.7-7l-1.2-6.6l6.5,4.8l8.2,5.4l9.5,1.7l8.5,1.5l7.1-1.4l7.5,0.1l6.3-4.2l4.4-5.2
						l3.1-6.2l-0.8-6.8l0.8-5.9l-1.9-5.7l-8.2-7.2l-5.8-2.1l-4.1-4l-5.7-3.8l-5.4-4.2l-4.6-6.4l-8.8-0.3l-5.4-4.5l-5-5l-3.7-6
						l-0.6-7.2l-5.1-6.7l2.4-8l2.9-5.9l-1.3-6.4l3.5-5.2l1.1-8.9l8.9-2.7l4.2-8.1l7.9-2.5l8.6,1.3l7.8-2.3l6.8,2.4l6.9-0.1l7.7-1.9
						l3.8,5.5l1,6.3l-0.6,6.7l2.2,7l-5.9-6.5l-8-1.3l-7.6-1.1l-7.6-2.7l-10.2,0.7l-7.5,7.1l-4.9,7.4l-4.3,4.1l-1.6,5.6l0.9,11.3
						l8.9,5.8l1.5,6.7l7.6-1.2l4,6.3l4.5,5.7l9.2-0.3l6.9,3.7l4.4,6.4l2.1,7.8l5.5,4.4l2.6,6.3l2,7.1l3.6,7.4l-0.2,6.7l-4.5,5.8
						l-1.7,6l-3.9,6.7l-6.3,4.3l-3.9,8.5l-8.4,0.7l-8.3,2.4l-8.6-1.9l-7.7,3.8l-8.1-6.1l-8.2-2.9L61.9,213.1z"/>
					<path class="st3" d="M156.9,213.1l0.2-7l1.7-7l-1.2-6.6l6.5,4.8l8.2,5.4l9.5,1.7l8.5,1.5l7.1-1.4l7.5,0.1l6.3-4.2l4.4-5.2
						l3.1-6.2l-0.8-6.8l0.8-5.9l-1.9-5.7l-8.2-7.2l-5.8-2.1l-4.1-4l-5.7-3.8l-5.4-4.2l-4.6-6.4l-8.8-0.3l-5.4-4.5l-5-5l-3.7-6
						l-0.6-7.2l-5.1-6.7l2.4-8l2.9-5.9l-1.3-6.4l3.5-5.2l1.1-8.9l8.9-2.7L176,68l7.9-2.5l8.6,1.3l7.8-2.3l6.8,2.4l6.9-0.1l7.7-1.9
						l3.8,5.5l1,6.3l-0.6,6.7l2.2,7l-5.9-6.5l-8-1.3l-7.6-1.1l-7.6-2.7l-10.2,0.7l-7.5,7.1l-4.9,7.4l-4.3,4.1l-1.6,5.6l0.9,11.3
						l8.9,5.8l1.5,6.7l7.6-1.2l4,6.3l4.5,5.7l9.2-0.3l6.9,3.7l4.4,6.4l2.1,7.8l5.5,4.4l2.6,6.3l2,7.1l3.6,7.4l-0.2,6.7l-4.5,5.8
						l-1.7,6l-3.9,6.7l-6.3,4.3l-3.9,8.5l-8.4,0.7l-8.3,2.4L188,220l-7.7,3.8l-8.1-6.1l-8.2-2.9L156.9,213.1z"/>
					<path class="st3" d="M348.9,157.7l-0.4,7l-2.2,6.8l0.2,7l0.2,7.2l-3.1,6.4l-1.8,6.8l-4,5.8l-3.8,6l-6.6,2.9l-5.8,3.5l-6.5,2
						l-6.8,0.3l-6.8,1.8l-7-1.7l-6.9-1.3l-7.5-0.4l-7.5-2.3l-4.9-6l-4.2-6.3l-2.6-7l0.4-7.7l-6.2-6.1l-1-7.4l-0.7-7.4l0.3-7.4
						l2.5-7.2l-3.2-7.2l2.9-7.2l2.5-7.2l-2.5-7.2l1.4-7.2l-3.7-7.2l4.5-7.2l-4.4-7.2l0.8-7.2l3.2-7.2l-1.7-7.2l1.5-5.6l5.8-0.2
						l8.9-2.9l-3.4,8.7l1,7.1l-0.6,7.1l2.2,7.1l-2.9,7.1l1.9,7.1l0.5,7.1l-2.2,7.1l-0.6,7.1l3.2,7.1l1.1,7.1l-2.7,7.1l-1.1,7.1
						l-0.9,7.4l4.8,6.8l-2.5,7.9l7.3,5.2l0.5,7.6l3.1,7.4l8.9-0.2l6.5,1.2l6.6,2.6l7.4,3.1l6.5-4.1l6.3-3.6l4.8-5.5l0.6-7.5l2-6.4
						l4.7-6.2l0.3-7.1l0.2-7l1.5-7.2l-5-7.2l2.3-7.2l-0.8-7.2l2.4-7.2l-4.3-7.2l4.4-7.2l0.2-7.2l0.8-7.2l-0.4-7.2l-4.9-7.2l-0.3-7.2
						l2.4-7.5l7.6-2.1l6.8,2.9l0.9,6.4l2.3,7l-4.8,7l1.4,7l2.9,7l0.1,7l-5.2,7l0.1,7l3,7l-2,7l3.9,7l0.2,7L348.9,157.7z"/>
					<path class="st3" d="M446.5,219.2l-7.3-0.2l-7.4-1.7l-7.4,1l-7.4,1.6l-7.4-1.2l-7.4,1l-7.4-0.6l-7.4,0.9l-6.5-1.6l0.1-6.4
						l0.2-7.2l0.9-7.2l-1.4-7.2l1.3-7.2l-0.1-7.2l-2.3-7.3l-2.1-7.3l0.9-7.3l0.1-7.3l0.7-7.3l2.8-7.3l-4.6-7.2l0.1-7.3l-0.2-7.3
						l0.4-7.3l2.4-7.3l-3.2-7.3l2.9-7.3l2.5-7.3l-2.5-7.3l7.1,1.4l7.1-3.6l7.1,4.4l7.1-4.3l7.1,0.8l7.1,3.1l7.1-1.7l7.1,2.1l6.1-1.3
						l3.2,7.2l-3.6,6.9l-5.6,0.3l-7-0.6l-7,2.1l-7-2.9l-7,1.9l-7,0.5l-8.4-1.5l-1.1,8.6l3.2,7.2l1.1,7.2l-2.7,7.2l-1,7.2l-1.1,7.2
						l3.7,6.5l6.8,3.6l7.5-5.3l7.5,3l7.5,2.4l7.5-5l9.7,0.1l-1.2,10.1l-3,6.1l-5.5,1l-7.5-0.5l-7.5,0l-7.5,2.9l-7.5,0.1l-8.8-2.8
						l-0.2,8.9l0,7.6l-1.5,7.6l4.9,7.6l-2.3,7.6l0.8,7.6l-1.8,8.9l8.7-3.7l7.4,4.4l7.4,0.2l7.4,0.8l7.4-0.4l7.4-4.8l9.3,0.5
						l-1.6,9.8L446.5,219.2z"/>
					<path class="st3" d="M612.5,67.1l-2.3,6.7l-3.7,6.4l-1.1,7.2l-0.6,7.4l-3.2,6.6l-1.2,7.2l-2.6,6.8l-1.2,7.2l-4,6.3l-1.9,7
						l-2.3,6.8l-2.9,6.7l-0.8,7.3l-3.3,6.5l-2.1,6.9l0.1,7.6l-0.1,7.5l-3,6.7l-2.2,6.9l-2.8,6.7l-4.8,6.1l1.3,9.6l-9.5,0.4l-9.5-0.3
						L546,213l0.3-7.6l-5.1-6l0.7-7.7l0.3-7.6l-4.4-6.2l-0.7-7.3l-5.5-5.9l2.2-8.2l-6.2-5.7l-1.3-7.1l0.9-7.8l-3.7-6.4l-0.1-7.5
						l-2.9-6.7l-5.4-5.9l1.8-8.1l-3-6.6l-1.5-7.1l-4.1-6.3l0.7-7.7l-3.9-6.1l7.9-0.4l7.1,1.8l0.7,6.2l5.1,6.2l3.1,6.8l-0.5,7.8
						l1,7.4l1,7.4l6,6l-1.7,8.2l7.1,5.6l-0.9,7.9l-0.3,7.8l6.9,5.7l2.9,6.9l0.1,7.7l-1.6,8.1l3.8,6.6l1.6,7.2l1.5,6.6l3.8,6.2
						l-2.6,0l4.4-6.1l1.4-6.8l2-7.1l3.5-6.7l-2.6-8.5l4.3-6.4l1.3-7.3l4.3-6.4l-2-8.3l6.3-5.9l2.3-7l2.8-6.9l1.7-7.2l-2.6-8.4
						l1.8-7.2l4.2-6.5l0.2-7.6l5-6.2l1.1-7.6l8.1-2.3L612.5,67.1z"/>
					<path class="st3" d="M645.2,219.2l-7.2-0.2l-5.9-1.1l-0.4-5.8l-1.6-7.2l1.2-7.2l-1-7.2l0.6-7.2l-0.9-7.2l2-7.3l-0.2-7.3
						l0.2-7.3l0.9-7.3l-1.4-7.3l1.3-7.3l-0.1-7.2l-2.3-7.3l-2.1-7.3l0.9-7.3l0.1-7.3l0.7-7.3l2.8-7.3l-4.6-7.3l0.8-9l9-0.9l8.9,1.1
						l-1.8,8.8l3.2,7.2l-2.9,7.2l-2.5,7.2l2.5,7.2l-1.4,7.2l3.6,7.3l-4.4,7.3l4.3,7.3l-0.8,7.3l-3.1,7.3l1.7,7.3l-2.1,7.2l0.8,7.3
						l3.5,7.3l-4,7.3l1,7.3l-0.6,7.3l2.1,7.3l-2.9,7.2L645.2,219.2z"/>
					<path class="st3" d="M692.7,219.2l-7.2-0.2l-5.9-1.1l-0.4-5.8l-1.6-7.2l1.2-7.2l-1-7.2l0.6-7.2l-0.9-7.2l2-7.3l-0.2-7.3
						l0.2-7.3l0.9-7.3l-1.4-7.3l1.3-7.3l-0.1-7.2l-2.3-7.3l-2.1-7.3l0.9-7.3l0.1-7.3l0.7-7.3l2.8-7.3l-4.6-7.3l0.8-9l9-0.9l8.9,1.1
						l-1.8,8.8l3.2,7.2l-2.9,7.2l-2.5,7.2l2.5,7.2l-1.4,7.2l3.6,7.3l-4.4,7.3l4.3,7.3l-0.8,7.3l-3.1,7.3l1.7,7.3l-2.1,7.2l0.8,7.3
						l3.5,7.3l-4,7.3l1,7.3l-0.6,7.3l2.1,7.3l-2.9,7.2L692.7,219.2z"/>
				</g>
			</g>
			<g>
				<g class="st0">
					<g>
						<path class="st4" d="M37.4,222.1l-7.2,0.9l-7.1-1l-1.9-7.1l2.3-7.2l-1.8-7.2l1.1-7.2L22,186l-1.4-7.2l3.3-7.3l-2.4-7.3
							l1.3-7.3l0.4-7.3l-1.7-7.3l-1.4-7.3l5.3-7.2l0.1-7.3l-4.5-7.3l0.1-7.3l-1.2-7.3l4.8-7.3l-2-7.3l0.4-7.3L22,69l8.3,0.5l8.5-0.7
							l-1.5,8.5l-1.7,7.2l3.2,7.2l-1.4,7.2l-0.5,7.2l0.4,7.2l0.2,7.3l-0.8,7.3l0.2,7.3l1.1,7.3l1.5,7.3l-4.8,7.3l3.8,7.2l-3.6,7.3
							l2.5,7.3l1.2,7.3l-3.2,7.3l0.1,7.3l2,7.3l-1.6,7.2L37.4,222.1z"/>
						<path class="st4" d="M64.8,216l-1-7l1.1-7l-2-7.7l8.5,6.9l9.5,2.6l8.8,3.8l8.5,0.1l6.8-1.9l7.7,1.5l4.7-5.8l4.8-4.1l2.5-6
							l-1.2-6.5l-1.9-4.9l3.5-6.9l-6.6-9.2l-7.5-0.4l-4.6-3.4l-6.4-2.6l-3.2-7.8l-7.3-2.2l-5.8-4.5l-6.2-3.1l-4.1-5.6l-4.9-4.8
							l-1-6.9l-0.1-7.5l-3.8-7.2l1.8-6.2l1.7-5.9l1.7-5.9l4-7l6.1-5.2l6.4-4.5l6.9-4.1l7.7-3.4l8.4,4.3l7-3.8l6.4,4.5l7.2-1l7.4,2.5
							l-3.3,6.9l0.1,6.7l2.1,6.7l-5.6-5.7l-7.7-1.7l-7.5-1.8l-7.7-2.2l-9.9,2.3L89,89.2l-7,6.3l-0.9,5.5l-1.1,5.4l2.7,9.8l3.7,8.9
							l4.3,3.5l4.4,3.4l5.3,4.4l6.6,2.3l5.7,5.2l6.2,4.3l7,2.8l6.7,3.9l3.5,6.5l3.1,6.6l1.4,7.8l-2.3,7.8l4.4,6.8l-1.3,6.8l-2.1,6.7
							l-4.8,7.2l-7.6,4.2l-5.2,7.2l-8.8,0.2l-8.7-0.9l-8.2,3.1l-7.1-2l-9.6,2l-7.2-7.1L64.8,216z"/>
						<path class="st4" d="M159.7,216l-1-7l1.1-7l-2-7.7l8.5,6.9l9.5,2.6l8.8,3.8l8.5,0.1l6.8-1.9l7.7,1.5l4.7-5.8l4.8-4.1l2.5-6
							l-1.2-6.5l-1.9-4.9l3.5-6.9l-6.6-9.2l-7.5-0.4l-4.6-3.4l-6.4-2.6l-3.2-7.8l-7.3-2.2l-5.8-4.5l-6.2-3.1l-4.1-5.6l-4.9-4.8
							l-1-6.9l-0.1-7.5l-3.8-7.2l1.8-6.2l1.7-5.9l1.7-5.9l4-7l6.1-5.2l6.4-4.5l6.9-4.1l7.7-3.4l8.4,4.3l7-3.8l6.4,4.5l7.2-1l7.4,2.5
							l-3.3,6.9l0.1,6.7l2.1,6.7l-5.6-5.7l-7.7-1.7l-7.5-1.8l-7.7-2.2l-9.9,2.3l-7.9,5.5l-7,6.3l-0.9,5.5l-1.1,5.4l2.7,9.8l3.7,8.9
							l4.3,3.5l4.4,3.4l5.3,4.4l6.6,2.3l5.7,5.2l6.2,4.3l7,2.8l6.7,3.9l3.5,6.5l3.1,6.6l1.4,7.8l-2.3,7.8l4.4,6.8l-1.3,6.8l-2.1,6.7
							l-4.8,7.2l-7.6,4.2l-5.2,7.2l-8.8,0.2l-8.7-0.9l-8.2,3.1l-7.1-2l-9.6,2l-7.2-7.1L159.7,216z"/>
						<path class="st4" d="M351.7,160.6l0.9,7l-1.6,6.9l1.1,7.3l-3.7,6.4l-0.3,7.3l-3.8,6.1l-2.8,6.6l-3.6,6.5l-7.6,2l-5,5.5
							l-7.2,1.1l-6.9,0.8l-7,2.1l-7.6,1l-6.1-6.7l-6.3-2.6l-8.5,0l-5.4-5.4l-5.4-5.6l1.1-8.8l-4.2-6.2l-1.2-7.2l-2.5-7l0.3-7.4
							L257,163l2-7.2l1.7-7.2l-3.3-7.2l1.4-7.2l0.5-7.2l-0.4-7.2l-0.2-7.2l0.8-7.2l-0.2-7.2l-1.1-7.2l-1.5-7.2l4.9-7.2l-3.6-7.9
							l8.1,3.4l7.3-2.6l1.2,7l-3.2,7.1l0.1,7.1l2.1,7.1l-1.6,7.1l1.4,7.1l-0.2,7.1l-1.7,7.1l1.1,7.1l1.6,7.1l-1.2,7.1l1,7.1
							l-0.6,7.1l1.1,7.1l-1.3,7.4l1.6,7.1l2,7.1l2.7,7.1l6,4.8l5.6,5.2l7.3,2.3l7.5-1.6l6.4-2.7l6.4-1.1l5.5-3.5l4.9-4.6l5.8-5
							l-2.3-8l1.3-6.5l0.5-6.7l0.6-6.8l2.5-7.2l-3.2-7.2l2.9-7.2l2.5-7.2l-2.5-7.2l1.4-7.2l-3.7-7.2l4.5-7.2l-4.4-7.2l0.8-7.2
							l3.2-7.2l-1.7-7.2l1.5-5.7l5.8-0.2l8.9-2.9l-3.4,8.6l1,7l-0.6,7l2.2,7l-2.9,7l1.9,7l0.5,7l-2.2,7l-0.6,7l3.2,7l1.1,7l-2.7,7
							L351.7,160.6z"/>
						<path class="st4" d="M449.3,222.1l-7.2,0.9l-7.4-1.1l-7.4,2l-7.4-2.3l-7.4,1.8l-7.4-1.1l-7.4,0.9l-7.4,1.4l-6.7-3.1l-2.1-6.5
							l1.3-7.2l0.4-7.2l-1.7-7.2l-1.4-7.2l5.3-7.2l0.1-7.3l-4.5-7.3l0.1-7.3l-1.2-7.3l4.8-7.3l-2-7.3l0.4-7.2l-1.5-7.3l0.8-7.3
							l-1.2-7.3l2-7.3l1.7-7.3l-3.2-7.3l1.4-7.3l0.4-6.8l6.6-0.2l7.1-0.2l7.1,0.8l7.1-0.2l7.1-1.1l7.1-1.5l7.1,4.8l7.1-3.8l5.1,2.8
							l1.9,6.4l0.9,8.8l-7.8-2.8l-7,0.1l-7,2l-7-1.6l-7,1.4l-7-0.2l-8.5-1.1l0.5,8.7l1.6,7.2l-1.2,7.2l1,7.2l-0.6,7.2l0.9,7.2
							l-1.6,8.1l8.4,0.1l7.5,0.2l7.5,0.9l7.5-1.4l7.5,1.3l6.1-0.7l1.7,6.7l1.4,9.7l-9.3-0.1l-7.5-0.1l-7.5-0.7l-7.5-2.8l-7.5,4.6
							l-5.8-0.8l0.9,5.9L400,168l-2.4,7.6l3.2,7.6l-2.9,7.6l-2.5,7.6l2.5,7.6l7.3,1.4l7.4-3.6l7.4,4.4l7.4-4.3l7.4,0.8l7.4,3.1
							l7.4-1.7l-2.1,8L449.3,222.1z"/>
						<path class="st4" d="M615.3,70l-1.2,7.1l-3.1,6.6l-0.2,7.5l-4.3,6.2l-0.4,7.4l-3.2,6.6l-1.3,7.2l-0.8,7.3l-5.3,5.9l0.2,7.6
							l-3.3,6.5l-2.5,6.8l-0.4,7.4l-0.7,7.3l-7.2,5.4l-2.2,6.9l2.2,8.2l-2.2,6.9l-1,7.3l-6.7,5.5l-0.2,7.5l-2.4,6.7l-8,1.5l-8.3-0.9
							l-3.4-6.8l-0.2-7.5l-0.4-7.4l-5.2-6l-0.8-7.3l-1.6-7.1l-2.5-6.8l-2.3-6.9l-1.3-7.1l-2.2-6.9l-3.1-6.6l-3.5-6.5l2.5-8.3
							l-5.7-5.8l1.4-8l-4.5-6.2l-3.2-6.6l1-7.8l-2.2-6.9l-4-6.3l-0.6-7.4l-3.4-6.4l8,0.2l7,1.3l2.2,5.7l3.6,6.7l0.9,7.4l3,6.8
							l1.5,7.3l2.9,6.9l0.1,7.6l2.3,7l1.8,7.2l1.2,7.3l3.4,6.7l0.8,7.5l2.1,7.1l4.2,6.5l4,6.5l1.2,7.4l1.9,7.1l0.9,6.9l-1.7,7.4
							l-0.1-1.2l1.2-6.8l1.6-7l2.5-7l4.4-6.4l-1-8l4.8-6.3l4.5-6.4l-0.3-7.8l3.4-6.7l-1.4-8.1l6.3-5.8l-2.1-8.3l2.8-6.9l5.1-6.2
							l0.5-7.6l4.1-6.5l1.3-7.3l-1.3-8.1l5.3-5l6.8-0.6L615.3,70z"/>
						<path class="st4" d="M648,222.1l-7.2,0.9l-7.1-1l-1.9-7.1l2.3-7.2l-1.8-7.2l1.1-7.2l-0.9-7.2l-1.4-7.2l3.3-7.3l-2.4-7.3
							l1.3-7.3l0.4-7.3l-1.7-7.3l-1.4-7.3l5.3-7.2l0.1-7.3l-4.5-7.3l0.1-7.3l-1.2-7.3l4.8-7.3l-2-7.3l0.4-7.3l-1.1-8.2l8.3,0.5
							l8.5-0.7l-1.5,8.5l-1.7,7.2l3.2,7.2l-1.4,7.2l-0.5,7.2l0.4,7.2l0.2,7.3l-0.8,7.3l0.2,7.3l1.1,7.3l1.5,7.3l-4.8,7.3l3.8,7.2
							l-3.6,7.3l2.5,7.3l1.2,7.3l-3.2,7.3l0.1,7.3l2,7.3l-1.6,7.2L648,222.1z"/>
						<path class="st4" d="M695.5,222.1l-7.2,0.9l-7.1-1l-1.9-7.1l2.3-7.2l-1.8-7.2l1.1-7.2l-0.9-7.2l-1.4-7.2l3.3-7.3l-2.4-7.3
							l1.3-7.3l0.4-7.3l-1.7-7.3l-1.4-7.3l5.3-7.2l0.1-7.3l-4.5-7.3l0.1-7.3l-1.2-7.3l4.8-7.3l-2-7.3l0.4-7.3l-1.1-8.2l8.3,0.5
							l8.5-0.7l-1.5,8.5l-1.7,7.2l3.2,7.2l-1.4,7.2l-0.5,7.2l0.4,7.2l0.2,7.3l-0.8,7.3l0.2,7.3l1.1,7.3l1.5,7.3l-4.8,7.3l3.8,7.2
							l-3.6,7.3l2.5,7.3l1.2,7.3l-3.2,7.3l0.1,7.3l2,7.3l-1.6,7.2L695.5,222.1z"/>
					</g>
				</g>
			</g>
			<g class="st0">
				<g>
					<path class="st5" d="M34.8,219.4l-7.4-2.6l-7.2,2.4l-3.1-7.2l0.8-7.2l-0.8-7.2l2.7-7.2l-1.3-7.2l4.5-7.2l-1.5-7.3l1-7.3
						l-2.3-7.3l1.4-7.3l-3.6-7.3l1.1-7.3l-0.2-7.2l3.3-7.3l-2.9-7.3l2.6-7.3l-0.3-7.3l-3.7-7.3l0.7-7.3l1.8-7.3l-0.1-7l7.1-2.2
						l9.4-0.1L32,74.3l1.5,7.2l0.4,7.2L32.5,96l4.7,7.2l-1.2,7.2l-2.2,7.3l2.9,7.3l-1,7.3l1.7,7.3l-1.4,7.3l-4,7.3l3.6,7.2l-3.6,7.3
						l4.4,7.3l-1,7.3l-1.8,7.3l1.9,7.3l-3,7.3l4.1,7.2L34.8,219.4z"/>
					<path class="st5" d="M61.6,213.2l2.8-7l-2.5-7l-3-8.2l11.1,5l8.7,3.3l8.2,5.3l8.5-0.4l7.6,4.1l7-3.5l7.2-3.3l2.3-6.9l3.5-5.8
						l-3.1-6.7l0.7-5.3l-1.8-4.9l-3.5-10.5l-6.5-1.6l-3.3-5.6l-5.9-3.4l-7.8-0.4l-5.9-4.6l-5-5.8l-5.2-4.2l-6.4-3.3l-4.8-5.2L67,119
						l-3.2-6.5l-0.9-7.3l1.7-5.9L61,92.2l3.5-5.7l6.2-5.8l3.6-8l7.5-3.7l7-4.8l8.5-0.5l8.3,3.5l7-3.5l6.4,4.5l7.7-2.8l6.4,4.3
						l-1.9,6.8l1.9,6.7l-2.9,5.8l-4.9-1.8l-6.1-4.7l-7.6-0.6l-7.5-1.6l-9.1,3.3l-9.3,1.7l-4.7,8.2l-2.8,4.6l0.4,5.4l3,9.1l2.3,9.4
						l5.7,1.7l3.6,4.2l5.5,4l6.7,2l7.4,2.9l3.1,8.9l5.3,4.6l8.3,2l4.2,6l4.4,6.1l-2.6,8.9l2.6,7.4l-0.7,6.5l0.4,6.8l-3,6l-3.2,7.8
						l-7.2,4.5l-7.4,2.7l-6.2,5.9l-8.7,0.3l-8.5,0l-7.3-0.1l-8.9-1.5l-8.3-3.5L61.6,213.2z"/>
					<path class="st5" d="M156.5,213.2l2.8-7l-2.5-7l-3-8.2l11.1,5l8.7,3.3l8.2,5.3l8.5-0.4l7.6,4.1l7-3.5l7.2-3.3l2.3-6.9l3.5-5.8
						l-3.1-6.7l0.7-5.3l-1.8-4.9l-3.5-10.5l-6.5-1.6l-3.3-5.6l-5.9-3.4l-7.8-0.4l-5.9-4.6l-5-5.8l-5.2-4.2l-6.4-3.3l-4.8-5.2
						l2.5-8.5l-3.2-6.5l-0.9-7.3l1.7-5.9l-3.6-7.1l3.5-5.7l6.2-5.8l3.6-8l7.5-3.7l7-4.8l8.5-0.5l8.3,3.5l7-3.5l6.4,4.5l7.7-2.8
						l6.4,4.3l-1.9,6.8l1.9,6.7l-2.9,5.8l-4.9-1.8l-6.1-4.7l-7.6-0.6l-7.5-1.6l-9.1,3.3l-9.3,1.7l-4.7,8.2l-2.8,4.6l0.4,5.4l3,9.1
						l2.3,9.4l5.7,1.7l3.6,4.2l5.5,4l6.7,2l7.4,2.9l3.1,8.9l5.3,4.6l8.3,2l4.2,6l4.4,6.1l-2.6,8.9l2.6,7.4l-0.7,6.5l0.4,6.8l-3,6
						l-3.2,7.8l-7.2,4.5l-7.4,2.7l-6.2,5.9l-8.7,0.3l-8.5,0l-7.3-0.1l-8.9-1.5l-8.3-3.5L156.5,213.2z"/>
					<path class="st5" d="M349.2,157.7l-2.9,6.9l1.9,7.1l2.2,7.4l-2.2,6.9l-1.2,7.2l-5.3,5.6l-2.5,6.8l-7.9,2.4l-4.1,5.4l-6.3,2.4
						l-5.7,4.4l-7-0.2l-6.8,4.1l-7.4-1.6l-7.4-1.2l-5.5-5.7l-7.6-1.4l-3.3-6.9l-4.2-5.6l-6.6-4.9l-1.7-7.3l0.2-7.6l-1-7.2l-2.9-7.1
						l-1.2-7.4l5.8-7.2l-1.5-7.2l-0.4-7.2l1.4-7.2l-4.8-7.2l1.2-7.2l2.2-7.2l-3-7.2l1.1-7.2l-1.7-7.2l1.4-7.2l4.1-7.2l-3.4-7.8
						l8,3.4l8.5-4l-0.5,8.3l-1.9,7.1l1.9,7.1l-3.1,7.1l4.2,7.1l-1.9,7.1l1,7.1l-1.1,7.1l2.1,7.1l-2.4,7.1l1.8,7.1l-1.1,7.1l0.9,7.1
						l1.6,7l-2.7,7.4l3.7,6.6l0.9,7.1l3,6.6l5.9,4.2l6.3,2.4l5.1,7.3l7.6,0.8l6.5-5.1l6.2-1.9l4.5-4.4l8.1-2l1.5-7.2l2.5-6.5
						l-0.2-7.1l1.5-6.8l-1-6.9l2-7.2l1.7-7.2l-3.3-7.2l1.4-7.2l0.5-7.2l-0.4-7.2l-0.2-7.2l0.8-7.2l-0.2-7.2l-1.1-7.2l-1.5-7.2
						l4.9-7.2l-3.6-8l8.1,3.4l7.3-2.6l1.2,6.9l-3.2,7l0.1,7l2.1,7l-1.6,7l1.4,7l-0.2,7l-1.7,7l1.1,7l1.6,7l-1.2,7l1,7L349.2,157.7z"
						/>
					<path class="st5" d="M446.7,219.4l-7.5-2.6l-7.4,2.4l-7.4,3.1l-7.4-0.8l-7.4,0.8l-7.4-2.7l-7.4,1.3l-7.4-4.5l-6.4,1.9l1.4-6.2
						l-2.3-7.2l1.4-7.2l-3.6-7.2l1.1-7.2l-0.2-7.2l3.3-7.3l-2.9-7.3l2.6-7.3l-0.3-7.3l-3.7-7.3l0.7-7.3l1.8-7.2l0-7.3l-2.3-7.3
						l-1-7.3l5.7-7.3l-1.5-7.3l-0.4-7.3l1.3-7.3l-4-9l8.9,0.4l7.1,2.2l7.1-2.9l7.1,1l7.1-1.7l7.1,1.4l7.1,4l7.1-3.6l5,2.7l3.7,6.3
						l-1.2,8.5l-7.4-1.6l-7,1.9l-7-3l-7,4.1l-7-1.9l-7,1l-7.2-1l1.9,7.4l-2.3,7.2l1.8,7.2l-1.1,7.2l0.9,7.2l1.4,7.2l-3,8l8.2-2.1
						l7.5,1.3l7.5,0.4l7.5-1.7l7.5-1.4l5.8,4.5l-0.8,6.4l4,9.3l-8.9,0.5l-7.5,1.2l-7.5-4.8l-7.5,2l-7.5-0.4l-6.6,1.1l-0.5,6.7
						l1.2,7.6l-2,7.6l-1.7,7.6l3.2,7.6l-1.4,7.6l-0.4,8.1l7.8-0.2l7.4-0.2l7.4,0.8l7.4-0.2l7.4-1.1l7.4-1.5l5.3,3.9l3.1,6.2
						L446.7,219.4z"/>
					<path class="st5" d="M612.8,66.9l-4.6,6.3l0.2,7.6l0.9,7.8l-2.9,6.7l-1.3,7.2l-4.7,6.1l-0.9,7.3l-6.4,5.6l-0.7,7.4l-3,6.6
						l0.1,7.6l-3.4,6.5l1.4,8l-3.2,6.6l-1.9,7l-5.3,5.9l0.6,7.8l-4.6,6.2l-1.8,7l1.4,8l-2.8,6.7l-3.7,6.2l-7.9,0l-9.2,2l-3.8-7.7
						l3.4-8.6l-3.5-6.5l-2.4-6.8l-0.8-7.3l-6.6-5.6l-0.9-7.3l0-7.5l-4.9-6.1l-1.1-7.2l-3.6-6.4l-0.8-7.3l1.8-8.1l-5.5-5.9l1.4-8
						l-6.2-5.7l-1.1-7.2l-0.3-7.4l-3.8-6.4l0.8-7.8l-6-5.8l-0.3-7.3l8-0.9l8,1l3.9,6.4l-0.2,7.7l3.7,6.6l1,7.4l2.9,6.9l3.4,6.7
						l-1.2,8l4.3,6.4l0.8,7.5l1.7,7.2l3.7,6.6l3.4,6.7l-3.1,8.6l1.9,7.1l6.3,5.9l1.9,7.1l3.2,6.8l-3.1,7.8l2.9,6.4l0.3,0.1l-0.3-7.2
						l2.6-6.6l0.9-7.4l4-6.5l3.7-6.6l-1-8l3.4-6.7l2.6-6.9l1.7-7.2l1.9-7.2l2.8-6.9l1.9-7.1l1-7.4l0.6-7.5l6.7-5.7l-1.6-8.2l5.6-6.1
						l-0.3-7.8l1.4-8l8.5,3L612.8,66.9z"/>
					<path class="st5" d="M645.4,219.4l-7.4-2.6l-7.2,2.4l-3.1-7.2l0.8-7.2l-0.8-7.2l2.7-7.2l-1.3-7.2l4.5-7.2l-1.5-7.3l1-7.3
						l-2.3-7.3l1.4-7.3l-3.6-7.3l1.1-7.3l-0.2-7.2l3.3-7.3l-2.9-7.3l2.6-7.3l-0.3-7.3l-3.7-7.3l0.7-7.3l1.8-7.3l-0.1-7l7.1-2.2
						l9.4-0.1l-4.8,9.4l1.5,7.2l0.4,7.2l-1.3,7.2l4.7,7.2l-1.2,7.2l-2.2,7.3l2.9,7.3l-1,7.3l1.7,7.3l-1.4,7.3l-4,7.3l3.6,7.2
						l-3.6,7.3l4.4,7.3l-1,7.3l-1.8,7.3l1.9,7.3l-3,7.3l4.1,7.2L645.4,219.4z"/>
					<path class="st5" d="M692.9,219.4l-7.4-2.6l-7.2,2.4l-3.1-7.2l0.8-7.2l-0.8-7.2l2.7-7.2l-1.3-7.2l4.5-7.2l-1.5-7.3l1-7.3
						l-2.3-7.3l1.4-7.3l-3.6-7.3l1.1-7.3l-0.2-7.2l3.3-7.3l-2.9-7.3l2.6-7.3l-0.3-7.3l-3.7-7.3l0.7-7.3l1.8-7.3l-0.1-7l7.1-2.2
						l9.4-0.1l-4.8,9.4l1.5,7.2l0.4,7.2l-1.3,7.2l4.7,7.2l-1.2,7.2l-2.2,7.3l2.9,7.3l-1,7.3l1.7,7.3l-1.4,7.3l-4,7.3l3.6,7.2
						l-3.6,7.3l4.4,7.3l-1,7.3l-1.8,7.3l1.9,7.3l-3,7.3l4.1,7.2L692.9,219.4z"/>
				</g>
			</g>
			<g class="st0">
				<g>
					<path class="st6" d="M33.5,213.9l-6.1,1l-7-0.1l1.9-6.7l-0.5-7.1l-1.4-7.1l1.1-7.1l-0.5-7.1l-1.2-7.1l-1.3-7.1l1.5-7.1l0.1-7.1
						l-0.9-7.1l1.1-7.1l1.8-7.1l-1.3-7.1l2-7.1l-4-7.1l1.2-7.1l1.9-7.1L19,87.6l-0.9-7.1l0.1-7.1l2.5-6.4l6.6,1l8.9-3.4l-1.1,8.7
						l1,7.1l-1.3,7.1l-2.7,7.1l2.9,7.1l-0.3,7.1l1.1,7.1l1,7.1l-3.6,7.1l1.5,7.1l-0.9,7.1l2.7,7.1l-0.6,7.1l1.5,7.1l-0.3,7.1
						l-3.8,7.1l3,7.1l-1.1,7.1l-1.1,7.1l2.9,7.3L33.5,213.9z"/>
					<path class="st6" d="M63.5,208.8l-1.5-6.5l0.2-6.9l1.6-6l4.1,6.2l9.5,3l9,3.8l8.8,0.5l7.1-1.7l6.4-3l6.7-2.3l4-4.9l1.3-6.1
						l1.8-6.1l1.3-5.8l-3.2-5l-4.9-9.9l-7.2-0.7l-4.1-4.3l-4.7-5.2l-7.4-1l-6.7-3.1l-6-4.3l-3.4-6.5l-4-5.2l-7.1-2.9l-1.2-6.8
						l-3-7.1l0.8-7.6l3.1-5.7l-1.8-6.4l2.5-5.6l3.4-7.4l5.1-6.7l8.7-1.3l6.6-4.3l8-0.9l7.9-3.3l7,0.8l7.3-0.8l7.1,1.9l4.1,5.5
						l3.1,6.2l-1.2,6.5l-1.1,6.3l-6.9-1.8l-6-4.9l-7.1-4.2l-7.9,1.9L95,83.7l-8,2.8l-4.7,6.6l-4.7,8.9l2.9,9.2l1.7,10.3l5.3,2.6l4,4
						l7,1.6l5.1,4.7l8.4,0.9l5.7,5.3l5.8,4.4l2.5,7.4l6.3,3.8l0.7,7.3l2.2,6.8l4.3,7.2l-1,6.5l-3,6l-2.1,5.9l-2.3,8.2L126,211
						l-9.8-0.7l-6.6,4l-8.2,2l-8.4-0.8l-7.7,4.2l-8.9-2.9l-8-4.8L63.5,208.8z"/>
					<path class="st6" d="M158.4,208.8l-1.5-6.5l0.2-6.9l1.6-6l4.1,6.2l9.5,3l9,3.8l8.8,0.5l7.1-1.7l6.4-3l6.7-2.3l4-4.9l1.3-6.1
						l1.8-6.1l1.3-5.8l-3.2-5l-4.9-9.9l-7.2-0.7l-4.1-4.3l-4.7-5.2l-7.4-1l-6.7-3.1l-6-4.3l-3.4-6.5l-4-5.2l-7.1-2.9l-1.2-6.8
						l-3-7.1l0.8-7.6l3.1-5.7l-1.8-6.4l2.5-5.6l3.4-7.4l5.1-6.7l8.7-1.3l6.6-4.3l8-0.9l7.9-3.3l7,0.8l7.3-0.8l7.1,1.9l4.1,5.5
						l3.1,6.2l-1.2,6.5l-1.1,6.3l-6.9-1.8l-6-4.9l-7.1-4.2l-7.9,1.9l-8.9,4.2l-8,2.8l-4.7,6.6l-4.7,8.9l2.9,9.2l1.7,10.3l5.3,2.6
						l4,4l7,1.6l5.1,4.7l8.4,0.9l5.7,5.3l5.8,4.4l2.5,7.4l6.3,3.8l0.7,7.3l2.2,6.8l4.3,7.2l-1,6.5l-3,6l-2.1,5.9l-2.3,8.2L221,211
						l-9.8-0.7l-6.6,4l-8.2,2l-8.4-0.8l-7.7,4.2l-8.9-2.9l-8-4.8L158.4,208.8z"/>
					<path class="st6" d="M347.3,154.9l1.3,7.5l-0.8,7.4l-2.8,7l-1.1,7.2l-1.1,7.4l-4.3,6l-3.9,6.1l-4.6,5.9l-5.9,5l-7.7,1.2
						l-7.4,1.3l-7.5,1.3l-7.1-1.6l-6.5-3.1l-7-1.1l-4.8-5.3l-7.9-1.8l-3.4-6.6l-1.5-7.2l-5.1-5.8l-2.5-6.9l-0.9-7.3l2.3-7.4l0.6-7.1
						l-4.1-7l1.9-7l-1.1-7l1.4-7l2.7-7l-2.9-7l0.4-7l-1.1-7l-1-7l3.6-7l-1.5-7l0.9-7l-2.1-8.3l8.6,0.1l9.3-0.7l0.5,9.4l-3.9,7.5
						l3.1,7.5l-1.1,7.5l-1.1,7.5l3,7.5l-2.2,7.5l-2.6,7.5l2.4,7.5l3.1,7.5l-0.8,7.5l0.8,7.5l-2.5,7.1l2,6.9l-3,7.9l3.8,6.6l2.7,7
						l6.6,4l5.4,5l7.7-1.4l6.7,1.7l6.6-0.8l7.6,1.1l4.4-6.1l6.6-3.4l3.2-6.4l-1.3-7.6l2-6.4l2.5-6.6l0.2-6.9l-2.3-7l-1-7l5.7-7
						l-1.5-7l-0.4-7l1.3-7l-4.7-7l1.2-7l2.1-7l-2.9-7l1-7l-1.6-7l1.8-8l8.3,3.6l8-3.3l-3.4,8l4.3,7.4l-1,7.4l-1.8,7.4l1.8,7.4
						l-3,7.4l4.1,7.4l-1.9,7.4l1,7.4l-1.1,7.4l2,7.6L347.3,154.9z"/>
					<path class="st6" d="M445.3,214l-6.1,0.9l-7.4-0.2l-7.4-1.7l-7.4,0.5l-7.4,1.4l-7.4-1.1l-7.4,0.5l-7.4,1.2l-8.4,0.8l1-8.2
						l0.1-7.1l-0.9-7.1l1.1-7.1l1.8-7.1l-1.3-7.1l2-7.1l-4-7.1l1.2-7.1l1.9-7.1l-2.9-7.1l-0.9-7.1l0.1-7.1l2.8-7.1l0.7-7.1l-4-7.1
						l1.8-7.1l-1-7.1l1.3-7.1l2.7-7.1l-2.8-7.3l7.3,0.2l7.1-1.1l7.1-1l7.1,3.6l7.1-1.5l7.1,0.9l7.1-2.7l7.1,0.6l9.1-0.6l0.4,9.7
						l-3.5,6.9l-5.9,2.6l-7-1.1l-7-1.1l-7,3l-7-2.2l-7-2.6l-7.1,2.4l3,7.2l-0.8,7.1l0.8,7.1l-2.6,7.1l1.2,7.1l-4.4,7.1l1.9,8.1
						l8.5,1.3l7.5-2.3l7.5,1.4l7.5-3.5l7.5,1.1l8.4,0.2l-2.9,8.7l2.6,8.4l-8.1-2.3l-7.5,0.3l-7.5,3.6l-7.5-0.7l-7.5-1.8l-7.7,0.1
						l2.2,7.7l0.9,7.4l-5.6,7.4l1.5,7.4l0.4,7.4l-1.3,7.4l3.9,5.7l5.6,0.4l7.4,2.1l7.4-2.9l7.4,1l7.4-1.6l7.4,1.3l5.5,3.1l2.8,6.2
						L445.3,214z"/>
					<path class="st6" d="M611.3,67.4l-1.1,5.6l-2.3,6.7l-3.8,6.2l-1.6,6.9l-0.8,7.2l-3.2,6.4l-1.7,6.9l-1,7.1l-0.9,7.1l-3.5,6.3
						l-2.2,6.7l-1.3,7l-3.2,6.4l-3.8,6.2l-0.8,7.2l-4,6.2l1.7,7.9l-3.2,6.4l-3.9,6.2l0.7,7.6l-1.3,7l-3,7.7l-9.1-2.5l-7.1-0.5
						l-5.2-4.7l-0.3-7.3l-3.1-6.5l-0.8-7.2l0.5-7.5l-4.8-5.9l-1.7-6.9l-3.1-6.5l-3-6.5l1.3-7.8l-3.5-6.3l-1.2-7l-4.6-6l-1.5-6.9
						l-3.5-6.3l-1.8-6.9l1.6-7.9l-5-5.9l-1-7.1l-1-7.1l-4.9-5.9l0.1-7.6l8.3,2.6l8.1-2.3l4.9,6l1.3,7.2l2.8,6.7l-0.5,7.7l3.2,6.6
						l-2.2,8.2l3.4,6.5l1.1,7.2l4.2,6.3l0.7,7.3l5.4,5.9l1,7.3l2.3,6.9l-1.1,7.9l4.7,6.2l-0.4,7.7l2.3,6.9l5.1,5.7l0.3,6.7l-0.7,0.5
						l1.1-6.8l-0.4-7.3l1.2-7.2l7.4-5.3l0.7-7.3l1.7-7l3.3-6.6l-2.4-8.3l3.2-6.6l4.1-6.3l-0.7-7.7l3.1-6.6l0.5-7.4l3.3-6.5l5.8-5.8
						l-1.3-7.9l5.5-5.9l-2-8.2l3.3-7l8.1,1.7L611.3,67.4z"/>
					<path class="st6" d="M644.1,213.9l-6.1,1l-7-0.1l1.9-6.7l-0.5-7.1l-1.4-7.1l1.1-7.1l-0.5-7.1l-1.2-7.1l-1.3-7.1l1.5-7.1
						l0.1-7.1l-0.9-7.1l1.1-7.1l1.8-7.1l-1.3-7.1l2-7.1l-4-7.1l1.2-7.1l1.9-7.1l-2.9-7.1l-0.9-7.1l0.1-7.1l2.5-6.4l6.6,1l8.9-3.4
						l-1.1,8.7l1,7.1l-1.3,7.1l-2.7,7.1l2.9,7.1l-0.3,7.1l1.1,7.1l1,7.1l-3.6,7.1l1.5,7.1l-0.9,7.1l2.7,7.1l-0.6,7.1l1.5,7.1
						l-0.3,7.1l-3.8,7.1l3,7.1l-1.1,7.1l-1.1,7.1l2.9,7.3L644.1,213.9z"/>
					<path class="st6" d="M691.6,213.9l-6.1,1l-7-0.1l1.9-6.7l-0.5-7.1l-1.4-7.1l1.1-7.1l-0.5-7.1l-1.2-7.1l-1.3-7.1l1.5-7.1
						l0.1-7.1l-0.9-7.1l1.1-7.1l1.8-7.1l-1.3-7.1l2-7.1l-4-7.1l1.2-7.1l1.9-7.1l-2.9-7.1l-0.9-7.1l0.1-7.1l2.5-6.4l6.6,1l8.9-3.4
						l-1.1,8.7l1,7.1l-1.3,7.1l-2.7,7.1l2.9,7.1l-0.3,7.1l1.1,7.1l1,7.1l-3.6,7.1l1.5,7.1l-0.9,7.1l2.7,7.1l-0.6,7.1l1.5,7.1
						l-0.3,7.1l-3.8,7.1l3,7.1l-1.1,7.1l-1.1,7.1l2.9,7.3L691.6,213.9z"/>
				</g>
			</g>
		</g>
	</g>
</g>
<rect x="143" y="269.3" class="st7" width="443" height="75"/>
<text transform="matrix(1 0 0 1 241.1719 291.5398)" class="st8 st9 st10">November 2020</text>
</svg>
