<svg id="Layer_1" data-name="Layer 1" xmlns="http://www.w3.org/2000/svg" viewBox="0 0 693.04 289.61"><defs><style>.cls-1{isolation:isolate;}.cls-2,.cls-3,.cls-5,.cls-6,.cls-7{fill:none;}.cls-2,.cls-6{stroke:#231f20;}.cls-2{stroke-miterlimit:10;}.cls-2,.cls-7{stroke-width:3px;}.cls-3{stroke:#ed1c24;stroke-width:13px;}.cls-4{fill:#006838;}.cls-5{stroke:#e41e26;}.cls-5,.cls-6{stroke-width:10px;}.cls-7{stroke:#f7941d;}.cls-8{font-size:30px;fill:#efe2d6;font-family:Montserrat-SemiBold, Montserrat;font-weight:600;}.cls-9{letter-spacing:-0.02em;}.cls-10{letter-spacing:0em;}.cls-11{letter-spacing:-0.01em;}.cls-12{letter-spacing:0em;}</style></defs><title>issueViiCover3_jazz</title><g class="cls-1"><path class="cls-2" d="M36.36,221l-9-4.43-5.45.87-2.15-5.35,2-7.24-3.81-7.25-.2-7.25L21,183.08l-3.65-7.25-.25-7.25,5.41-7.25-2.3-7.25,2.36-7.25-3.25-7.25-1.38-7.25,2.34-7.25-3-7.25,2-7.25-1.91-7.25,3.17-7.25L17.1,88.82l.18-7.25,1.24-7.26.33-8.48,8.54-.58,9.29-.18-4,9.23,2.12,7.25.93,7.25L35.14,96l1.49,7.25.23,7.25.8,7.25L31.75,125l4.35,7.25-.94,7.25,2.47,7.26,0,7.25-2.26,7.25L37,168.55l-3.9,7.25L37,183.05l-.48,7.25,0,7.25-3.43,7.26-.92,7.52Z" transform="translate(-10.13 -54.68)"/><path class="cls-2" d="M59.41,213.62l5.23-7.46-.1-7-3-7.12L68,199.36l10.42.77,8.91,2.4,8.06,4.23,6.76-4.25,6.19-1.89,8.93.94,2.35-6.86,4.53-5.61-2.7-6.93-1.88-5.06.64-5.75-8.33-6.16-2.95-5.29-5.83-1.69-4-6.42-7.67-.59L85.23,147l-5.38-5.31-5.47-4.24-4.88-5-4.83-5.13,1.67-8.13-3.92-6.53-1.5-7.53,1-6.25-.27-6.57,2.1-6.25,3.81-7.77,10-1.57,4-8,7.85-2.21,7.55-4.38,8.51-.67,7,2.55,7.25-.84,5.88,5.5,9.13.72-.44,7.21,0,6.69-3.43,6.07-3.44-6-7.74-2.43-8-.37-7.7.71L94.85,84l-10.26.3-4.77,8.8-4.27,4.6,3.75,5.93,1.83,9.23,2.29,9.55L87.71,126l5.87,1.17,4.86,5,5.26,4.49,7.06,3.09,5,6.11,7.06,2.63,5.46,4.87,1.81,7.2,2.92,6,4.47,6.54,1.32,7.75-3,6.35,2.18,7-2.4,6.4-3.9,7.56-6.85,5.12-7.64,2.86-7.35,2.61-7.89,4.59-8.79-.14-7.48-.9-8.77-2.73-7.76-4.83Z" transform="translate(-10.13 -54.68)"/><path class="cls-2" d="M154.35,213.62l5.22-7.46-.1-7-3-7.12,6.46,7.33,10.43.77,8.9,2.4,8.07,4.23,6.75-4.25,6.2-1.89,8.93.94,2.35-6.86,4.53-5.61-2.7-6.93-1.89-5.06.64-5.75-8.32-6.16-2.95-5.29L198,158.21l-4-6.42-7.67-.59L180.16,147l-5.37-5.31-5.48-4.24-4.87-5-4.83-5.13,1.66-8.13-3.92-6.53-1.49-7.53.95-6.25-.26-6.57,2.09-6.25,3.82-7.77,10-1.57,4-8,7.86-2.21,7.54-4.38,8.51-.67,7,2.55,7.24-.84,5.88,5.5,9.14.72-.44,7.21,0,6.69-3.44,6.07-3.43-6-7.75-2.43-7.95-.37-7.71.71L189.78,84l-10.26.3-4.76,8.8-4.28,4.6,3.76,5.93,1.82,9.23,2.3,9.55,4.28,3.61,5.88,1.17,4.85,5,5.27,4.49,7.06,3.09,5,6.11,7.07,2.63,5.45,4.87,1.81,7.2,2.93,6,4.47,6.54,1.32,7.75-3,6.35,2.18,7-2.41,6.4-3.9,7.56-6.85,5.12-7.63,2.86-7.35,2.61-7.89,4.59-8.8-.14-7.47-.9-8.77-2.73L164,214.8Z" transform="translate(-10.13 -54.68)"/><path class="cls-2" d="M351.39,157.74l-5.34,6.88-.37,6.84,2.09,7.26-3.32,6.41,1.73,7.84-2.62,6.79-6.39,4.48-1.73,7.88-5.64,5L321,215.76l-5.66,4.4L308.18,219l-6.71,3.67-7.54.95-6.82-3.78L279,220l-5.36-5.82-6.82-3.92-1.66-8-6.38-5.19-2.24-7.27-.41-7.58-1.22-7.3-.64-7.37-1.17-7.37L258,153l-2.16-7.17-1-7.16.58-7.16L254,124.37l-.24-7.16-.81-7.16,6-7.17-4.42-7.16,1-7.16L253,81.39l0-7.17,2.51-7.66,7.81-1.79,6.16,3.49,3.49,5.86-.49,7.08,0,7.07-3.49,7.07-.95,7.07.74,7.07,1.31,7.07,1.19,7.08,1.51,7.07-4.07,7.07,2.14,7.08-2.47,7.08,4.26,7.08.4,7.06-2.77,7.47,1.51,7.17,4.52,6.09,1.87,7,4,6.3,6.82,3.12,6.5,4.27,7.6-1.77,6.78-1.2,7.58.35,6.3-4.07,2.76-7.05,2.52-6.32,4.67-5.81-2-7.43.82-6.77-.33-6.85,1.3-7.19,1.66-7.2.14-7.19-2.94-7.2.67-7.19.3-7.19,1-7.2,2.2-7.19-1.91-7.2-.74-7.19,1.82-7.2-.9-7.2-1.2-8,8.1-1.11,6,3.29L350,74l2.11,7-.49,7-4.45,7,1.11,7,2,7,.81,7-.58,7-4.3,7,.66,7,1,7,.73,7Z" transform="translate(-10.13 -54.68)"/><path class="cls-2" d="M448.29,220.89l-9.08-4.34-7.36.1-7.37,2.95-7.37-2-7.36,3.81-7.37.19-7.37-3.2-7.38,3.65-9.48-.62,4.51-9.4-2.3-7.24,2.36-7.25-3.25-7.25-1.38-7.25,2.34-7.25-3-7.25,2-7.25-1.91-7.25,3.17-7.25-3.44-7.25.18-7.25,1.24-7.25-.18-7.25-.08-7.25-1-7.25,4.84-7.25-2.12-7.26-.93-7.25.57-7.26-.95-8.59,8.42-.81,7.06-.8L401.43,70l7.05-4.36,7.06,1,7-2.48,7.07,0,7.06,2.26,8.76-.81-3.35,9.55,3.38,9.56-8.7.31-7,0-7-3.43-7-.93-7,.72-7,1.29-6.57,1L397,90.42l-4,7.24,2.1,7.23-2.43,7.24,4.18,7.23.21,7.24-3,8.17,8.43.23,7.53-2.4,7.53,1.58,7.54,1,7.53-1.13,5.84,1.34,1.79,6.42.4,8.48-8-2.42-7.53-.06-7.53,2.49L410,151l-7.53-2.64-6.27,2.75.37,6.35.52,7.61-1.28,7.61-1.63,7.62-.14,7.61,2.89,7.62-1,6.69,6.41-.11,7.37,1,7.38,2.16,7.38-1.88,7.38-.72,7.38,1.78,7.08-1,1.39,7.69Z" transform="translate(-10.13 -54.68)"/><path class="cls-2" d="M614.41,65.56l-6.54,7.6-2,7,.72,7.78-4,6.34,1.54,8-1.91,7-5.18,6,1.39,8-1.87,7-7.28,5.35.09,7.59L585,149.37l1,7.87-.78,7.32-4.35,6.24.75,7.79-4,6.33-.28,7.48-5.14,6,1.18,7.92-2.28,6.88-3.9,7.39-8.94.45-9.08-.23-3.72-7.61,2.59-8.3-4.1-6.31L541,191.93l-1.52-7.08L536,178.36l-2.29-6.86-2.83-6.69,3.61-8.61-6.24-5.68-1.16-7.19-4.43-6.21-2.09-6.92.11-7.56-3.57-6.47,1.67-8-5.83-5.8-1.6-7.06-2-6.93,1.22-7.9-1.17-7.2-3.15-4.95,6.76-.66,8.49-1.06,3.7,7-1.81,8.2,4.06,6.52-.3,7.77,6.06,6,2.23,7-1.26,8,2.18,7.07,4.34,6.43.52,7.54,1,7.39,3.12,6.79.05,7.67,4.35,6.44,2.6,6.94-.48,7.84,2,7.12,3.94,6,1.66,6.59.66.67L558,194l1.92-6.88,1.58-7.23,3.31-6.73,3.64-6.63,2.21-7.05-.69-7.9,2.71-6.9,2.36-7,3-6.8,4.16-6.48.27-7.62,1.38-7.29,3.8-6.59,1.23-7.34.63-7.51,1.33-7.31,5.7-6-.29-8.4,8.19-2.23Z" transform="translate(-10.13 -54.68)"/><path class="cls-2" d="M646.9,221l-9-4.43-5.44.87-2.16-5.35,2-7.24-3.81-7.25-.2-7.25,3.21-7.25-3.65-7.25-.25-7.25,5.42-7.25-2.3-7.25,2.35-7.25-3.25-7.25-1.38-7.25,2.35-7.25-3-7.25,2-7.25-1.9-7.25,3.17-7.25-3.44-7.26.18-7.25,1.24-7.26.32-8.48,8.54-.58,9.29-.18-4,9.23,2.12,7.25.93,7.25L645.68,96l1.49,7.25.24,7.25.8,7.25L642.29,125l4.35,7.25-.94,7.25,2.48,7.26,0,7.25-2.26,7.25,1.57,7.25-3.9,7.25,3.94,7.25-.49,7.25,0,7.25-3.43,7.26-.91,7.52Z" transform="translate(-10.13 -54.68)"/><path class="cls-2" d="M694.46,221l-9-4.43-5.45.87-2.15-5.35,2-7.24L676,197.58l-.2-7.25,3.21-7.25-3.65-7.25-.25-7.25,5.41-7.25-2.29-7.25,2.35-7.25-3.25-7.25L676,132.33l2.34-7.25-3-7.25,2-7.25-1.91-7.25,3.17-7.25-3.44-7.26.18-7.25,1.24-7.26.33-8.48,8.54-.58,9.29-.18-4,9.23,2.12,7.25.93,7.25L693.24,96l1.48,7.25.24,7.25.8,7.25L689.85,125l4.35,7.25-1,7.25,2.48,7.26,0,7.25-2.26,7.25,1.58,7.25-3.9,7.25,3.93,7.25-.48,7.25,0,7.25-3.43,7.26-.92,7.52Z" transform="translate(-10.13 -54.68)"/></g><g class="cls-1"><path class="cls-3" d="M34.5,219.1l-7.11.43-6-1.59,1.14-5.87-3.18-7.24-1.11-7.25,2.66-7.25,1-7.25L23,175.83,19,168.58l3.86-7.25-5.3-7.25,3-7.25L23,139.58l-5-7.25-.86-7.25,2-7.25,3.75-7.25L21,103.33l.49-7.25,0-7.26L18.6,81.57l-.09-7.26,2.82-6,6.06.16,6.34-.44-1.9,6.24,4.91,7.25L34.46,88.8,35.24,96l-2.35,7.25,4.26,7.25-4.35,7.25L32.57,125l-.76,7.25.37,7.25L37,146.8l.32,7.25-2.26,7.25L37,168.55l-3.05,7.25,1.15,7.25,2.27,7.25-4.68,7.25,1.39,7.26,2.87,7.29Z" transform="translate(-10.13 -54.68)"/><path class="cls-3" d="M62.08,213.1l-.52-6.94,2.21-7,.4-6,5.08,4.17,9,3.16,8.36,5.32,8.73,2.06,7.64.56,6.06-5.93,8.44-.61-.3-8.42,4.93-4.74,3.12-6.52-5.66-5.07-2.35-4.31-4.07-9-2-6.83-6.07-1.91L99.58,151l-5.8-3.63L86,145.89l-6.13-4.17-3-6.94-4.78-4.44-3.65-5.15-1.28-6.27L60.42,113l1.79-7.83-.44-6.27,3.56-5.52L63.44,86l8.06-4.58L77,76.1l6.61-3.46,6.69-3.18L97,62.78l8.42-1,7,2.54,7.27-1.19,6.15,4.65,6.93,2,2.36,6.78-4.84,6.69,1.49,6.45-6.78-2-6.66-2.66-6.38-6.76-8-.41-9.53,4.26-9.66,2.3L81.59,94l-1.42,4.6-3.79,5,5.34,9,4.85,6.66.34,7.76,5.91,1.33L97.27,134l7.59.69,7.29,2.93,4.92,6.42,7.66,2.35,3.62,6.86,5.84,4.8.28,7.9,5.53,6.72.47,8.17-1.63,6.68-1,6.69-2.18,6.48-3.54,7.88L122.88,211l-5.37,6-7.22,3.73-8.6,1.1-8.59,2.06-7.63-.36-9.33-.94L69.43,214Z" transform="translate(-10.13 -54.68)"/><path class="cls-3" d="M157,213.1l-.52-6.94,2.21-7,.39-6,5.08,4.17,9,3.16,8.37,5.32,8.73,2.06,7.64.56,6.05-5.93,8.44-.61-.3-8.42,4.94-4.74,3.11-6.52-5.66-5.07-2.34-4.31-4.08-9-2-6.83L200,155.08,194.51,151l-5.8-3.63-7.79-1.47-6.14-4.17-3-6.94L167,130.34l-3.65-5.15-1.29-6.27L155.35,113l1.8-7.83-.45-6.27,3.56-5.52L158.37,86l8.07-4.58,5.46-5.29,6.6-3.46,6.7-3.18,6.72-6.68,8.41-1,7,2.54,7.27-1.19,6.15,4.65,6.93,2L230,76.61l-4.84,6.69,1.48,6.45-6.77-2-6.67-2.66-6.37-6.76-8-.41-9.53,4.26-9.65,2.3L176.52,94l-1.41,4.6-3.79,5,5.34,9,4.85,6.66.33,7.76,5.91,1.33,4.46,5.73,7.59.69,7.29,2.93,4.92,6.42,7.66,2.35,3.62,6.86,5.84,4.8.28,7.9,5.53,6.72.46,8.17-1.62,6.68-1,6.69-2.19,6.48-3.54,7.88L217.81,211l-5.37,6-7.21,3.73-8.61,1.1L188,223.84l-7.62-.36-9.33-.94L164.36,214Z" transform="translate(-10.13 -54.68)"/><path class="cls-3" d="M348.71,157.74l.37,7-2.66,6.79L345,178.27l1.8,7.43-.92,7.16-5.2,5.47-4.35,5.32-5,4.36-2.59,7.52-7.87-.11L316,222.75,308.4,221l-6.93-2.09-7.54,4.67-7.7-.64-6.41-4.64-3.95-7-6.27-3.44L266,201.79l-3.07-6.37-5.07-6-1.71-7.22,2.36-7.68-.92-7.14-.2-7.22,1.51-7.16-5-7.17,2.31-7.16-.79-7.16,2.39-7.16-4.33-7.16,4.42-7.16.23-7.17.77-7.16-.36-7.16-4.92-7.17-.32-7.17,2.4-7.42,7.58-2.06L270,67.62l.92,6.5,2.31,7.08-4.76,7.07,1.42,7.07,2.91,7.07.11,7.07-5.18,7.07.1,7.08,3,7.07-2,7.07,3.88,7.08.2,7.08L269.68,159l3.91,7,.93,6.91L270.46,181l4.48,6.3,1.34,7.71,7.31,3.44L290,201l5.87,4.36L303,203l6.76,1.46,5.59-3.81,7.27-1,1.69-7.27,3.1-5.56,3.22-5.91,1.08-6.69.58-6.79-.8-6.84,4.93-7.19-2.16-7.2-.94-7.19.58-7.2-1.51-7.19-.24-7.19-.82-7.2,6-7.19L333,95.85l1-7.19-2.52-7.2,0-7.2,2.5-7.7,7.81-1.79,6.17,3.5L351.34,74l-.49,7,0,7-3.49,7-.94,7,.73,7,1.31,7,1.19,7,1.51,7-4.06,7,2.14,7-2.47,6.93Z" transform="translate(-10.13 -54.68)"/><path class="cls-3" d="M446.35,219.12l-7.14.41-7.36-2.15-7.37-.56L417.11,220l-7.36,1.11-7.37-2.65L395,217.41l-7.38-1.07-8.14,3.76,3.54-8-5.3-7.24,3-7.25,2.42-7.25-5-7.25-.86-7.25,2-7.25,3.75-7.25-1.87-7.25.49-7.25,0-7.25-2.88-7.25-.09-7.25,3.36-7.25-.37-7.25,0-7.25,1.48-7.25-4.91-7.26,2.28-7.25-.78-7.26,1.83-6,5.74-3.71L394.37,69l7.06.23,7.05.76,7.06-.36,7-4.84,7.07-.31,7.06,2.25,8.78-1.15L443,75.12l1.06,8.31-7.26,2.4-7-4.68-7,1.39-7,2.87-7,.11-7-5.1-8.92.91,2.2,9.09-2,7.24,3.81,7.23.2,7.24L394,119.36l3.66,7.24-.68,5.07,5.44,4.58L410,134l7.53,2.35,7.54-3.25,7.53-1.38L440,134l2.94,7.9-2.24,8.55-8.1,2.15-7.53-3.16-7.53,3.43-7.54-.18-7.53-1.23-6.32-.33.58,6.4,1,7.61-4.85,7.61,2.12,7.62.93,7.61-.57,7.62,1,6.3,6-.82,7.37-.8,7.38,5.92,7.38-4.36,7.38.95,7.38-2.48,9.55.93-1.49,10.06Z" transform="translate(-10.13 -54.68)"/><path class="cls-3" d="M612.39,67.25,610.72,74l-4.16,6.29-2.64,6.76.94,7.84-1,7.24-4.65,6.15-3.11,6.62-3.13,6.61,1.8,8.1-5.8,5.8,3,8.46-5,6-4.42,6.22,2.71,8.38-1.28,7.17-4,6.34-5.7,5.82-.32,7.47-2.57,6.78-2.12,6.92.64,7.77-2.63,7.79-8.95-3.1-7.25.62L549.44,212l-.64-7.34L542,199.15l.12-7.57-2.82-6.7.2-7.59-6.15-5.7,2.11-8.17-1.85-7-1.33-7.14-2.41-6.82-6.7-5.54-2.36-6.83.1-7.57L517,116.17l.86-7.79-3.16-6.59-4.24-6.28,2.43-8.26-3.4-6.52-4.81-6.11L503,65.52l9.91,4.31,6.63-.58,3.83,4.83.15,7.64,5.7,6,2.23,7-1.05,8,5.55,6.09,2.27,7-3.17,8.59,4.25,6.46-.22,7.76,5.16,6.2,3.36,6.72-.22,7.75,4.91,6.28.09,7.66,3.87,6.58-1,8,4.91,6,.78,6.63-3.83.3.94-6.87,1.7-6.94,1.13-7.36,6.73-5.72,0-7.69,1.19-7.35,2.63-6.92.65-7.51,1.85-7.16L575.3,130l7.75-5.42L581,116.31l3-6.83-.3-7.78,2.06-7.1L590,88.15l.57-7.54,5.82-6-.83-9.43,9.25.06Z" transform="translate(-10.13 -54.68)"/><path class="cls-3" d="M645.05,219.1l-7.12.43-6-1.59,1.14-5.87-3.18-7.24-1.12-7.25,2.66-7.25,1-7.25,1.07-7.25-4.08-7.25,3.86-7.25-5.29-7.25,3-7.25,2.41-7.25-5-7.25-.86-7.25,2-7.25,3.76-7.25-1.87-7.25.48-7.25,0-7.26-2.88-7.25-.09-7.26,2.83-6,6,.16,6.34-.44-1.9,6.24,4.91,7.25L645,88.8l.79,7.24-2.36,7.25,4.27,7.25-4.35,7.25-.23,7.25-.76,7.25.36,7.25,4.83,7.26.32,7.25-2.25,7.25,1.92,7.25-3,7.25,1.14,7.25,2.27,7.25-4.68,7.25,1.4,7.26,2.86,7.29Z" transform="translate(-10.13 -54.68)"/><path class="cls-3" d="M692.6,219.1l-7.11.43-6-1.59,1.14-5.87-3.18-7.24-1.11-7.25,2.66-7.25,1.05-7.25,1.06-7.25-4.07-7.25,3.86-7.25-5.3-7.25,3-7.25,2.42-7.25-5-7.25-.86-7.25,2-7.25,3.75-7.25-1.87-7.25.49-7.25,0-7.26-2.88-7.25-.09-7.26,2.83-6,6,.16,6.34-.44-1.9,6.24,4.91,7.25-2.28,7.25.78,7.24L691,103.29l4.26,7.25-4.35,7.25-.23,7.25-.76,7.25.36,7.25,4.84,7.26.32,7.25-2.26,7.25,1.92,7.25L692,175.8l1.15,7.25,2.27,7.25-4.68,7.25,1.39,7.26L695,212.1Z" transform="translate(-10.13 -54.68)"/></g><g class="cls-1"><path class="cls-4" d="M34.61,219.22,27.39,219l-5.89-1.1-.45-5.8-1.6-7.24,1.17-7.25-1-7.25.57-7.25-.91-7.25,2-7.25L21,161.33l.25-7.25.86-7.25-1.39-7.25,1.3-7.25L22,125.08l-2.27-7.25-2.09-7.25.89-7.25.13-7.25.71-7.26,2.79-7.25-4.62-7.26.81-9,9.05-.88,8.87,1L34.47,74.3l3.19,7.25L34.79,88.8,32.31,96l2.48,7.25-1.41,7.25L37,117.79,32.62,125l4.31,7.25-.77,7.25L33,146.8l1.68,7.25-2.09,7.25.84,7.25L37,175.8l-4,7.25,1,7.25-.6,7.25,2.13,7.26-2.85,7.24Z" transform="translate(-10.13 -54.68)"/><path class="cls-4" d="M61.92,213.13l.21-7,1.75-7-1.16-6.62,6.49,4.8,8.19,5.39,9.5,1.73L95.36,206l7.06-1.43,7.53.1,6.28-4.19,4.37-5.22,3.13-6.23-.78-6.85.79-5.89-1.94-5.71-8.18-7.21-5.76-2.09-4.15-4L98,153.45l-5.4-4.23L88,142.84l-8.77-.3L73.87,138l-5-5-3.66-6-.61-7.17-5.11-6.74,2.39-8,2.91-5.9-1.35-6.41,3.51-5.19,1.11-8.94,8.88-2.67L81.08,68l8-2.45,8.58,1.33,7.79-2.33,6.81,2.37,6.86-.12,7.68-1.91,3.79,5.47,1,6.28-.61,6.69,2.15,7-5.92-6.52-8-1.28-7.59-1.11-7.59-2.7-10.24.72-7.5,7-4.89,7.43-4.35,4.1-1.62,5.64.93,11.28,8.92,5.76,1.5,6.66L94.31,126l4,6.28,4.54,5.7,9.24-.3,6.88,3.74,4.43,6.37,2.09,7.83L131,160l2.59,6.34,2,7.1,3.56,7.43-.25,6.68-4.54,5.79-1.7,6L128.68,206l-6.34,4.3-3.94,8.47-8.45.68-8.25,2.44L93.1,220l-7.67,3.8-8.09-6.12-8.24-2.89Z" transform="translate(-10.13 -54.68)"/><path class="cls-4" d="M156.86,213.13l.21-7,1.75-7-1.16-6.62,6.49,4.8,8.19,5.39,9.5,1.73L190.3,206l7.06-1.43,7.53.1,6.28-4.19,4.37-5.22,3.12-6.23-.78-6.85.8-5.89-1.94-5.71-8.19-7.21-5.76-2.09-4.15-4L193,153.45l-5.41-4.23L183,142.84l-8.76-.3L168.81,138l-5-5-3.66-6-.61-7.17-5.12-6.74,2.4-8,2.9-5.9-1.34-6.41,3.51-5.19L163,78.73l8.88-2.67L176,68,184,65.52l8.58,1.33,7.78-2.33,6.82,2.37,6.85-.12,7.69-1.91,3.78,5.47,1,6.28-.62,6.69,2.15,7-5.91-6.52-8-1.28-7.59-1.11-7.6-2.7-10.23.72-7.5,7-4.9,7.43-4.34,4.1-1.62,5.64.93,11.28,8.92,5.76,1.5,6.66,7.64-1.25,4,6.28,4.55,5.7,9.23-.3,6.89,3.74,4.42,6.37,2.1,7.83,5.47,4.36,2.59,6.34,1.95,7.1,3.56,7.43-.25,6.68-4.54,5.79-1.69,6L223.61,206l-6.33,4.3-3.94,8.47-8.45.68-8.25,2.44L188,220l-7.66,3.8-8.1-6.12L164,214.77Z" transform="translate(-10.13 -54.68)"/><path class="cls-4" d="M348.87,157.74l-.35,7-2.2,6.81.18,7,.22,7.18-3.12,6.38-1.76,6.84-4,5.77-3.79,6-6.61,2.92-5.82,3.5-6.53,2-6.81.34-6.76,1.77-7-1.73-6.85-1.31-7.48-.42-7.52-2.25-4.89-6-4.22-6.25-2.58-7,.4-7.73-6.17-6.09-1-7.41-.74-7.4.26-7.41,2.49-7.16-3.25-7.17,2.92-7.16,2.52-7.16-2.53-7.16,1.44-7.16-3.7-7.16,4.47-7.17-4.38-7.16.78-7.16,3.2-7.17-1.71-7.17,1.48-5.64,5.83-.24,8.9-2.92-3.41,8.7,1,7.08-.6,7.07,2.16,7.07-2.9,7.07,1.89,7.07.51,7.07-2.17,7.08L268,130.7l3.24,7.07,1.13,7.08-2.7,7.08L268.63,159l-.87,7.38,4.83,6.82-2.49,7.9,7.31,5.2.54,7.61,3.14,7.37,8.87-.23,6.49,1.16,6.59,2.63,7.44,3.15,6.47-4.06,6.33-3.58,4.78-5.52.63-7.5,2-6.43,4.65-6.19.32-7.08.17-7,1.5-7.19-5-7.2,2.32-7.19-.8-7.2,2.39-7.19-4.33-7.19,4.42-7.2.24-7.19.77-7.2L337,88.66,332,81.46l-.32-7.2,2.4-7.46,7.58-2.06,6.79,2.89.92,6.4,2.31,7L347,88l1.41,7,2.92,7,.11,7-5.19,7,.1,7,3,7-2,7,3.87,7,.2,7Z" transform="translate(-10.13 -54.68)"/><path class="cls-4" d="M446.47,219.22l-7.26-.25-7.36-1.69-7.37,1.05-7.37,1.61-7.36-1.18-7.37,1-7.37-.57-7.38.91-6.52-1.63.11-6.39.25-7.24.86-7.25-1.39-7.25,1.3-7.25-.05-7.25-2.27-7.25-2.09-7.25.89-7.25.13-7.25.71-7.25,2.79-7.25-4.62-7.25.09-7.25-.17-7.25.42-7.25,2.44-7.25-3.19-7.26,2.87-7.25,2.48-7.26L380.21,67l7.1,1.39,7.06-3.63,7.06,4.39,7.05-4.31,7.06.77,7,3.14,7.07-1.68,7.06,2.09,6.11-1.27L446,75.12,442.42,82l-5.61.34-7-.59-7,2.12-7-2.85-7,1.85-7,.51-8.38-1.54-1.11,8.57,3.18,7.24,1.11,7.23-2.66,7.24-1,7.23-1.07,7.24,3.74,6.46,6.77,3.55,7.53-5.29,7.53,3,7.54,2.41,7.53-5,9.71.08-1.2,10.06-3,6.11-5.5,1-7.53-.49-7.53,0L410,151.34l-7.53.09-8.83-2.83-.15,8.89,0,7.61L392,172.71l4.91,7.62-2.28,7.61.78,7.62-1.83,8.9,8.69-3.71,7.37,4.35,7.38.23,7.38.76,7.38-.36,7.38-4.84,9.31.53-1.57,9.84Z" transform="translate(-10.13 -54.68)"/><path class="cls-4" d="M612.51,67.15l-2.32,6.72-3.72,6.42-1.11,7.23-.56,7.38-3.24,6.58-1.15,7.21-2.65,6.75-1.24,7.19-4,6.35-1.87,7-2.34,6.85-2.93,6.67-.79,7.32-3.34,6.54-2.06,6.94.07,7.58-.11,7.53-3,6.67L574,199l-2.79,6.72-4.77,6.12,1.31,9.62-9.5.35-9.54-.28L546,213l.28-7.62-5.12-6,.69-7.74.31-7.63-4.44-6.21-.71-7.32-5.54-5.88,2.15-8.18-6.19-5.69-1.33-7.14.95-7.82-3.68-6.44-.06-7.52-2.86-6.68L515,109.24l1.81-8.08-3-6.64-1.49-7.09-4.11-6.32.67-7.74L505,67.26l7.93-.41,7,1.79.74,6.2,5.09,6.22,3.11,6.8-.52,7.83,1,7.39,1,7.4,6,6-1.68,8.17,7.13,5.64-.87,7.93-.28,7.77,6.87,5.71,2.87,6.87.1,7.65L549,174.33l3.84,6.6,1.57,7.24,1.49,6.56,3.8,6.17-2.56,0,4.4-6.13,1.36-6.76,2-7.1,3.5-6.67-2.63-8.47,4.26-6.44,1.33-7.31,4.33-6.43-2-8.29,6.26-5.86,2.29-7,2.81-6.88,1.73-7.19-2.56-8.45L586,94.69l4.25-6.45.23-7.63,5-6.24,1.12-7.62,8.13-2.34Z" transform="translate(-10.13 -54.68)"/><path class="cls-4" d="M645.16,219.22l-7.23-.25-5.89-1.1-.44-5.8L630,204.83l1.18-7.25-1-7.25.56-7.25-.91-7.25,2-7.25-.25-7.25.25-7.25.86-7.25-1.38-7.25,1.29-7.25-.05-7.25-2.27-7.25-2.09-7.25.89-7.25.13-7.25.71-7.26,2.79-7.25-4.61-7.26.81-9,9-.88,8.88,1L645,74.3l3.19,7.25-2.86,7.25L642.85,96l2.49,7.25-1.41,7.25,3.63,7.25-4.4,7.25,4.31,7.25-.76,7.25-3.14,7.26,1.68,7.25-2.09,7.25.83,7.25,3.5,7.25-4,7.25,1,7.25-.59,7.25,2.13,7.26-2.85,7.24Z" transform="translate(-10.13 -54.68)"/><path class="cls-4" d="M692.71,219.22l-7.22-.25-5.89-1.1-.44-5.8-1.61-7.24,1.18-7.25-1-7.25.57-7.25-.91-7.25,2-7.25-.25-7.25.25-7.25.86-7.25-1.39-7.25,1.3-7.25,0-7.25-2.27-7.25-2.09-7.25.89-7.25.13-7.25.71-7.26,2.79-7.25-4.62-7.26.81-9,9-.88,8.87,1-1.8,8.81,3.19,7.25-2.86,7.25L690.41,96l2.48,7.25-1.41,7.25,3.63,7.25L690.72,125l4.31,7.25-.77,7.25-3.14,7.26,1.68,7.25-2.09,7.25.84,7.25,3.5,7.25-4,7.25,1,7.25-.6,7.25,2.13,7.26-2.85,7.24Z" transform="translate(-10.13 -54.68)"/></g><g class="cls-1"><path class="cls-5" d="M37.45,222.08l-7.22.94-7.14-1L21.14,215l2.33-7.25-1.76-7.25,1.11-7.25L22,186l-1.41-7.24,3.35-7.25-2.4-7.26L22.79,157l.4-7.25-1.74-7.25L20,135.2l5.3-7.25.15-7.25L21,113.45l.1-7.25L19.9,99l4.78-7.26-2-7.25.37-7.26L22,69l8.25.47,8.53-.74-1.47,8.45L35.6,84.42l3.23,7.25-1.36,7.25-.53,7.25.44,7.24.21,7.25-.79,7.26.18,7.25,1.09,7.25,1.5,7.25-4.8,7.25,3.83,7.25L35,171.42l2.52,7.25,1.18,7.25-3.18,7.25.1,7.26,2,7.25-1.56,7.25Z" transform="translate(-10.13 -54.68)"/><path class="cls-5" d="M64.78,216l-1-7,1.12-7-2-7.69,8.5,6.92,9.47,2.64,8.78,3.78,8.54.06,6.81-1.92,7.69,1.52,4.72-5.8,4.81-4.06,2.53-6L123.59,185l-1.94-4.92,3.45-6.9-6.56-9.15L111,163.7l-4.62-3.38L100,157.71l-3.19-7.79-7.26-2.24-5.81-4.52L77.51,140l-4.1-5.55-4.92-4.81-1-6.91-.13-7.5L63.48,108l1.76-6.19L67,95.92,68.71,90l4-7,6.15-5.18,6.38-4.47,6.88-4.07,7.71-3.38,8.37,4.33,7-3.75L121.69,71l7.18-1,7.44,2.54-3.25,6.94.1,6.69,2.1,6.71-5.63-5.68-7.73-1.72-7.47-1.83-7.67-2.24-9.85,2.33L89,89.23l-7,6.33-.89,5.52L80,106.45l2.67,9.78,3.66,8.94,4.34,3.51L95,132.13l5.29,4.43,6.59,2.35,5.7,5.2,6.22,4.29,7,2.77,6.67,3.89,3.51,6.51,3.11,6.56,1.42,7.83-2.27,7.8,4.42,6.78-1.28,6.76L139.27,204l-4.79,7.16-7.6,4.19-5.21,7.19-8.78.15-8.73-.89-8.22,3.07-7.15-2-9.65,2-7.21-7.08Z" transform="translate(-10.13 -54.68)"/><path class="cls-5" d="M159.72,216l-1-7,1.12-7-2-7.69,8.49,6.92,9.48,2.64,8.78,3.78,8.53.06,6.82-1.92,7.69,1.52,4.71-5.8,4.82-4.06,2.52-6L218.52,185l-1.93-4.92,3.45-6.9-6.56-9.15L206,163.7l-4.63-3.38-6.4-2.61-3.19-7.79-7.27-2.24-5.8-4.52L172.44,140l-4.1-5.55-4.91-4.81-1-6.91-.13-7.5L158.42,108l1.76-6.19,1.72-5.93L163.65,90l4-7,6.15-5.18,6.38-4.47,6.88-4.07,7.71-3.38,8.37,4.33,7-3.75L216.63,71l7.17-1,7.45,2.54L228,79.48l.1,6.69,2.11,6.71-5.63-5.68-7.74-1.72-7.46-1.83-7.67-2.24-9.86,2.33-7.92,5.49-7,6.33-.9,5.52-1.09,5.37,2.66,9.78,3.67,8.94,4.34,3.51,4.36,3.45,5.3,4.43,6.59,2.35,5.7,5.2,6.21,4.29,7,2.77,6.68,3.89,3.51,6.51,3.11,6.56,1.42,7.83-2.27,7.8,4.42,6.78-1.28,6.76L234.21,204l-4.79,7.16-7.6,4.19-5.22,7.19-8.78.15-8.72-.89-8.22,3.07-7.15-2-9.65,2-7.21-7.08Z" transform="translate(-10.13 -54.68)"/><path class="cls-5" d="M351.7,160.61l.86,7L351,174.57l1.14,7.26-3.72,6.44-.26,7.26-3.77,6.1-2.82,6.55L338,214.7l-7.64,2-5,5.53-7.16,1.07-7,.83-7,2.14-7.63,1-6.11-6.7-6.3-2.58-8.51,0-5.42-5.4-5.41-5.61,1.14-8.76L261.9,192l-1.22-7.19-2.53-7,.31-7.39L257,163.05l2-7.16,1.72-7.16-3.28-7.17,1.37-7.16.55-7.16-.45-7.16-.21-7.16.8-7.16-.19-7.17-1.1-7.16-1.53-7.16,4.89-7.17L258,69.17l8.07,3.4L273.37,70l1.17,7-3.23,7.07.1,7.07,2.07,7.07-1.59,7.07,1.38,7.07-.2,7.08-1.72,7.07,1.06,7.07,1.64,7.07-1.2,7.08,1,7.08-.58,7.08,1.13,7.15-1.29,7.37,1.61,7.14,2,7.07,2.72,7.07,6,4.79L291,207.7l7.33,2.29,7.52-1.63,6.45-2.7,6.4-1.11,5.5-3.46,4.88-4.56,5.77-5-2.34-8,1.33-6.55.49-6.73.62-6.8,2.49-7.19-3.25-7.19,2.92-7.2,2.52-7.2-2.53-7.19,1.44-7.19-3.7-7.2,4.47-7.19L335,98.72l.78-7.19,3.19-7.2-1.7-7.2,1.48-5.68,5.83-.23,8.89-2.94L350,76.9l1,7-.6,7,2.16,7-2.9,7,1.88,7,.52,7-2.17,7-.58,7,3.24,7,1.13,7-2.7,7Z" transform="translate(-10.13 -54.68)"/><path class="cls-5" d="M449.3,222.08l-7.24.94-7.37-1.08-7.36,2L420,221.62l-7.37,1.77-7.37-1.11-7.37.86-7.37,1.41-6.68-3.07L381.7,215,383,207.7l.4-7.25-1.73-7.25L380.22,186l5.3-7.24.15-7.25-4.47-7.26.1-7.25-1.2-7.25,4.78-7.25-2-7.25.37-7.25-1.49-7.25.85-7.25-1.23-7.25,2-7.25,1.69-7.26-3.23-7.25,1.36-7.26.35-6.82,6.61-.25,7-.21,7.06.79,7.06-.19,7.05-1.08,7.06-1.5,7.06,4.8,7.06-3.83,5.11,2.75L446.55,78l.91,8.79L439.65,84l-7,.1-7,2-7-1.56-7,1.35-7-.19-8.45-1.07.47,8.65,1.61,7.23-1.18,7.23,1,7.24-.56,7.24.9,7.24-1.6,8.1,8.36.1,7.54.24,7.53.86,7.53-1.38,7.54,1.3,6.13-.66,1.75,6.69,1.43,9.69-9.3-.13-7.54-.13-7.53-.71-7.53-2.79-7.54,4.62-5.8-.81.88,5.89L400,168l-2.45,7.62,3.19,7.61-2.86,7.62-2.49,7.62,2.47,7.56,7.32,1.39,7.38-3.63,7.38,4.39,7.38-4.3,7.37.76,7.39,3.14,7.37-1.68-2.09,8Z" transform="translate(-10.13 -54.68)"/><path class="cls-5" d="M615.35,70l-1.19,7L611,83.69l-.18,7.5-4.33,6.24-.42,7.43-3.17,6.6-1.28,7.17-.76,7.33-5.31,6,.19,7.62-3.34,6.54-2.49,6.81-.44,7.43-.73,7.33L581.58,173l-2.25,6.88,2.17,8.22L579.29,195l-.95,7.27-6.68,5.54-.22,7.5-2.4,6.73-8,1.46-8.34-.93-3.42-6.82-.18-7.48-.44-7.4-5.15-6-.76-7.3-1.56-7.07-2.48-6.8-2.26-6.86-1.31-7.15-2.24-6.86-3.1-6.62-3.5-6.49,2.54-8.29-5.74-5.83,1.43-8-4.48-6.2-3.19-6.58,1-7.83-2.16-6.9-4-6.34-.56-7.38-3.4-6.4,8,.25,7,1.33L525,77.3,528.6,84l.91,7.43,3,6.83,1.49,7.25,2.91,6.85L537,120l2.28,7,1.8,7.16,1.21,7.34,3.36,6.72.79,7.46,2.09,7.09,4.22,6.47,4.05,6.53,1.18,7.35,1.92,7.15.87,6.95-1.72,7.45-.07-1.18,1.19-6.77,1.62-7,2.48-7,4.43-6.4-1-8,4.83-6.28,4.45-6.39-.3-7.79,3.43-6.69-1.41-8.12,6.3-5.84L583,118.94l2.82-6.87,5.09-6.2.47-7.57,4.08-6.49,1.28-7.33-1.28-8.08,5.27-5,6.84-.64Z" transform="translate(-10.13 -54.68)"/><path class="cls-5" d="M648,222.08l-7.21.94-7.15-1-2-7.06L634,207.7l-1.77-7.25,1.12-7.25L632.5,186l-1.4-7.24,3.34-7.25L632,164.2l1.29-7.25.4-7.25L632,142.45l-1.44-7.25,5.3-7.25.15-7.25-4.47-7.25.11-7.25L630.44,99l4.78-7.26-2-7.25.37-7.26L632.52,69l8.26.47,8.52-.74-1.46,8.45-1.69,7.25,3.22,7.25L648,98.92l-.53,7.25.43,7.24.22,7.25-.79,7.26.18,7.25,1.09,7.25,1.5,7.25-4.81,7.25,3.84,7.25-3.65,7.25,2.53,7.25,1.18,7.25L646,193.17l.1,7.26,2,7.25-1.57,7.25Z" transform="translate(-10.13 -54.68)"/><path class="cls-5" d="M695.55,222.08l-7.22.94-7.14-1-2-7.06,2.33-7.25-1.76-7.25,1.11-7.25-.86-7.25-1.41-7.24,3.35-7.25-2.4-7.26,1.29-7.25.4-7.25-1.74-7.25-1.43-7.25,5.3-7.25.15-7.25-4.47-7.25.1-7.25L678,99l4.78-7.26-2-7.25.37-7.26L680.08,69l8.25.47,8.52-.74-1.46,8.45-1.69,7.25,3.23,7.25-1.36,7.25-.53,7.25.44,7.24.21,7.25-.79,7.26.18,7.25,1.09,7.25,1.5,7.25-4.81,7.25,3.84,7.25-3.64,7.25,2.52,7.25,1.18,7.25-3.18,7.25.1,7.26,2,7.25-1.56,7.25Z" transform="translate(-10.13 -54.68)"/></g><g class="cls-1"><path class="cls-6" d="M34.84,219.44l-7.45-2.62-7.24,2.41-3.06-7.16.78-7.24L17,197.58l2.69-7.25-1.26-7.25L23,175.83l-1.5-7.25,1-7.25-2.32-7.25,1.39-7.25-3.63-7.25L19,132.33l-.23-7.25,3.34-7.25-2.87-7.25,2.62-7.25-.27-7.25-3.71-7.26.69-7.25,1.82-7.26-.12-7,7.11-2.21L36.8,65,32,74.3l1.5,7.25.4,7.25L32.52,96l4.74,7.25-1.2,7.25-2.16,7.25L36.83,125l-1,7.25,1.65,7.25-1.36,7.26-4,7.25,3.58,7.25L32,168.55l4.36,7.25-1,7.25L33.5,190.3l1.86,7.25-3,7.26,4.09,7.24Z" transform="translate(-10.13 -54.68)"/><path class="cls-6" d="M61.6,213.2l2.75-7-2.45-7-3-8.16,11.13,5,8.66,3.31,8.16,5.29,8.48-.36,7.63,4.12,7-3.47,7.18-3.31,2.32-6.86,3.55-5.79L120,182.16l.7-5.29L118.82,172l-3.48-10.45-6.46-1.63-3.3-5.63-5.93-3.43-7.82-.36L86,145.91l-5-5.77-5.2-4.22-6.44-3.3-4.85-5.17L67,119l-3.25-6.47-.93-7.33,1.73-5.92L61,92.17l3.48-5.71L70.6,80.7l3.58-8L81.64,69l7-4.76,8.49-.54,8.27,3.53,7-3.48,6.41,4.5,7.73-2.82L133,69.78l-1.87,6.83L133,83.3l-2.94,5.81-4.89-1.84-6.14-4.68L111.43,82l-7.51-1.6-9.15,3.25-9.35,1.74-4.67,8.18L77.9,98.13l.38,5.45,3,9.15,2.31,9.42,5.71,1.75,3.59,4.22,5.52,4,6.75,2,7.36,2.9,3.12,8.89,5.26,4.55,8.3,2,4.16,6,4.4,6.08-2.63,8.87,2.62,7.37-.71,6.49.36,6.77-3,6-3.18,7.78-7.2,4.48-7.45,2.67L110.37,221l-8.75.29-8.52,0-7.31-.13-8.93-1.48-8.29-3.52Z" transform="translate(-10.13 -54.68)"/><path class="cls-6" d="M156.54,213.2l2.75-7-2.46-7-3-8.16L165,196l8.66,3.31,8.16,5.29,8.48-.36,7.63,4.12,7-3.47,7.19-3.31,2.32-6.86,3.55-5.79-3.11-6.72.7-5.29L213.76,172l-3.49-10.45-6.45-1.63-3.3-5.63-5.93-3.43-7.82-.36-5.86-4.6-5-5.77-5.2-4.22-6.45-3.3-4.84-5.17,2.49-8.48-3.24-6.47-.93-7.33,1.73-5.92-3.59-7.08,3.48-5.71,6.15-5.76,3.57-8L176.57,69l7-4.76,8.5-.54,8.26,3.53,7-3.48,6.41,4.5,7.74-2.82,6.41,4.33L226,76.61,228,83.3,225,89.11l-4.89-1.84L214,82.59,206.36,82l-7.51-1.6-9.15,3.25-9.35,1.74-4.67,8.18-2.84,4.58.38,5.45,3.05,9.15,2.31,9.42,5.7,1.75,3.6,4.22,5.52,4,6.75,2,7.35,2.9,3.13,8.89,5.25,4.55,8.3,2,4.16,6,4.41,6.08-2.63,8.87,2.62,7.37-.71,6.49.36,6.77-3,6-3.18,7.78L219,212.41l-7.44,2.67L205.3,221l-8.74.29-8.53,0-7.3-.13-8.93-1.48-8.3-3.52Z" transform="translate(-10.13 -54.68)"/><path class="cls-6" d="M349.19,157.74l-2.86,6.89,1.93,7.08,2.21,7.45-2.2,6.9L347,193.27l-5.3,5.6-2.5,6.81-7.89,2.38-4.08,5.38L321,215.8l-5.67,4.42-7-.17-6.83,4-7.4-1.59-7.37-1.23-5.5-5.74-7.59-1.37-3.31-6.9-4.22-5.55-6.57-4.95-1.71-7.32.2-7.57L257,174.7l-2.88-7.14-1.16-7.38,5.81-7.16-1.52-7.17-.41-7.16,1.37-7.16-4.83-7.16,1.23-7.16,2.19-7.16-3-7.17,1.05-7.16-1.68-7.16,1.38-7.17,4.09-7.17-3.35-7.83,8,3.44,8.48-4-.53,8.26-1.86,7.08,1.89,7.07-3.05,7.07,4.16,7.07-1.93,7.07,1,7.07-1.1,7.08,2.05,7.07L270,137.77l1.79,7.08-1.13,7.08.88,7.08,1.63,7.05-2.69,7.44,3.74,6.59.92,7.15,3,6.57L284,198l6.26,2.38,5.13,7.26,7.62.83,6.55-5.13,6.18-1.87,4.54-4.43,8.05-2,1.52-7.22,2.48-6.49-.2-7.05,1.53-6.76-1.05-6.92,2-7.19,1.72-7.2L333.08,139l1.38-7.2.54-7.19-.45-7.19-.21-7.2.8-7.19-.19-7.2-1.1-7.19-1.53-7.2,4.89-7.2-3.59-8,8.07,3.4L349,67.11,350.14,74l-3.23,7,.1,7,2.07,7-1.59,7,1.38,7-.2,7-1.72,7,1.06,7,1.64,7-1.2,7,1,7Z" transform="translate(-10.13 -54.68)"/><path class="cls-6" d="M446.7,219.43l-7.49-2.61-7.36,2.38-7.37,3.09-7.37-.78-7.36.83-7.37-2.69L395,220.92l-7.38-4.5-6.39,1.9,1.38-6.25-2.32-7.24,1.39-7.25-3.63-7.25,1.15-7.25-.23-7.25,3.34-7.25-2.87-7.25,2.62-7.25-.27-7.25-3.71-7.25.69-7.25,1.82-7.25,0-7.25-2.3-7.25-1-7.25L383,96.08l-1.5-7.26-.4-7.25,1.34-7.26-4-9,8.87.43,7.06,2.16,7.06-2.93,7.05,1,7.06-1.65,7,1.36,7.07,4,7.06-3.57,5,2.71,3.68,6.27-1.16,8.47L436.81,82l-7,1.86-7-3-7,4.08-7-1.89-7,1-7.17-1,1.94,7.41-2.33,7.24,1.77,7.23L395,112.13l.87,7.23,1.4,7.24-3,8,8.22-2.12,7.53,1.29,7.53.4,7.54-1.74,7.53-1.43,5.78,4.54-.8,6.36,3.95,9.32-8.92.5-7.53,1.2-7.53-4.77-7.54,2-7.53-.37-6.6,1.09-.47,6.69,1.22,7.61-2,7.61L393,180.33l3.23,7.61-1.36,7.62-.36,8.06,7.83-.25,7.37-.21,7.38.79,7.38-.19,7.38-1.09,7.38-1.49,5.32,3.89,3.11,6.18Z" transform="translate(-10.13 -54.68)"/><path class="cls-6" d="M612.76,67l-4.63,6.29.17,7.61.85,7.82-2.85,6.69L605,102.52l-4.68,6.14-.89,7.29L593,121.56l-.67,7.36-3,6.64.12,7.6L586,149.67l1.37,8-3.2,6.59-1.89,7-5.3,5.94.64,7.76L573,191.09l-1.84,7,1.44,8-2.77,6.73L566.1,219l-7.88,0L549,221l-3.77-7.72,3.41-8.55-3.5-6.49-2.44-6.81-.78-7.3-6.61-5.56-.9-7.26v-7.54l-4.86-6.09-1.07-7.22L524.86,144l-.76-7.3,1.79-8.08-5.48-5.89,1.43-8-6.24-5.67-1.09-7.21-.31-7.45L510.36,88l.81-7.78-6-5.76-.29-7.32,8-.94,8,1,3.88,6.41-.21,7.74L528.36,88l1,7.41,2.87,6.86,3.39,6.72-1.18,8,4.35,6.44.79,7.45,1.65,7.22,3.71,6.62,3.42,6.7L545.26,160l1.9,7.14,6.33,5.87,1.94,7.14,3.19,6.78-3.09,7.83,2.93,6.43.32.1-.32-7.23,2.59-6.65L562,180l4-6.53,3.7-6.62-1-8,3.37-6.71,2.59-6.94,1.66-7.21,1.88-7.15,2.83-6.86,1.91-7.14,1-7.4.64-7.51,6.69-5.74-1.6-8.16L595.17,82l-.34-7.81,1.37-8,8.55,3Z" transform="translate(-10.13 -54.68)"/><path class="cls-6" d="M645.38,219.44l-7.45-2.62-7.24,2.41-3.05-7.16.78-7.24-.84-7.25,2.7-7.25L629,183.08l4.5-7.25-1.5-7.25,1-7.25-2.33-7.25,1.4-7.25-3.63-7.25,1.14-7.25-.23-7.25,3.34-7.25-2.86-7.25,2.62-7.25-.28-7.25-3.7-7.26.68-7.25L631,74.31l-.13-7,7.11-2.21,9.41-.11-4.83,9.35,1.5,7.25.39,7.25L643.06,96l4.75,7.25-1.21,7.25-2.15,7.25,2.92,7.25-1,7.25,1.65,7.25-1.35,7.26-4,7.25,3.57,7.25-3.65,7.25,4.36,7.25-1,7.25-1.83,7.25,1.86,7.25-3,7.26,4.08,7.24Z" transform="translate(-10.13 -54.68)"/><path class="cls-6" d="M692.93,219.44l-7.44-2.62-7.24,2.41-3.06-7.16.78-7.24-.83-7.25,2.69-7.25-1.26-7.25,4.49-7.25-1.5-7.25,1-7.25-2.32-7.25,1.39-7.25L676,139.58l1.15-7.25-.23-7.25,3.34-7.25-2.87-7.25,2.62-7.25-.27-7.25L676,88.82l.69-7.25,1.82-7.26-.12-7,7.11-2.21L694.9,65l-4.84,9.35,1.5,7.25.4,7.25L690.62,96l4.74,7.25-1.2,7.25L692,117.79l2.93,7.25-1,7.25,1.65,7.25-1.36,7.26-4,7.25,3.57,7.25-3.64,7.25,4.36,7.25-1,7.25-1.83,7.25,1.86,7.25-3,7.26,4.09,7.24Z" transform="translate(-10.13 -54.68)"/></g><g class="cls-1"><path class="cls-7" d="M33.53,213.92l-6.14,1-7-.07,1.88-6.75L21.74,201l-1.39-7.08,1.11-7.09L21,179.72l-1.2-7.08-1.25-7.09L20,158.47l.06-7.09-.86-7.09,1.13-7.08,1.79-7.09L20.79,123l2-7.08-4-7.09L20,101.77l1.89-7.09L19,87.6l-.87-7.09.15-7.1L20.75,67l6.64,1,8.9-3.36L35.16,73.4l1,7.08-1.33,7.09-2.68,7.08,2.89,7.09-.35,7.08,1.07,7.09,1,7.09-3.56,7.08,1.47,7.09-.88,7.09,2.66,7.09-.59,7.08,1.52,7.09-.31,7.08-3.84,7.09,3,7.09-1.13,7.09L34.11,201l2.94,7.31Z" transform="translate(-10.13 -54.68)"/><path class="cls-7" d="M63.5,208.78l-1.45-6.5.21-6.85,1.62-6L68,195.67l9.51,3,9,3.78,8.83.48,7.12-1.72,6.4-3,6.66-2.26,4-4.9,1.27-6.13,1.76-6.12,1.3-5.8-3.15-5-4.88-9.88-7.18-.67-4.1-4.26L99.79,148l-7.37-1-6.71-3.14-6-4.28-3.42-6.47-4-5.16-7.13-2.88-1.24-6.84-3-7.06.82-7.58,3.11-5.75-1.75-6.39,2.54-5.57,3.38-7.43,5.13-6.66,8.66-1.26,6.61-4.32,8-.89L105.4,62l7,.82,7.27-.8,7.07,1.93,4.15,5.52,3.11,6.2-1.17,6.54-1.09,6.31-6.87-1.83-6-4.86-7.07-4.24-7.93,1.9L95,83.7l-8,2.78-4.73,6.64-4.7,8.9,2.94,9.22,1.75,10.31,5.27,2.56,4,4,7,1.6,5.11,4.69,8.41.9,5.68,5.3,5.81,4.42,2.55,7.45,6.34,3.79.74,7.28,2.22,6.8,4.33,7.24-1,6.53-3,6-2.1,5.94-2.28,8.16L126,211l-9.79-.7-6.55,4-8.18,2-8.42-.84-7.67,4.2-8.88-2.89-8-4.79Z" transform="translate(-10.13 -54.68)"/><path class="cls-7" d="M158.44,208.78l-1.45-6.5.21-6.85,1.62-6,4.1,6.22,9.52,3,9,3.78,8.84.48,7.12-1.72,6.39-3,6.66-2.26,4-4.9,1.28-6.13,1.76-6.12,1.3-5.8-3.15-5-4.89-9.88-7.18-.67-4.09-4.26L194.73,148l-7.37-1-6.72-3.14-6-4.28-3.41-6.47-4-5.16-7.14-2.88-1.23-6.84-3-7.06.82-7.58,3.11-5.75-1.75-6.39,2.53-5.57L164,78.44l5.13-6.66,8.66-1.26,6.61-4.32,8-.89L200.33,62l7,.82,7.27-.8,7.08,1.93,4.15,5.52,3.1,6.2-1.16,6.54-1.09,6.31-6.88-1.83-6-4.86-7.07-4.24-7.94,1.9L190,83.7l-8,2.78-4.73,6.64-4.69,8.9,2.94,9.22,1.74,10.31,5.27,2.56,4,4,7,1.6,5.1,4.69,8.41.9,5.69,5.3,5.81,4.42,2.54,7.45,6.35,3.79.74,7.28,2.21,6.8,4.33,7.24-1,6.53-3,6-2.1,5.94-2.28,8.16L221,211l-9.78-.7-6.56,4-8.17,2-8.43-.84-7.66,4.2-8.88-2.89-8-4.79Z" transform="translate(-10.13 -54.68)"/><path class="cls-7" d="M347.29,155l1.28,7.47-.8,7.42-2.82,7-1.13,7.23-1.1,7.42-4.32,6.05-3.92,6.13-4.62,5.91-5.9,5-7.67,1.2-7.36,1.34-7.46,1.29-7.14-1.55-6.53-3.1-7-1.12-4.77-5.27-7.87-1.84L264.84,199l-1.45-7.16-5.14-5.77-2.53-6.93-.91-7.28,2.29-7.41.59-7.14-4.07-7,1.85-7-1.05-7,1.35-7,2.72-7-2.94-7,.36-7-1.09-7-1-7,3.63-7-1.5-7,.89-7L254.66,65l8.59.1,9.3-.72L273,73.8l-3.91,7.49,3.1,7.49-1.15,7.49L270,103.75l3,7.49-2.22,7.49-2.65,7.49,2.36,7.49,3.08,7.5-.78,7.49.83,7.5-2.47,7.07,2,6.85-3,7.9,3.76,6.55,2.73,7,6.64,3.95,5.42,5,7.74-1.37,6.67,1.71,6.58-.8,7.61,1.11,4.41-6.12,6.57-3.45,3.19-6.43-1.34-7.63,1.95-6.39,2.49-6.58.17-6.88-2.28-7-1-7,5.68-7-1.49-7-.39-7,1.33-7-4.71-7,1.19-7,2.14-7-2.9-7,1-7-1.64-7,1.77-8L341.69,69l8-3.28-3.36,8,4.33,7.38-1,7.39-1.82,7.38,1.85,7.39-3,7.38,4.06,7.38-1.88,7.39,1,7.39-1.08,7.39,2,7.59Z" transform="translate(-10.13 -54.68)"/><path class="cls-7" d="M445.33,214l-6.12.9-7.36-.21-7.37-1.73-7.37.53-7.36,1.39-7.37-1.11-7.37.47-7.38,1.19-8.43.84,1-8.19.06-7.08-.86-7.08,1.13-7.09,1.79-7.09L381,172.64l2-7.09-4-7.08,1.16-7.09,1.89-7.09-2.93-7.08-.87-7.09.15-7.09,2.82-7.08.74-7.09-4-7.09,1.82-7.09-1-7.08,1.33-7.09,2.68-7.1L380,66.06l7.3.24,7.06-1.06,7.06-1,7.05,3.57,7.06-1.48,7,.88,7.07-2.65,7.06.59,9.09-.62.39,9.7-3.49,6.94-5.9,2.56-7-1.12-7-1.1-7,3-7-2.18-7-2.6L394.83,82l3,7.15-.76,7.07.81,7.07-2.63,7.07,1.24,7.07-4.4,7.08,1.9,8.08,8.47,1.31,7.53-2.27,7.53,1.36,7.54-3.55,7.53,1.12,8.44.16-2.91,8.7,2.58,8.39-8.1-2.32-7.53.27-7.53,3.62-7.54-.67-7.53-1.78-7.75.12,2.15,7.65.95,7.44-5.58,7.44,1.46,7.45.39,7.44-1.31,7.45,3.92,5.69,5.61.44,7.37,2.11,7.38-2.86,7.38,1,7.38-1.62,7.38,1.33,5.49,3.11,2.79,6.19Z" transform="translate(-10.13 -54.68)"/><path class="cls-7" d="M611.33,67.43,610.26,73,608,79.7l-3.76,6.24-1.59,6.92-.78,7.18-3.17,6.43L597,113.38l-1,7.12-.9,7.14L591.61,134l-2.16,6.75-1.29,7L585,154.16l-3.81,6.23-.82,7.16-4,6.17,1.69,7.95-3.21,6.42-3.91,6.2.68,7.64-1.27,7-3,7.71-9.09-2.52-7.1-.45-5.19-4.65-.32-7.3-3.05-6.46-.79-7.15.5-7.54-4.83-5.92-1.73-6.87-3.08-6.45-3-6.47,1.34-7.8-3.47-6.34-1.22-7-4.6-6-1.5-6.93-3.52-6.33-1.77-6.85,1.62-7.89-5-5.88-1-7.09-1-7.09-4.89-5.91.06-7.56,8.28,2.55L521,66.42l4.89,6,1.3,7.15L530,86.3,529.55,94l3.23,6.6-2.18,8.17,3.44,6.53,1.14,7.21,4.22,6.3.73,7.32,5.44,5.94,1,7.26,2.25,6.88-1.09,7.86,4.73,6.15-.42,7.67,2.29,6.88,5.06,5.72.32,6.66-.73.46,1.11-6.78-.42-7.25,1.17-7.2,7.43-5.32.68-7.35,1.71-7L574,150.1l-2.37-8.27,3.21-6.59,4.1-6.32-.66-7.75,3-6.63.53-7.4,3.35-6.54L591,94.79l-1.26-7.92L595.23,81l-2-8.17,3.27-7,8.14,1.68Z" transform="translate(-10.13 -54.68)"/><path class="cls-7" d="M644.08,213.92l-6.15,1-7-.07,1.88-6.75-.54-7.08-1.39-7.08,1.12-7.09-.47-7.09-1.2-7.08-1.26-7.09,1.48-7.08.07-7.09-.87-7.09,1.14-7.08,1.78-7.09L631.34,123l2-7.08-4-7.09,1.16-7.09,1.89-7.09-2.92-7.08-.88-7.09.15-7.1L631.3,67l6.63,1,8.91-3.36L645.7,73.4l1,7.08-1.33,7.09-2.68,7.08,2.89,7.09-.35,7.08,1.07,7.09,1,7.09-3.56,7.08,1.48,7.09-.88,7.09,2.65,7.09-.59,7.08,1.52,7.09-.3,7.08-3.85,7.09,3,7.09-1.12,7.09-1.1,7.09,3,7.31Z" transform="translate(-10.13 -54.68)"/><path class="cls-7" d="M691.63,213.92l-6.14,1-7-.07,1.88-6.75-.53-7.08-1.39-7.08,1.11-7.09-.47-7.09-1.2-7.08-1.25-7.09,1.48-7.08.06-7.09-.86-7.09,1.13-7.08,1.79-7.09L678.9,123l2-7.08-4-7.09,1.16-7.09L680,94.68l-2.93-7.08-.87-7.09.15-7.1L678.85,67l6.64,1,8.9-3.36-1.13,8.71,1,7.08L693,87.57l-2.68,7.08,2.89,7.09-.35,7.08,1.07,7.09,1,7.09-3.56,7.08,1.47,7.09-.88,7.09,2.66,7.09-.59,7.08,1.52,7.09-.31,7.08-3.84,7.09,3,7.09-1.13,7.09L692.21,201l2.94,7.31Z" transform="translate(-10.13 -54.68)"/></g><text class="cls-8" transform="translate(231.66 236.87)">N<tspan class="cls-9" x="24.3" y="0">ov</tspan><tspan x="60.09" y="0">ember </tspan><tspan class="cls-10" x="170.46" y="0">2</tspan><tspan class="cls-11" x="187.83" y="0">0</tspan><tspan class="cls-12" x="207.87" y="0">2</tspan><tspan x="225.24" y="0">0</tspan></text></svg>